%
M48
M71
T01C0.700
T02C0.813
T03C1.000
T04C1.016
T05C1.300
T06C3.200
%
T01
X72644Y24384
X72644Y26924
X72644Y29464
X72644Y32004
X72644Y34544
X72644Y37084
X72644Y39624
X72644Y42164
X77724Y40894
X77724Y38354
X77724Y35814
X77724Y33274
X77724Y30734
X77724Y28194
X77724Y25654
T02
X63754Y35789
X58928Y36093
X52324Y29464
X48514Y29489
X42164Y29464
X38354Y29464
X32004Y23368
X32004Y18288
X42164Y19304
X48514Y19329
X52324Y19304
X52324Y15240
X48514Y9144
X48514Y4064
X42164Y15240
X38354Y39624
X31496Y40894
X31496Y45974
X46990Y50292
X57150Y50292
X58928Y46253
X63754Y45949
T03
X59182Y32766
X63754Y30226
X68834Y32766
X66802Y8382
T04
X71831Y11887
X76911Y11887
X38862Y43942
X38862Y49022
X20574Y45212
X20574Y52832
X20574Y16256
X20574Y8636
T05
X4597Y22881
X4597Y27961
X4597Y33041
X4597Y38121
X45995Y56871
X51075Y56871
X54589Y5105
X59669Y5105
T06
X3254Y3254
X3254Y58254
X88254Y58254
X88254Y3254
M30
