G75*
%MOIN*%
%OFA0B0*%
%FSLAX25Y25*%
%IPPOS*%
%LPD*%
%AMOC8*
5,1,8,0,0,1.08239X$1,22.5*
%
%ADD10C,0.00000*%
%ADD11C,0.00600*%
%ADD12R,0.15000X0.02500*%
%ADD13C,0.00700*%
%ADD14R,0.02500X0.09000*%
%ADD15C,0.00500*%
%ADD16R,0.05000X0.80000*%
%ADD17C,0.00800*%
%ADD18C,0.00400*%
%ADD19R,0.02400X0.03400*%
%ADD20R,0.03400X0.02400*%
%ADD21C,0.01200*%
%ADD22R,0.09000X0.02500*%
D10*
X0001000Y0001000D02*
X0001000Y0240961D01*
X0359701Y0240961D01*
X0359701Y0001000D01*
X0001000Y0001000D01*
X0006512Y0012811D02*
X0006514Y0012969D01*
X0006520Y0013127D01*
X0006530Y0013285D01*
X0006544Y0013443D01*
X0006562Y0013600D01*
X0006583Y0013757D01*
X0006609Y0013913D01*
X0006639Y0014069D01*
X0006672Y0014224D01*
X0006710Y0014377D01*
X0006751Y0014530D01*
X0006796Y0014682D01*
X0006845Y0014833D01*
X0006898Y0014982D01*
X0006954Y0015130D01*
X0007014Y0015276D01*
X0007078Y0015421D01*
X0007146Y0015564D01*
X0007217Y0015706D01*
X0007291Y0015846D01*
X0007369Y0015983D01*
X0007451Y0016119D01*
X0007535Y0016253D01*
X0007624Y0016384D01*
X0007715Y0016513D01*
X0007810Y0016640D01*
X0007907Y0016765D01*
X0008008Y0016887D01*
X0008112Y0017006D01*
X0008219Y0017123D01*
X0008329Y0017237D01*
X0008442Y0017348D01*
X0008557Y0017457D01*
X0008675Y0017562D01*
X0008796Y0017664D01*
X0008919Y0017764D01*
X0009045Y0017860D01*
X0009173Y0017953D01*
X0009303Y0018043D01*
X0009436Y0018129D01*
X0009571Y0018213D01*
X0009707Y0018292D01*
X0009846Y0018369D01*
X0009987Y0018441D01*
X0010129Y0018511D01*
X0010273Y0018576D01*
X0010419Y0018638D01*
X0010566Y0018696D01*
X0010715Y0018751D01*
X0010865Y0018802D01*
X0011016Y0018849D01*
X0011168Y0018892D01*
X0011321Y0018931D01*
X0011476Y0018967D01*
X0011631Y0018998D01*
X0011787Y0019026D01*
X0011943Y0019050D01*
X0012100Y0019070D01*
X0012258Y0019086D01*
X0012415Y0019098D01*
X0012574Y0019106D01*
X0012732Y0019110D01*
X0012890Y0019110D01*
X0013048Y0019106D01*
X0013207Y0019098D01*
X0013364Y0019086D01*
X0013522Y0019070D01*
X0013679Y0019050D01*
X0013835Y0019026D01*
X0013991Y0018998D01*
X0014146Y0018967D01*
X0014301Y0018931D01*
X0014454Y0018892D01*
X0014606Y0018849D01*
X0014757Y0018802D01*
X0014907Y0018751D01*
X0015056Y0018696D01*
X0015203Y0018638D01*
X0015349Y0018576D01*
X0015493Y0018511D01*
X0015635Y0018441D01*
X0015776Y0018369D01*
X0015915Y0018292D01*
X0016051Y0018213D01*
X0016186Y0018129D01*
X0016319Y0018043D01*
X0016449Y0017953D01*
X0016577Y0017860D01*
X0016703Y0017764D01*
X0016826Y0017664D01*
X0016947Y0017562D01*
X0017065Y0017457D01*
X0017180Y0017348D01*
X0017293Y0017237D01*
X0017403Y0017123D01*
X0017510Y0017006D01*
X0017614Y0016887D01*
X0017715Y0016765D01*
X0017812Y0016640D01*
X0017907Y0016513D01*
X0017998Y0016384D01*
X0018087Y0016253D01*
X0018171Y0016119D01*
X0018253Y0015983D01*
X0018331Y0015846D01*
X0018405Y0015706D01*
X0018476Y0015564D01*
X0018544Y0015421D01*
X0018608Y0015276D01*
X0018668Y0015130D01*
X0018724Y0014982D01*
X0018777Y0014833D01*
X0018826Y0014682D01*
X0018871Y0014530D01*
X0018912Y0014377D01*
X0018950Y0014224D01*
X0018983Y0014069D01*
X0019013Y0013913D01*
X0019039Y0013757D01*
X0019060Y0013600D01*
X0019078Y0013443D01*
X0019092Y0013285D01*
X0019102Y0013127D01*
X0019108Y0012969D01*
X0019110Y0012811D01*
X0019108Y0012653D01*
X0019102Y0012495D01*
X0019092Y0012337D01*
X0019078Y0012179D01*
X0019060Y0012022D01*
X0019039Y0011865D01*
X0019013Y0011709D01*
X0018983Y0011553D01*
X0018950Y0011398D01*
X0018912Y0011245D01*
X0018871Y0011092D01*
X0018826Y0010940D01*
X0018777Y0010789D01*
X0018724Y0010640D01*
X0018668Y0010492D01*
X0018608Y0010346D01*
X0018544Y0010201D01*
X0018476Y0010058D01*
X0018405Y0009916D01*
X0018331Y0009776D01*
X0018253Y0009639D01*
X0018171Y0009503D01*
X0018087Y0009369D01*
X0017998Y0009238D01*
X0017907Y0009109D01*
X0017812Y0008982D01*
X0017715Y0008857D01*
X0017614Y0008735D01*
X0017510Y0008616D01*
X0017403Y0008499D01*
X0017293Y0008385D01*
X0017180Y0008274D01*
X0017065Y0008165D01*
X0016947Y0008060D01*
X0016826Y0007958D01*
X0016703Y0007858D01*
X0016577Y0007762D01*
X0016449Y0007669D01*
X0016319Y0007579D01*
X0016186Y0007493D01*
X0016051Y0007409D01*
X0015915Y0007330D01*
X0015776Y0007253D01*
X0015635Y0007181D01*
X0015493Y0007111D01*
X0015349Y0007046D01*
X0015203Y0006984D01*
X0015056Y0006926D01*
X0014907Y0006871D01*
X0014757Y0006820D01*
X0014606Y0006773D01*
X0014454Y0006730D01*
X0014301Y0006691D01*
X0014146Y0006655D01*
X0013991Y0006624D01*
X0013835Y0006596D01*
X0013679Y0006572D01*
X0013522Y0006552D01*
X0013364Y0006536D01*
X0013207Y0006524D01*
X0013048Y0006516D01*
X0012890Y0006512D01*
X0012732Y0006512D01*
X0012574Y0006516D01*
X0012415Y0006524D01*
X0012258Y0006536D01*
X0012100Y0006552D01*
X0011943Y0006572D01*
X0011787Y0006596D01*
X0011631Y0006624D01*
X0011476Y0006655D01*
X0011321Y0006691D01*
X0011168Y0006730D01*
X0011016Y0006773D01*
X0010865Y0006820D01*
X0010715Y0006871D01*
X0010566Y0006926D01*
X0010419Y0006984D01*
X0010273Y0007046D01*
X0010129Y0007111D01*
X0009987Y0007181D01*
X0009846Y0007253D01*
X0009707Y0007330D01*
X0009571Y0007409D01*
X0009436Y0007493D01*
X0009303Y0007579D01*
X0009173Y0007669D01*
X0009045Y0007762D01*
X0008919Y0007858D01*
X0008796Y0007958D01*
X0008675Y0008060D01*
X0008557Y0008165D01*
X0008442Y0008274D01*
X0008329Y0008385D01*
X0008219Y0008499D01*
X0008112Y0008616D01*
X0008008Y0008735D01*
X0007907Y0008857D01*
X0007810Y0008982D01*
X0007715Y0009109D01*
X0007624Y0009238D01*
X0007535Y0009369D01*
X0007451Y0009503D01*
X0007369Y0009639D01*
X0007291Y0009776D01*
X0007217Y0009916D01*
X0007146Y0010058D01*
X0007078Y0010201D01*
X0007014Y0010346D01*
X0006954Y0010492D01*
X0006898Y0010640D01*
X0006845Y0010789D01*
X0006796Y0010940D01*
X0006751Y0011092D01*
X0006710Y0011245D01*
X0006672Y0011398D01*
X0006639Y0011553D01*
X0006609Y0011709D01*
X0006583Y0011865D01*
X0006562Y0012022D01*
X0006544Y0012179D01*
X0006530Y0012337D01*
X0006520Y0012495D01*
X0006514Y0012653D01*
X0006512Y0012811D01*
X0006512Y0229346D02*
X0006514Y0229504D01*
X0006520Y0229662D01*
X0006530Y0229820D01*
X0006544Y0229978D01*
X0006562Y0230135D01*
X0006583Y0230292D01*
X0006609Y0230448D01*
X0006639Y0230604D01*
X0006672Y0230759D01*
X0006710Y0230912D01*
X0006751Y0231065D01*
X0006796Y0231217D01*
X0006845Y0231368D01*
X0006898Y0231517D01*
X0006954Y0231665D01*
X0007014Y0231811D01*
X0007078Y0231956D01*
X0007146Y0232099D01*
X0007217Y0232241D01*
X0007291Y0232381D01*
X0007369Y0232518D01*
X0007451Y0232654D01*
X0007535Y0232788D01*
X0007624Y0232919D01*
X0007715Y0233048D01*
X0007810Y0233175D01*
X0007907Y0233300D01*
X0008008Y0233422D01*
X0008112Y0233541D01*
X0008219Y0233658D01*
X0008329Y0233772D01*
X0008442Y0233883D01*
X0008557Y0233992D01*
X0008675Y0234097D01*
X0008796Y0234199D01*
X0008919Y0234299D01*
X0009045Y0234395D01*
X0009173Y0234488D01*
X0009303Y0234578D01*
X0009436Y0234664D01*
X0009571Y0234748D01*
X0009707Y0234827D01*
X0009846Y0234904D01*
X0009987Y0234976D01*
X0010129Y0235046D01*
X0010273Y0235111D01*
X0010419Y0235173D01*
X0010566Y0235231D01*
X0010715Y0235286D01*
X0010865Y0235337D01*
X0011016Y0235384D01*
X0011168Y0235427D01*
X0011321Y0235466D01*
X0011476Y0235502D01*
X0011631Y0235533D01*
X0011787Y0235561D01*
X0011943Y0235585D01*
X0012100Y0235605D01*
X0012258Y0235621D01*
X0012415Y0235633D01*
X0012574Y0235641D01*
X0012732Y0235645D01*
X0012890Y0235645D01*
X0013048Y0235641D01*
X0013207Y0235633D01*
X0013364Y0235621D01*
X0013522Y0235605D01*
X0013679Y0235585D01*
X0013835Y0235561D01*
X0013991Y0235533D01*
X0014146Y0235502D01*
X0014301Y0235466D01*
X0014454Y0235427D01*
X0014606Y0235384D01*
X0014757Y0235337D01*
X0014907Y0235286D01*
X0015056Y0235231D01*
X0015203Y0235173D01*
X0015349Y0235111D01*
X0015493Y0235046D01*
X0015635Y0234976D01*
X0015776Y0234904D01*
X0015915Y0234827D01*
X0016051Y0234748D01*
X0016186Y0234664D01*
X0016319Y0234578D01*
X0016449Y0234488D01*
X0016577Y0234395D01*
X0016703Y0234299D01*
X0016826Y0234199D01*
X0016947Y0234097D01*
X0017065Y0233992D01*
X0017180Y0233883D01*
X0017293Y0233772D01*
X0017403Y0233658D01*
X0017510Y0233541D01*
X0017614Y0233422D01*
X0017715Y0233300D01*
X0017812Y0233175D01*
X0017907Y0233048D01*
X0017998Y0232919D01*
X0018087Y0232788D01*
X0018171Y0232654D01*
X0018253Y0232518D01*
X0018331Y0232381D01*
X0018405Y0232241D01*
X0018476Y0232099D01*
X0018544Y0231956D01*
X0018608Y0231811D01*
X0018668Y0231665D01*
X0018724Y0231517D01*
X0018777Y0231368D01*
X0018826Y0231217D01*
X0018871Y0231065D01*
X0018912Y0230912D01*
X0018950Y0230759D01*
X0018983Y0230604D01*
X0019013Y0230448D01*
X0019039Y0230292D01*
X0019060Y0230135D01*
X0019078Y0229978D01*
X0019092Y0229820D01*
X0019102Y0229662D01*
X0019108Y0229504D01*
X0019110Y0229346D01*
X0019108Y0229188D01*
X0019102Y0229030D01*
X0019092Y0228872D01*
X0019078Y0228714D01*
X0019060Y0228557D01*
X0019039Y0228400D01*
X0019013Y0228244D01*
X0018983Y0228088D01*
X0018950Y0227933D01*
X0018912Y0227780D01*
X0018871Y0227627D01*
X0018826Y0227475D01*
X0018777Y0227324D01*
X0018724Y0227175D01*
X0018668Y0227027D01*
X0018608Y0226881D01*
X0018544Y0226736D01*
X0018476Y0226593D01*
X0018405Y0226451D01*
X0018331Y0226311D01*
X0018253Y0226174D01*
X0018171Y0226038D01*
X0018087Y0225904D01*
X0017998Y0225773D01*
X0017907Y0225644D01*
X0017812Y0225517D01*
X0017715Y0225392D01*
X0017614Y0225270D01*
X0017510Y0225151D01*
X0017403Y0225034D01*
X0017293Y0224920D01*
X0017180Y0224809D01*
X0017065Y0224700D01*
X0016947Y0224595D01*
X0016826Y0224493D01*
X0016703Y0224393D01*
X0016577Y0224297D01*
X0016449Y0224204D01*
X0016319Y0224114D01*
X0016186Y0224028D01*
X0016051Y0223944D01*
X0015915Y0223865D01*
X0015776Y0223788D01*
X0015635Y0223716D01*
X0015493Y0223646D01*
X0015349Y0223581D01*
X0015203Y0223519D01*
X0015056Y0223461D01*
X0014907Y0223406D01*
X0014757Y0223355D01*
X0014606Y0223308D01*
X0014454Y0223265D01*
X0014301Y0223226D01*
X0014146Y0223190D01*
X0013991Y0223159D01*
X0013835Y0223131D01*
X0013679Y0223107D01*
X0013522Y0223087D01*
X0013364Y0223071D01*
X0013207Y0223059D01*
X0013048Y0223051D01*
X0012890Y0223047D01*
X0012732Y0223047D01*
X0012574Y0223051D01*
X0012415Y0223059D01*
X0012258Y0223071D01*
X0012100Y0223087D01*
X0011943Y0223107D01*
X0011787Y0223131D01*
X0011631Y0223159D01*
X0011476Y0223190D01*
X0011321Y0223226D01*
X0011168Y0223265D01*
X0011016Y0223308D01*
X0010865Y0223355D01*
X0010715Y0223406D01*
X0010566Y0223461D01*
X0010419Y0223519D01*
X0010273Y0223581D01*
X0010129Y0223646D01*
X0009987Y0223716D01*
X0009846Y0223788D01*
X0009707Y0223865D01*
X0009571Y0223944D01*
X0009436Y0224028D01*
X0009303Y0224114D01*
X0009173Y0224204D01*
X0009045Y0224297D01*
X0008919Y0224393D01*
X0008796Y0224493D01*
X0008675Y0224595D01*
X0008557Y0224700D01*
X0008442Y0224809D01*
X0008329Y0224920D01*
X0008219Y0225034D01*
X0008112Y0225151D01*
X0008008Y0225270D01*
X0007907Y0225392D01*
X0007810Y0225517D01*
X0007715Y0225644D01*
X0007624Y0225773D01*
X0007535Y0225904D01*
X0007451Y0226038D01*
X0007369Y0226174D01*
X0007291Y0226311D01*
X0007217Y0226451D01*
X0007146Y0226593D01*
X0007078Y0226736D01*
X0007014Y0226881D01*
X0006954Y0227027D01*
X0006898Y0227175D01*
X0006845Y0227324D01*
X0006796Y0227475D01*
X0006751Y0227627D01*
X0006710Y0227780D01*
X0006672Y0227933D01*
X0006639Y0228088D01*
X0006609Y0228244D01*
X0006583Y0228400D01*
X0006562Y0228557D01*
X0006544Y0228714D01*
X0006530Y0228872D01*
X0006520Y0229030D01*
X0006514Y0229188D01*
X0006512Y0229346D01*
X0341158Y0229346D02*
X0341160Y0229504D01*
X0341166Y0229662D01*
X0341176Y0229820D01*
X0341190Y0229978D01*
X0341208Y0230135D01*
X0341229Y0230292D01*
X0341255Y0230448D01*
X0341285Y0230604D01*
X0341318Y0230759D01*
X0341356Y0230912D01*
X0341397Y0231065D01*
X0341442Y0231217D01*
X0341491Y0231368D01*
X0341544Y0231517D01*
X0341600Y0231665D01*
X0341660Y0231811D01*
X0341724Y0231956D01*
X0341792Y0232099D01*
X0341863Y0232241D01*
X0341937Y0232381D01*
X0342015Y0232518D01*
X0342097Y0232654D01*
X0342181Y0232788D01*
X0342270Y0232919D01*
X0342361Y0233048D01*
X0342456Y0233175D01*
X0342553Y0233300D01*
X0342654Y0233422D01*
X0342758Y0233541D01*
X0342865Y0233658D01*
X0342975Y0233772D01*
X0343088Y0233883D01*
X0343203Y0233992D01*
X0343321Y0234097D01*
X0343442Y0234199D01*
X0343565Y0234299D01*
X0343691Y0234395D01*
X0343819Y0234488D01*
X0343949Y0234578D01*
X0344082Y0234664D01*
X0344217Y0234748D01*
X0344353Y0234827D01*
X0344492Y0234904D01*
X0344633Y0234976D01*
X0344775Y0235046D01*
X0344919Y0235111D01*
X0345065Y0235173D01*
X0345212Y0235231D01*
X0345361Y0235286D01*
X0345511Y0235337D01*
X0345662Y0235384D01*
X0345814Y0235427D01*
X0345967Y0235466D01*
X0346122Y0235502D01*
X0346277Y0235533D01*
X0346433Y0235561D01*
X0346589Y0235585D01*
X0346746Y0235605D01*
X0346904Y0235621D01*
X0347061Y0235633D01*
X0347220Y0235641D01*
X0347378Y0235645D01*
X0347536Y0235645D01*
X0347694Y0235641D01*
X0347853Y0235633D01*
X0348010Y0235621D01*
X0348168Y0235605D01*
X0348325Y0235585D01*
X0348481Y0235561D01*
X0348637Y0235533D01*
X0348792Y0235502D01*
X0348947Y0235466D01*
X0349100Y0235427D01*
X0349252Y0235384D01*
X0349403Y0235337D01*
X0349553Y0235286D01*
X0349702Y0235231D01*
X0349849Y0235173D01*
X0349995Y0235111D01*
X0350139Y0235046D01*
X0350281Y0234976D01*
X0350422Y0234904D01*
X0350561Y0234827D01*
X0350697Y0234748D01*
X0350832Y0234664D01*
X0350965Y0234578D01*
X0351095Y0234488D01*
X0351223Y0234395D01*
X0351349Y0234299D01*
X0351472Y0234199D01*
X0351593Y0234097D01*
X0351711Y0233992D01*
X0351826Y0233883D01*
X0351939Y0233772D01*
X0352049Y0233658D01*
X0352156Y0233541D01*
X0352260Y0233422D01*
X0352361Y0233300D01*
X0352458Y0233175D01*
X0352553Y0233048D01*
X0352644Y0232919D01*
X0352733Y0232788D01*
X0352817Y0232654D01*
X0352899Y0232518D01*
X0352977Y0232381D01*
X0353051Y0232241D01*
X0353122Y0232099D01*
X0353190Y0231956D01*
X0353254Y0231811D01*
X0353314Y0231665D01*
X0353370Y0231517D01*
X0353423Y0231368D01*
X0353472Y0231217D01*
X0353517Y0231065D01*
X0353558Y0230912D01*
X0353596Y0230759D01*
X0353629Y0230604D01*
X0353659Y0230448D01*
X0353685Y0230292D01*
X0353706Y0230135D01*
X0353724Y0229978D01*
X0353738Y0229820D01*
X0353748Y0229662D01*
X0353754Y0229504D01*
X0353756Y0229346D01*
X0353754Y0229188D01*
X0353748Y0229030D01*
X0353738Y0228872D01*
X0353724Y0228714D01*
X0353706Y0228557D01*
X0353685Y0228400D01*
X0353659Y0228244D01*
X0353629Y0228088D01*
X0353596Y0227933D01*
X0353558Y0227780D01*
X0353517Y0227627D01*
X0353472Y0227475D01*
X0353423Y0227324D01*
X0353370Y0227175D01*
X0353314Y0227027D01*
X0353254Y0226881D01*
X0353190Y0226736D01*
X0353122Y0226593D01*
X0353051Y0226451D01*
X0352977Y0226311D01*
X0352899Y0226174D01*
X0352817Y0226038D01*
X0352733Y0225904D01*
X0352644Y0225773D01*
X0352553Y0225644D01*
X0352458Y0225517D01*
X0352361Y0225392D01*
X0352260Y0225270D01*
X0352156Y0225151D01*
X0352049Y0225034D01*
X0351939Y0224920D01*
X0351826Y0224809D01*
X0351711Y0224700D01*
X0351593Y0224595D01*
X0351472Y0224493D01*
X0351349Y0224393D01*
X0351223Y0224297D01*
X0351095Y0224204D01*
X0350965Y0224114D01*
X0350832Y0224028D01*
X0350697Y0223944D01*
X0350561Y0223865D01*
X0350422Y0223788D01*
X0350281Y0223716D01*
X0350139Y0223646D01*
X0349995Y0223581D01*
X0349849Y0223519D01*
X0349702Y0223461D01*
X0349553Y0223406D01*
X0349403Y0223355D01*
X0349252Y0223308D01*
X0349100Y0223265D01*
X0348947Y0223226D01*
X0348792Y0223190D01*
X0348637Y0223159D01*
X0348481Y0223131D01*
X0348325Y0223107D01*
X0348168Y0223087D01*
X0348010Y0223071D01*
X0347853Y0223059D01*
X0347694Y0223051D01*
X0347536Y0223047D01*
X0347378Y0223047D01*
X0347220Y0223051D01*
X0347061Y0223059D01*
X0346904Y0223071D01*
X0346746Y0223087D01*
X0346589Y0223107D01*
X0346433Y0223131D01*
X0346277Y0223159D01*
X0346122Y0223190D01*
X0345967Y0223226D01*
X0345814Y0223265D01*
X0345662Y0223308D01*
X0345511Y0223355D01*
X0345361Y0223406D01*
X0345212Y0223461D01*
X0345065Y0223519D01*
X0344919Y0223581D01*
X0344775Y0223646D01*
X0344633Y0223716D01*
X0344492Y0223788D01*
X0344353Y0223865D01*
X0344217Y0223944D01*
X0344082Y0224028D01*
X0343949Y0224114D01*
X0343819Y0224204D01*
X0343691Y0224297D01*
X0343565Y0224393D01*
X0343442Y0224493D01*
X0343321Y0224595D01*
X0343203Y0224700D01*
X0343088Y0224809D01*
X0342975Y0224920D01*
X0342865Y0225034D01*
X0342758Y0225151D01*
X0342654Y0225270D01*
X0342553Y0225392D01*
X0342456Y0225517D01*
X0342361Y0225644D01*
X0342270Y0225773D01*
X0342181Y0225904D01*
X0342097Y0226038D01*
X0342015Y0226174D01*
X0341937Y0226311D01*
X0341863Y0226451D01*
X0341792Y0226593D01*
X0341724Y0226736D01*
X0341660Y0226881D01*
X0341600Y0227027D01*
X0341544Y0227175D01*
X0341491Y0227324D01*
X0341442Y0227475D01*
X0341397Y0227627D01*
X0341356Y0227780D01*
X0341318Y0227933D01*
X0341285Y0228088D01*
X0341255Y0228244D01*
X0341229Y0228400D01*
X0341208Y0228557D01*
X0341190Y0228714D01*
X0341176Y0228872D01*
X0341166Y0229030D01*
X0341160Y0229188D01*
X0341158Y0229346D01*
X0341158Y0012811D02*
X0341160Y0012969D01*
X0341166Y0013127D01*
X0341176Y0013285D01*
X0341190Y0013443D01*
X0341208Y0013600D01*
X0341229Y0013757D01*
X0341255Y0013913D01*
X0341285Y0014069D01*
X0341318Y0014224D01*
X0341356Y0014377D01*
X0341397Y0014530D01*
X0341442Y0014682D01*
X0341491Y0014833D01*
X0341544Y0014982D01*
X0341600Y0015130D01*
X0341660Y0015276D01*
X0341724Y0015421D01*
X0341792Y0015564D01*
X0341863Y0015706D01*
X0341937Y0015846D01*
X0342015Y0015983D01*
X0342097Y0016119D01*
X0342181Y0016253D01*
X0342270Y0016384D01*
X0342361Y0016513D01*
X0342456Y0016640D01*
X0342553Y0016765D01*
X0342654Y0016887D01*
X0342758Y0017006D01*
X0342865Y0017123D01*
X0342975Y0017237D01*
X0343088Y0017348D01*
X0343203Y0017457D01*
X0343321Y0017562D01*
X0343442Y0017664D01*
X0343565Y0017764D01*
X0343691Y0017860D01*
X0343819Y0017953D01*
X0343949Y0018043D01*
X0344082Y0018129D01*
X0344217Y0018213D01*
X0344353Y0018292D01*
X0344492Y0018369D01*
X0344633Y0018441D01*
X0344775Y0018511D01*
X0344919Y0018576D01*
X0345065Y0018638D01*
X0345212Y0018696D01*
X0345361Y0018751D01*
X0345511Y0018802D01*
X0345662Y0018849D01*
X0345814Y0018892D01*
X0345967Y0018931D01*
X0346122Y0018967D01*
X0346277Y0018998D01*
X0346433Y0019026D01*
X0346589Y0019050D01*
X0346746Y0019070D01*
X0346904Y0019086D01*
X0347061Y0019098D01*
X0347220Y0019106D01*
X0347378Y0019110D01*
X0347536Y0019110D01*
X0347694Y0019106D01*
X0347853Y0019098D01*
X0348010Y0019086D01*
X0348168Y0019070D01*
X0348325Y0019050D01*
X0348481Y0019026D01*
X0348637Y0018998D01*
X0348792Y0018967D01*
X0348947Y0018931D01*
X0349100Y0018892D01*
X0349252Y0018849D01*
X0349403Y0018802D01*
X0349553Y0018751D01*
X0349702Y0018696D01*
X0349849Y0018638D01*
X0349995Y0018576D01*
X0350139Y0018511D01*
X0350281Y0018441D01*
X0350422Y0018369D01*
X0350561Y0018292D01*
X0350697Y0018213D01*
X0350832Y0018129D01*
X0350965Y0018043D01*
X0351095Y0017953D01*
X0351223Y0017860D01*
X0351349Y0017764D01*
X0351472Y0017664D01*
X0351593Y0017562D01*
X0351711Y0017457D01*
X0351826Y0017348D01*
X0351939Y0017237D01*
X0352049Y0017123D01*
X0352156Y0017006D01*
X0352260Y0016887D01*
X0352361Y0016765D01*
X0352458Y0016640D01*
X0352553Y0016513D01*
X0352644Y0016384D01*
X0352733Y0016253D01*
X0352817Y0016119D01*
X0352899Y0015983D01*
X0352977Y0015846D01*
X0353051Y0015706D01*
X0353122Y0015564D01*
X0353190Y0015421D01*
X0353254Y0015276D01*
X0353314Y0015130D01*
X0353370Y0014982D01*
X0353423Y0014833D01*
X0353472Y0014682D01*
X0353517Y0014530D01*
X0353558Y0014377D01*
X0353596Y0014224D01*
X0353629Y0014069D01*
X0353659Y0013913D01*
X0353685Y0013757D01*
X0353706Y0013600D01*
X0353724Y0013443D01*
X0353738Y0013285D01*
X0353748Y0013127D01*
X0353754Y0012969D01*
X0353756Y0012811D01*
X0353754Y0012653D01*
X0353748Y0012495D01*
X0353738Y0012337D01*
X0353724Y0012179D01*
X0353706Y0012022D01*
X0353685Y0011865D01*
X0353659Y0011709D01*
X0353629Y0011553D01*
X0353596Y0011398D01*
X0353558Y0011245D01*
X0353517Y0011092D01*
X0353472Y0010940D01*
X0353423Y0010789D01*
X0353370Y0010640D01*
X0353314Y0010492D01*
X0353254Y0010346D01*
X0353190Y0010201D01*
X0353122Y0010058D01*
X0353051Y0009916D01*
X0352977Y0009776D01*
X0352899Y0009639D01*
X0352817Y0009503D01*
X0352733Y0009369D01*
X0352644Y0009238D01*
X0352553Y0009109D01*
X0352458Y0008982D01*
X0352361Y0008857D01*
X0352260Y0008735D01*
X0352156Y0008616D01*
X0352049Y0008499D01*
X0351939Y0008385D01*
X0351826Y0008274D01*
X0351711Y0008165D01*
X0351593Y0008060D01*
X0351472Y0007958D01*
X0351349Y0007858D01*
X0351223Y0007762D01*
X0351095Y0007669D01*
X0350965Y0007579D01*
X0350832Y0007493D01*
X0350697Y0007409D01*
X0350561Y0007330D01*
X0350422Y0007253D01*
X0350281Y0007181D01*
X0350139Y0007111D01*
X0349995Y0007046D01*
X0349849Y0006984D01*
X0349702Y0006926D01*
X0349553Y0006871D01*
X0349403Y0006820D01*
X0349252Y0006773D01*
X0349100Y0006730D01*
X0348947Y0006691D01*
X0348792Y0006655D01*
X0348637Y0006624D01*
X0348481Y0006596D01*
X0348325Y0006572D01*
X0348168Y0006552D01*
X0348010Y0006536D01*
X0347853Y0006524D01*
X0347694Y0006516D01*
X0347536Y0006512D01*
X0347378Y0006512D01*
X0347220Y0006516D01*
X0347061Y0006524D01*
X0346904Y0006536D01*
X0346746Y0006552D01*
X0346589Y0006572D01*
X0346433Y0006596D01*
X0346277Y0006624D01*
X0346122Y0006655D01*
X0345967Y0006691D01*
X0345814Y0006730D01*
X0345662Y0006773D01*
X0345511Y0006820D01*
X0345361Y0006871D01*
X0345212Y0006926D01*
X0345065Y0006984D01*
X0344919Y0007046D01*
X0344775Y0007111D01*
X0344633Y0007181D01*
X0344492Y0007253D01*
X0344353Y0007330D01*
X0344217Y0007409D01*
X0344082Y0007493D01*
X0343949Y0007579D01*
X0343819Y0007669D01*
X0343691Y0007762D01*
X0343565Y0007858D01*
X0343442Y0007958D01*
X0343321Y0008060D01*
X0343203Y0008165D01*
X0343088Y0008274D01*
X0342975Y0008385D01*
X0342865Y0008499D01*
X0342758Y0008616D01*
X0342654Y0008735D01*
X0342553Y0008857D01*
X0342456Y0008982D01*
X0342361Y0009109D01*
X0342270Y0009238D01*
X0342181Y0009369D01*
X0342097Y0009503D01*
X0342015Y0009639D01*
X0341937Y0009776D01*
X0341863Y0009916D01*
X0341792Y0010058D01*
X0341724Y0010201D01*
X0341660Y0010346D01*
X0341600Y0010492D01*
X0341544Y0010640D01*
X0341491Y0010789D01*
X0341442Y0010940D01*
X0341397Y0011092D01*
X0341356Y0011245D01*
X0341318Y0011398D01*
X0341285Y0011553D01*
X0341255Y0011709D01*
X0341229Y0011865D01*
X0341208Y0012022D01*
X0341190Y0012179D01*
X0341176Y0012337D01*
X0341166Y0012495D01*
X0341160Y0012653D01*
X0341158Y0012811D01*
D11*
X0307800Y0040300D02*
X0307800Y0043300D01*
X0306300Y0041800D02*
X0309300Y0041800D01*
X0297300Y0046800D02*
X0296300Y0046800D01*
X0296300Y0042300D01*
X0293800Y0042300D01*
X0293800Y0051300D01*
X0296300Y0051300D01*
X0296300Y0046800D01*
X0272800Y0046800D02*
X0272806Y0047291D01*
X0272824Y0047781D01*
X0272854Y0048271D01*
X0272896Y0048760D01*
X0272950Y0049248D01*
X0273016Y0049735D01*
X0273094Y0050219D01*
X0273184Y0050702D01*
X0273286Y0051182D01*
X0273399Y0051660D01*
X0273524Y0052134D01*
X0273661Y0052606D01*
X0273809Y0053074D01*
X0273969Y0053538D01*
X0274140Y0053998D01*
X0274322Y0054454D01*
X0274516Y0054905D01*
X0274720Y0055351D01*
X0274936Y0055792D01*
X0275162Y0056228D01*
X0275398Y0056658D01*
X0275645Y0057082D01*
X0275903Y0057500D01*
X0276171Y0057911D01*
X0276448Y0058316D01*
X0276736Y0058714D01*
X0277033Y0059105D01*
X0277340Y0059488D01*
X0277656Y0059863D01*
X0277981Y0060231D01*
X0278315Y0060591D01*
X0278658Y0060942D01*
X0279009Y0061285D01*
X0279369Y0061619D01*
X0279737Y0061944D01*
X0280112Y0062260D01*
X0280495Y0062567D01*
X0280886Y0062864D01*
X0281284Y0063152D01*
X0281689Y0063429D01*
X0282100Y0063697D01*
X0282518Y0063955D01*
X0282942Y0064202D01*
X0283372Y0064438D01*
X0283808Y0064664D01*
X0284249Y0064880D01*
X0284695Y0065084D01*
X0285146Y0065278D01*
X0285602Y0065460D01*
X0286062Y0065631D01*
X0286526Y0065791D01*
X0286994Y0065939D01*
X0287466Y0066076D01*
X0287940Y0066201D01*
X0288418Y0066314D01*
X0288898Y0066416D01*
X0289381Y0066506D01*
X0289865Y0066584D01*
X0290352Y0066650D01*
X0290840Y0066704D01*
X0291329Y0066746D01*
X0291819Y0066776D01*
X0292309Y0066794D01*
X0292800Y0066800D01*
X0293291Y0066794D01*
X0293781Y0066776D01*
X0294271Y0066746D01*
X0294760Y0066704D01*
X0295248Y0066650D01*
X0295735Y0066584D01*
X0296219Y0066506D01*
X0296702Y0066416D01*
X0297182Y0066314D01*
X0297660Y0066201D01*
X0298134Y0066076D01*
X0298606Y0065939D01*
X0299074Y0065791D01*
X0299538Y0065631D01*
X0299998Y0065460D01*
X0300454Y0065278D01*
X0300905Y0065084D01*
X0301351Y0064880D01*
X0301792Y0064664D01*
X0302228Y0064438D01*
X0302658Y0064202D01*
X0303082Y0063955D01*
X0303500Y0063697D01*
X0303911Y0063429D01*
X0304316Y0063152D01*
X0304714Y0062864D01*
X0305105Y0062567D01*
X0305488Y0062260D01*
X0305863Y0061944D01*
X0306231Y0061619D01*
X0306591Y0061285D01*
X0306942Y0060942D01*
X0307285Y0060591D01*
X0307619Y0060231D01*
X0307944Y0059863D01*
X0308260Y0059488D01*
X0308567Y0059105D01*
X0308864Y0058714D01*
X0309152Y0058316D01*
X0309429Y0057911D01*
X0309697Y0057500D01*
X0309955Y0057082D01*
X0310202Y0056658D01*
X0310438Y0056228D01*
X0310664Y0055792D01*
X0310880Y0055351D01*
X0311084Y0054905D01*
X0311278Y0054454D01*
X0311460Y0053998D01*
X0311631Y0053538D01*
X0311791Y0053074D01*
X0311939Y0052606D01*
X0312076Y0052134D01*
X0312201Y0051660D01*
X0312314Y0051182D01*
X0312416Y0050702D01*
X0312506Y0050219D01*
X0312584Y0049735D01*
X0312650Y0049248D01*
X0312704Y0048760D01*
X0312746Y0048271D01*
X0312776Y0047781D01*
X0312794Y0047291D01*
X0312800Y0046800D01*
X0312794Y0046309D01*
X0312776Y0045819D01*
X0312746Y0045329D01*
X0312704Y0044840D01*
X0312650Y0044352D01*
X0312584Y0043865D01*
X0312506Y0043381D01*
X0312416Y0042898D01*
X0312314Y0042418D01*
X0312201Y0041940D01*
X0312076Y0041466D01*
X0311939Y0040994D01*
X0311791Y0040526D01*
X0311631Y0040062D01*
X0311460Y0039602D01*
X0311278Y0039146D01*
X0311084Y0038695D01*
X0310880Y0038249D01*
X0310664Y0037808D01*
X0310438Y0037372D01*
X0310202Y0036942D01*
X0309955Y0036518D01*
X0309697Y0036100D01*
X0309429Y0035689D01*
X0309152Y0035284D01*
X0308864Y0034886D01*
X0308567Y0034495D01*
X0308260Y0034112D01*
X0307944Y0033737D01*
X0307619Y0033369D01*
X0307285Y0033009D01*
X0306942Y0032658D01*
X0306591Y0032315D01*
X0306231Y0031981D01*
X0305863Y0031656D01*
X0305488Y0031340D01*
X0305105Y0031033D01*
X0304714Y0030736D01*
X0304316Y0030448D01*
X0303911Y0030171D01*
X0303500Y0029903D01*
X0303082Y0029645D01*
X0302658Y0029398D01*
X0302228Y0029162D01*
X0301792Y0028936D01*
X0301351Y0028720D01*
X0300905Y0028516D01*
X0300454Y0028322D01*
X0299998Y0028140D01*
X0299538Y0027969D01*
X0299074Y0027809D01*
X0298606Y0027661D01*
X0298134Y0027524D01*
X0297660Y0027399D01*
X0297182Y0027286D01*
X0296702Y0027184D01*
X0296219Y0027094D01*
X0295735Y0027016D01*
X0295248Y0026950D01*
X0294760Y0026896D01*
X0294271Y0026854D01*
X0293781Y0026824D01*
X0293291Y0026806D01*
X0292800Y0026800D01*
X0292309Y0026806D01*
X0291819Y0026824D01*
X0291329Y0026854D01*
X0290840Y0026896D01*
X0290352Y0026950D01*
X0289865Y0027016D01*
X0289381Y0027094D01*
X0288898Y0027184D01*
X0288418Y0027286D01*
X0287940Y0027399D01*
X0287466Y0027524D01*
X0286994Y0027661D01*
X0286526Y0027809D01*
X0286062Y0027969D01*
X0285602Y0028140D01*
X0285146Y0028322D01*
X0284695Y0028516D01*
X0284249Y0028720D01*
X0283808Y0028936D01*
X0283372Y0029162D01*
X0282942Y0029398D01*
X0282518Y0029645D01*
X0282100Y0029903D01*
X0281689Y0030171D01*
X0281284Y0030448D01*
X0280886Y0030736D01*
X0280495Y0031033D01*
X0280112Y0031340D01*
X0279737Y0031656D01*
X0279369Y0031981D01*
X0279009Y0032315D01*
X0278658Y0032658D01*
X0278315Y0033009D01*
X0277981Y0033369D01*
X0277656Y0033737D01*
X0277340Y0034112D01*
X0277033Y0034495D01*
X0276736Y0034886D01*
X0276448Y0035284D01*
X0276171Y0035689D01*
X0275903Y0036100D01*
X0275645Y0036518D01*
X0275398Y0036942D01*
X0275162Y0037372D01*
X0274936Y0037808D01*
X0274720Y0038249D01*
X0274516Y0038695D01*
X0274322Y0039146D01*
X0274140Y0039602D01*
X0273969Y0040062D01*
X0273809Y0040526D01*
X0273661Y0040994D01*
X0273524Y0041466D01*
X0273399Y0041940D01*
X0273286Y0042418D01*
X0273184Y0042898D01*
X0273094Y0043381D01*
X0273016Y0043865D01*
X0272950Y0044352D01*
X0272896Y0044840D01*
X0272854Y0045329D01*
X0272824Y0045819D01*
X0272806Y0046309D01*
X0272800Y0046800D01*
X0288300Y0046800D02*
X0290300Y0046800D01*
X0210500Y0084500D02*
X0210500Y0086000D01*
X0210000Y0086500D01*
X0210000Y0105500D01*
X0210500Y0106000D01*
X0210500Y0107500D01*
X0210498Y0107560D01*
X0210493Y0107621D01*
X0210484Y0107680D01*
X0210471Y0107739D01*
X0210455Y0107798D01*
X0210435Y0107855D01*
X0210412Y0107910D01*
X0210385Y0107965D01*
X0210356Y0108017D01*
X0210323Y0108068D01*
X0210287Y0108117D01*
X0210249Y0108163D01*
X0210207Y0108207D01*
X0210163Y0108249D01*
X0210117Y0108287D01*
X0210068Y0108323D01*
X0210017Y0108356D01*
X0209965Y0108385D01*
X0209910Y0108412D01*
X0209855Y0108435D01*
X0209798Y0108455D01*
X0209739Y0108471D01*
X0209680Y0108484D01*
X0209621Y0108493D01*
X0209560Y0108498D01*
X0209500Y0108500D01*
X0202500Y0108500D01*
X0202440Y0108498D01*
X0202379Y0108493D01*
X0202320Y0108484D01*
X0202261Y0108471D01*
X0202202Y0108455D01*
X0202145Y0108435D01*
X0202090Y0108412D01*
X0202035Y0108385D01*
X0201983Y0108356D01*
X0201932Y0108323D01*
X0201883Y0108287D01*
X0201837Y0108249D01*
X0201793Y0108207D01*
X0201751Y0108163D01*
X0201713Y0108117D01*
X0201677Y0108068D01*
X0201644Y0108017D01*
X0201615Y0107965D01*
X0201588Y0107910D01*
X0201565Y0107855D01*
X0201545Y0107798D01*
X0201529Y0107739D01*
X0201516Y0107680D01*
X0201507Y0107621D01*
X0201502Y0107560D01*
X0201500Y0107500D01*
X0201500Y0106000D01*
X0202000Y0105500D01*
X0202000Y0086500D01*
X0201500Y0086000D01*
X0201500Y0084500D01*
X0201502Y0084440D01*
X0201507Y0084379D01*
X0201516Y0084320D01*
X0201529Y0084261D01*
X0201545Y0084202D01*
X0201565Y0084145D01*
X0201588Y0084090D01*
X0201615Y0084035D01*
X0201644Y0083983D01*
X0201677Y0083932D01*
X0201713Y0083883D01*
X0201751Y0083837D01*
X0201793Y0083793D01*
X0201837Y0083751D01*
X0201883Y0083713D01*
X0201932Y0083677D01*
X0201983Y0083644D01*
X0202035Y0083615D01*
X0202090Y0083588D01*
X0202145Y0083565D01*
X0202202Y0083545D01*
X0202261Y0083529D01*
X0202320Y0083516D01*
X0202379Y0083507D01*
X0202440Y0083502D01*
X0202500Y0083500D01*
X0209500Y0083500D01*
X0209560Y0083502D01*
X0209621Y0083507D01*
X0209680Y0083516D01*
X0209739Y0083529D01*
X0209798Y0083545D01*
X0209855Y0083565D01*
X0209910Y0083588D01*
X0209965Y0083615D01*
X0210017Y0083644D01*
X0210068Y0083677D01*
X0210117Y0083713D01*
X0210163Y0083751D01*
X0210207Y0083793D01*
X0210249Y0083837D01*
X0210287Y0083883D01*
X0210323Y0083932D01*
X0210356Y0083983D01*
X0210385Y0084035D01*
X0210412Y0084090D01*
X0210435Y0084145D01*
X0210455Y0084202D01*
X0210471Y0084261D01*
X0210484Y0084320D01*
X0210493Y0084379D01*
X0210498Y0084440D01*
X0210500Y0084500D01*
X0195500Y0084600D02*
X0195500Y0086100D01*
X0195000Y0086600D01*
X0195000Y0105600D01*
X0195500Y0106100D01*
X0195500Y0107600D01*
X0195498Y0107660D01*
X0195493Y0107721D01*
X0195484Y0107780D01*
X0195471Y0107839D01*
X0195455Y0107898D01*
X0195435Y0107955D01*
X0195412Y0108010D01*
X0195385Y0108065D01*
X0195356Y0108117D01*
X0195323Y0108168D01*
X0195287Y0108217D01*
X0195249Y0108263D01*
X0195207Y0108307D01*
X0195163Y0108349D01*
X0195117Y0108387D01*
X0195068Y0108423D01*
X0195017Y0108456D01*
X0194965Y0108485D01*
X0194910Y0108512D01*
X0194855Y0108535D01*
X0194798Y0108555D01*
X0194739Y0108571D01*
X0194680Y0108584D01*
X0194621Y0108593D01*
X0194560Y0108598D01*
X0194500Y0108600D01*
X0187500Y0108600D01*
X0187440Y0108598D01*
X0187379Y0108593D01*
X0187320Y0108584D01*
X0187261Y0108571D01*
X0187202Y0108555D01*
X0187145Y0108535D01*
X0187090Y0108512D01*
X0187035Y0108485D01*
X0186983Y0108456D01*
X0186932Y0108423D01*
X0186883Y0108387D01*
X0186837Y0108349D01*
X0186793Y0108307D01*
X0186751Y0108263D01*
X0186713Y0108217D01*
X0186677Y0108168D01*
X0186644Y0108117D01*
X0186615Y0108065D01*
X0186588Y0108010D01*
X0186565Y0107955D01*
X0186545Y0107898D01*
X0186529Y0107839D01*
X0186516Y0107780D01*
X0186507Y0107721D01*
X0186502Y0107660D01*
X0186500Y0107600D01*
X0186500Y0106100D01*
X0187000Y0105600D01*
X0187000Y0086600D01*
X0186500Y0086100D01*
X0186500Y0084600D01*
X0186502Y0084540D01*
X0186507Y0084479D01*
X0186516Y0084420D01*
X0186529Y0084361D01*
X0186545Y0084302D01*
X0186565Y0084245D01*
X0186588Y0084190D01*
X0186615Y0084135D01*
X0186644Y0084083D01*
X0186677Y0084032D01*
X0186713Y0083983D01*
X0186751Y0083937D01*
X0186793Y0083893D01*
X0186837Y0083851D01*
X0186883Y0083813D01*
X0186932Y0083777D01*
X0186983Y0083744D01*
X0187035Y0083715D01*
X0187090Y0083688D01*
X0187145Y0083665D01*
X0187202Y0083645D01*
X0187261Y0083629D01*
X0187320Y0083616D01*
X0187379Y0083607D01*
X0187440Y0083602D01*
X0187500Y0083600D01*
X0194500Y0083600D01*
X0194560Y0083602D01*
X0194621Y0083607D01*
X0194680Y0083616D01*
X0194739Y0083629D01*
X0194798Y0083645D01*
X0194855Y0083665D01*
X0194910Y0083688D01*
X0194965Y0083715D01*
X0195017Y0083744D01*
X0195068Y0083777D01*
X0195117Y0083813D01*
X0195163Y0083851D01*
X0195207Y0083893D01*
X0195249Y0083937D01*
X0195287Y0083983D01*
X0195323Y0084032D01*
X0195356Y0084083D01*
X0195385Y0084135D01*
X0195412Y0084190D01*
X0195435Y0084245D01*
X0195455Y0084302D01*
X0195471Y0084361D01*
X0195484Y0084420D01*
X0195493Y0084479D01*
X0195498Y0084540D01*
X0195500Y0084600D01*
X0170500Y0084500D02*
X0170500Y0086000D01*
X0170000Y0086500D01*
X0170000Y0105500D01*
X0170500Y0106000D01*
X0170500Y0107500D01*
X0170498Y0107560D01*
X0170493Y0107621D01*
X0170484Y0107680D01*
X0170471Y0107739D01*
X0170455Y0107798D01*
X0170435Y0107855D01*
X0170412Y0107910D01*
X0170385Y0107965D01*
X0170356Y0108017D01*
X0170323Y0108068D01*
X0170287Y0108117D01*
X0170249Y0108163D01*
X0170207Y0108207D01*
X0170163Y0108249D01*
X0170117Y0108287D01*
X0170068Y0108323D01*
X0170017Y0108356D01*
X0169965Y0108385D01*
X0169910Y0108412D01*
X0169855Y0108435D01*
X0169798Y0108455D01*
X0169739Y0108471D01*
X0169680Y0108484D01*
X0169621Y0108493D01*
X0169560Y0108498D01*
X0169500Y0108500D01*
X0162500Y0108500D01*
X0162440Y0108498D01*
X0162379Y0108493D01*
X0162320Y0108484D01*
X0162261Y0108471D01*
X0162202Y0108455D01*
X0162145Y0108435D01*
X0162090Y0108412D01*
X0162035Y0108385D01*
X0161983Y0108356D01*
X0161932Y0108323D01*
X0161883Y0108287D01*
X0161837Y0108249D01*
X0161793Y0108207D01*
X0161751Y0108163D01*
X0161713Y0108117D01*
X0161677Y0108068D01*
X0161644Y0108017D01*
X0161615Y0107965D01*
X0161588Y0107910D01*
X0161565Y0107855D01*
X0161545Y0107798D01*
X0161529Y0107739D01*
X0161516Y0107680D01*
X0161507Y0107621D01*
X0161502Y0107560D01*
X0161500Y0107500D01*
X0161500Y0106000D01*
X0162000Y0105500D01*
X0162000Y0086500D01*
X0161500Y0086000D01*
X0161500Y0084500D01*
X0161502Y0084440D01*
X0161507Y0084379D01*
X0161516Y0084320D01*
X0161529Y0084261D01*
X0161545Y0084202D01*
X0161565Y0084145D01*
X0161588Y0084090D01*
X0161615Y0084035D01*
X0161644Y0083983D01*
X0161677Y0083932D01*
X0161713Y0083883D01*
X0161751Y0083837D01*
X0161793Y0083793D01*
X0161837Y0083751D01*
X0161883Y0083713D01*
X0161932Y0083677D01*
X0161983Y0083644D01*
X0162035Y0083615D01*
X0162090Y0083588D01*
X0162145Y0083565D01*
X0162202Y0083545D01*
X0162261Y0083529D01*
X0162320Y0083516D01*
X0162379Y0083507D01*
X0162440Y0083502D01*
X0162500Y0083500D01*
X0169500Y0083500D01*
X0169560Y0083502D01*
X0169621Y0083507D01*
X0169680Y0083516D01*
X0169739Y0083529D01*
X0169798Y0083545D01*
X0169855Y0083565D01*
X0169910Y0083588D01*
X0169965Y0083615D01*
X0170017Y0083644D01*
X0170068Y0083677D01*
X0170117Y0083713D01*
X0170163Y0083751D01*
X0170207Y0083793D01*
X0170249Y0083837D01*
X0170287Y0083883D01*
X0170323Y0083932D01*
X0170356Y0083983D01*
X0170385Y0084035D01*
X0170412Y0084090D01*
X0170435Y0084145D01*
X0170455Y0084202D01*
X0170471Y0084261D01*
X0170484Y0084320D01*
X0170493Y0084379D01*
X0170498Y0084440D01*
X0170500Y0084500D01*
X0174500Y0064500D02*
X0176000Y0064500D01*
X0176500Y0064000D01*
X0195500Y0064000D01*
X0196000Y0064500D01*
X0197500Y0064500D01*
X0197560Y0064498D01*
X0197621Y0064493D01*
X0197680Y0064484D01*
X0197739Y0064471D01*
X0197798Y0064455D01*
X0197855Y0064435D01*
X0197910Y0064412D01*
X0197965Y0064385D01*
X0198017Y0064356D01*
X0198068Y0064323D01*
X0198117Y0064287D01*
X0198163Y0064249D01*
X0198207Y0064207D01*
X0198249Y0064163D01*
X0198287Y0064117D01*
X0198323Y0064068D01*
X0198356Y0064017D01*
X0198385Y0063965D01*
X0198412Y0063910D01*
X0198435Y0063855D01*
X0198455Y0063798D01*
X0198471Y0063739D01*
X0198484Y0063680D01*
X0198493Y0063621D01*
X0198498Y0063560D01*
X0198500Y0063500D01*
X0198500Y0056500D01*
X0198498Y0056440D01*
X0198493Y0056379D01*
X0198484Y0056320D01*
X0198471Y0056261D01*
X0198455Y0056202D01*
X0198435Y0056145D01*
X0198412Y0056090D01*
X0198385Y0056035D01*
X0198356Y0055983D01*
X0198323Y0055932D01*
X0198287Y0055883D01*
X0198249Y0055837D01*
X0198207Y0055793D01*
X0198163Y0055751D01*
X0198117Y0055713D01*
X0198068Y0055677D01*
X0198017Y0055644D01*
X0197965Y0055615D01*
X0197910Y0055588D01*
X0197855Y0055565D01*
X0197798Y0055545D01*
X0197739Y0055529D01*
X0197680Y0055516D01*
X0197621Y0055507D01*
X0197560Y0055502D01*
X0197500Y0055500D01*
X0196000Y0055500D01*
X0195500Y0056000D01*
X0176500Y0056000D01*
X0176000Y0055500D01*
X0174500Y0055500D01*
X0174440Y0055502D01*
X0174379Y0055507D01*
X0174320Y0055516D01*
X0174261Y0055529D01*
X0174202Y0055545D01*
X0174145Y0055565D01*
X0174090Y0055588D01*
X0174035Y0055615D01*
X0173983Y0055644D01*
X0173932Y0055677D01*
X0173883Y0055713D01*
X0173837Y0055751D01*
X0173793Y0055793D01*
X0173751Y0055837D01*
X0173713Y0055883D01*
X0173677Y0055932D01*
X0173644Y0055983D01*
X0173615Y0056035D01*
X0173588Y0056090D01*
X0173565Y0056145D01*
X0173545Y0056202D01*
X0173529Y0056261D01*
X0173516Y0056320D01*
X0173507Y0056379D01*
X0173502Y0056440D01*
X0173500Y0056500D01*
X0173500Y0063500D01*
X0173502Y0063560D01*
X0173507Y0063621D01*
X0173516Y0063680D01*
X0173529Y0063739D01*
X0173545Y0063798D01*
X0173565Y0063855D01*
X0173588Y0063910D01*
X0173615Y0063965D01*
X0173644Y0064017D01*
X0173677Y0064068D01*
X0173713Y0064117D01*
X0173751Y0064163D01*
X0173793Y0064207D01*
X0173837Y0064249D01*
X0173883Y0064287D01*
X0173932Y0064323D01*
X0173983Y0064356D01*
X0174035Y0064385D01*
X0174090Y0064412D01*
X0174145Y0064435D01*
X0174202Y0064455D01*
X0174261Y0064471D01*
X0174320Y0064484D01*
X0174379Y0064493D01*
X0174440Y0064498D01*
X0174500Y0064500D01*
X0187000Y0040500D02*
X0195000Y0040500D01*
X0195060Y0040498D01*
X0195121Y0040493D01*
X0195180Y0040484D01*
X0195239Y0040471D01*
X0195298Y0040455D01*
X0195355Y0040435D01*
X0195410Y0040412D01*
X0195465Y0040385D01*
X0195517Y0040356D01*
X0195568Y0040323D01*
X0195617Y0040287D01*
X0195663Y0040249D01*
X0195707Y0040207D01*
X0195749Y0040163D01*
X0195787Y0040117D01*
X0195823Y0040068D01*
X0195856Y0040017D01*
X0195885Y0039965D01*
X0195912Y0039910D01*
X0195935Y0039855D01*
X0195955Y0039798D01*
X0195971Y0039739D01*
X0195984Y0039680D01*
X0195993Y0039621D01*
X0195998Y0039560D01*
X0196000Y0039500D01*
X0196000Y0012500D01*
X0195998Y0012440D01*
X0195993Y0012379D01*
X0195984Y0012320D01*
X0195971Y0012261D01*
X0195955Y0012202D01*
X0195935Y0012145D01*
X0195912Y0012090D01*
X0195885Y0012035D01*
X0195856Y0011983D01*
X0195823Y0011932D01*
X0195787Y0011883D01*
X0195749Y0011837D01*
X0195707Y0011793D01*
X0195663Y0011751D01*
X0195617Y0011713D01*
X0195568Y0011677D01*
X0195517Y0011644D01*
X0195465Y0011615D01*
X0195410Y0011588D01*
X0195355Y0011565D01*
X0195298Y0011545D01*
X0195239Y0011529D01*
X0195180Y0011516D01*
X0195121Y0011507D01*
X0195060Y0011502D01*
X0195000Y0011500D01*
X0187000Y0011500D01*
X0186940Y0011502D01*
X0186879Y0011507D01*
X0186820Y0011516D01*
X0186761Y0011529D01*
X0186702Y0011545D01*
X0186645Y0011565D01*
X0186590Y0011588D01*
X0186535Y0011615D01*
X0186483Y0011644D01*
X0186432Y0011677D01*
X0186383Y0011713D01*
X0186337Y0011751D01*
X0186293Y0011793D01*
X0186251Y0011837D01*
X0186213Y0011883D01*
X0186177Y0011932D01*
X0186144Y0011983D01*
X0186115Y0012035D01*
X0186088Y0012090D01*
X0186065Y0012145D01*
X0186045Y0012202D01*
X0186029Y0012261D01*
X0186016Y0012320D01*
X0186007Y0012379D01*
X0186002Y0012440D01*
X0186000Y0012500D01*
X0186000Y0039500D01*
X0186002Y0039560D01*
X0186007Y0039621D01*
X0186016Y0039680D01*
X0186029Y0039739D01*
X0186045Y0039798D01*
X0186065Y0039855D01*
X0186088Y0039910D01*
X0186115Y0039965D01*
X0186144Y0040017D01*
X0186177Y0040068D01*
X0186213Y0040117D01*
X0186251Y0040163D01*
X0186293Y0040207D01*
X0186337Y0040249D01*
X0186383Y0040287D01*
X0186432Y0040323D01*
X0186483Y0040356D01*
X0186535Y0040385D01*
X0186590Y0040412D01*
X0186645Y0040435D01*
X0186702Y0040455D01*
X0186761Y0040471D01*
X0186820Y0040484D01*
X0186879Y0040493D01*
X0186940Y0040498D01*
X0187000Y0040500D01*
X0191000Y0032000D02*
X0191000Y0027200D01*
X0191000Y0024700D02*
X0191000Y0020000D01*
X0088500Y0045500D02*
X0081000Y0045500D01*
X0073500Y0045500D01*
X0073500Y0048000D01*
X0088500Y0048000D01*
X0088500Y0045500D01*
X0081000Y0045500D02*
X0081000Y0041000D01*
X0046000Y0049000D02*
X0046011Y0049859D01*
X0046042Y0050717D01*
X0046095Y0051575D01*
X0046169Y0052431D01*
X0046263Y0053284D01*
X0046379Y0054136D01*
X0046515Y0054984D01*
X0046673Y0055828D01*
X0046850Y0056669D01*
X0047049Y0057504D01*
X0047268Y0058335D01*
X0047507Y0059160D01*
X0047767Y0059979D01*
X0048046Y0060791D01*
X0048345Y0061596D01*
X0048664Y0062394D01*
X0049003Y0063183D01*
X0049360Y0063964D01*
X0049737Y0064736D01*
X0050133Y0065499D01*
X0050547Y0066251D01*
X0050979Y0066994D01*
X0051430Y0067725D01*
X0051899Y0068445D01*
X0052385Y0069153D01*
X0052888Y0069849D01*
X0053408Y0070533D01*
X0053945Y0071204D01*
X0054498Y0071861D01*
X0055067Y0072505D01*
X0055651Y0073134D01*
X0056251Y0073749D01*
X0056866Y0074349D01*
X0057495Y0074933D01*
X0058139Y0075502D01*
X0058796Y0076055D01*
X0059467Y0076592D01*
X0060151Y0077112D01*
X0060847Y0077615D01*
X0061555Y0078101D01*
X0062275Y0078570D01*
X0063006Y0079021D01*
X0063749Y0079453D01*
X0064501Y0079867D01*
X0065264Y0080263D01*
X0066036Y0080640D01*
X0066817Y0080997D01*
X0067606Y0081336D01*
X0068404Y0081655D01*
X0069209Y0081954D01*
X0070021Y0082233D01*
X0070840Y0082493D01*
X0071665Y0082732D01*
X0072496Y0082951D01*
X0073331Y0083150D01*
X0074172Y0083327D01*
X0075016Y0083485D01*
X0075864Y0083621D01*
X0076716Y0083737D01*
X0077569Y0083831D01*
X0078425Y0083905D01*
X0079283Y0083958D01*
X0080141Y0083989D01*
X0081000Y0084000D01*
X0081859Y0083989D01*
X0082717Y0083958D01*
X0083575Y0083905D01*
X0084431Y0083831D01*
X0085284Y0083737D01*
X0086136Y0083621D01*
X0086984Y0083485D01*
X0087828Y0083327D01*
X0088669Y0083150D01*
X0089504Y0082951D01*
X0090335Y0082732D01*
X0091160Y0082493D01*
X0091979Y0082233D01*
X0092791Y0081954D01*
X0093596Y0081655D01*
X0094394Y0081336D01*
X0095183Y0080997D01*
X0095964Y0080640D01*
X0096736Y0080263D01*
X0097499Y0079867D01*
X0098251Y0079453D01*
X0098994Y0079021D01*
X0099725Y0078570D01*
X0100445Y0078101D01*
X0101153Y0077615D01*
X0101849Y0077112D01*
X0102533Y0076592D01*
X0103204Y0076055D01*
X0103861Y0075502D01*
X0104505Y0074933D01*
X0105134Y0074349D01*
X0105749Y0073749D01*
X0106349Y0073134D01*
X0106933Y0072505D01*
X0107502Y0071861D01*
X0108055Y0071204D01*
X0108592Y0070533D01*
X0109112Y0069849D01*
X0109615Y0069153D01*
X0110101Y0068445D01*
X0110570Y0067725D01*
X0111021Y0066994D01*
X0111453Y0066251D01*
X0111867Y0065499D01*
X0112263Y0064736D01*
X0112640Y0063964D01*
X0112997Y0063183D01*
X0113336Y0062394D01*
X0113655Y0061596D01*
X0113954Y0060791D01*
X0114233Y0059979D01*
X0114493Y0059160D01*
X0114732Y0058335D01*
X0114951Y0057504D01*
X0115150Y0056669D01*
X0115327Y0055828D01*
X0115485Y0054984D01*
X0115621Y0054136D01*
X0115737Y0053284D01*
X0115831Y0052431D01*
X0115905Y0051575D01*
X0115958Y0050717D01*
X0115989Y0049859D01*
X0116000Y0049000D01*
X0115989Y0048141D01*
X0115958Y0047283D01*
X0115905Y0046425D01*
X0115831Y0045569D01*
X0115737Y0044716D01*
X0115621Y0043864D01*
X0115485Y0043016D01*
X0115327Y0042172D01*
X0115150Y0041331D01*
X0114951Y0040496D01*
X0114732Y0039665D01*
X0114493Y0038840D01*
X0114233Y0038021D01*
X0113954Y0037209D01*
X0113655Y0036404D01*
X0113336Y0035606D01*
X0112997Y0034817D01*
X0112640Y0034036D01*
X0112263Y0033264D01*
X0111867Y0032501D01*
X0111453Y0031749D01*
X0111021Y0031006D01*
X0110570Y0030275D01*
X0110101Y0029555D01*
X0109615Y0028847D01*
X0109112Y0028151D01*
X0108592Y0027467D01*
X0108055Y0026796D01*
X0107502Y0026139D01*
X0106933Y0025495D01*
X0106349Y0024866D01*
X0105749Y0024251D01*
X0105134Y0023651D01*
X0104505Y0023067D01*
X0103861Y0022498D01*
X0103204Y0021945D01*
X0102533Y0021408D01*
X0101849Y0020888D01*
X0101153Y0020385D01*
X0100445Y0019899D01*
X0099725Y0019430D01*
X0098994Y0018979D01*
X0098251Y0018547D01*
X0097499Y0018133D01*
X0096736Y0017737D01*
X0095964Y0017360D01*
X0095183Y0017003D01*
X0094394Y0016664D01*
X0093596Y0016345D01*
X0092791Y0016046D01*
X0091979Y0015767D01*
X0091160Y0015507D01*
X0090335Y0015268D01*
X0089504Y0015049D01*
X0088669Y0014850D01*
X0087828Y0014673D01*
X0086984Y0014515D01*
X0086136Y0014379D01*
X0085284Y0014263D01*
X0084431Y0014169D01*
X0083575Y0014095D01*
X0082717Y0014042D01*
X0081859Y0014011D01*
X0081000Y0014000D01*
X0080141Y0014011D01*
X0079283Y0014042D01*
X0078425Y0014095D01*
X0077569Y0014169D01*
X0076716Y0014263D01*
X0075864Y0014379D01*
X0075016Y0014515D01*
X0074172Y0014673D01*
X0073331Y0014850D01*
X0072496Y0015049D01*
X0071665Y0015268D01*
X0070840Y0015507D01*
X0070021Y0015767D01*
X0069209Y0016046D01*
X0068404Y0016345D01*
X0067606Y0016664D01*
X0066817Y0017003D01*
X0066036Y0017360D01*
X0065264Y0017737D01*
X0064501Y0018133D01*
X0063749Y0018547D01*
X0063006Y0018979D01*
X0062275Y0019430D01*
X0061555Y0019899D01*
X0060847Y0020385D01*
X0060151Y0020888D01*
X0059467Y0021408D01*
X0058796Y0021945D01*
X0058139Y0022498D01*
X0057495Y0023067D01*
X0056866Y0023651D01*
X0056251Y0024251D01*
X0055651Y0024866D01*
X0055067Y0025495D01*
X0054498Y0026139D01*
X0053945Y0026796D01*
X0053408Y0027467D01*
X0052888Y0028151D01*
X0052385Y0028847D01*
X0051899Y0029555D01*
X0051430Y0030275D01*
X0050979Y0031006D01*
X0050547Y0031749D01*
X0050133Y0032501D01*
X0049737Y0033264D01*
X0049360Y0034036D01*
X0049003Y0034817D01*
X0048664Y0035606D01*
X0048345Y0036404D01*
X0048046Y0037209D01*
X0047767Y0038021D01*
X0047507Y0038840D01*
X0047268Y0039665D01*
X0047049Y0040496D01*
X0046850Y0041331D01*
X0046673Y0042172D01*
X0046515Y0043016D01*
X0046379Y0043864D01*
X0046263Y0044716D01*
X0046169Y0045569D01*
X0046095Y0046425D01*
X0046042Y0047283D01*
X0046011Y0048141D01*
X0046000Y0049000D01*
X0081000Y0051500D02*
X0081000Y0057000D01*
X0081000Y0025500D02*
X0081000Y0019500D01*
X0084000Y0022500D02*
X0078000Y0022500D01*
X0147500Y0123500D02*
X0154500Y0123500D01*
X0154560Y0123502D01*
X0154621Y0123507D01*
X0154680Y0123516D01*
X0154739Y0123529D01*
X0154798Y0123545D01*
X0154855Y0123565D01*
X0154910Y0123588D01*
X0154965Y0123615D01*
X0155017Y0123644D01*
X0155068Y0123677D01*
X0155117Y0123713D01*
X0155163Y0123751D01*
X0155207Y0123793D01*
X0155249Y0123837D01*
X0155287Y0123883D01*
X0155323Y0123932D01*
X0155356Y0123983D01*
X0155385Y0124035D01*
X0155412Y0124090D01*
X0155435Y0124145D01*
X0155455Y0124202D01*
X0155471Y0124261D01*
X0155484Y0124320D01*
X0155493Y0124379D01*
X0155498Y0124440D01*
X0155500Y0124500D01*
X0155500Y0126000D01*
X0155000Y0126500D01*
X0155000Y0145500D01*
X0155500Y0146000D01*
X0155500Y0147500D01*
X0155498Y0147560D01*
X0155493Y0147621D01*
X0155484Y0147680D01*
X0155471Y0147739D01*
X0155455Y0147798D01*
X0155435Y0147855D01*
X0155412Y0147910D01*
X0155385Y0147965D01*
X0155356Y0148017D01*
X0155323Y0148068D01*
X0155287Y0148117D01*
X0155249Y0148163D01*
X0155207Y0148207D01*
X0155163Y0148249D01*
X0155117Y0148287D01*
X0155068Y0148323D01*
X0155017Y0148356D01*
X0154965Y0148385D01*
X0154910Y0148412D01*
X0154855Y0148435D01*
X0154798Y0148455D01*
X0154739Y0148471D01*
X0154680Y0148484D01*
X0154621Y0148493D01*
X0154560Y0148498D01*
X0154500Y0148500D01*
X0147500Y0148500D01*
X0147440Y0148498D01*
X0147379Y0148493D01*
X0147320Y0148484D01*
X0147261Y0148471D01*
X0147202Y0148455D01*
X0147145Y0148435D01*
X0147090Y0148412D01*
X0147035Y0148385D01*
X0146983Y0148356D01*
X0146932Y0148323D01*
X0146883Y0148287D01*
X0146837Y0148249D01*
X0146793Y0148207D01*
X0146751Y0148163D01*
X0146713Y0148117D01*
X0146677Y0148068D01*
X0146644Y0148017D01*
X0146615Y0147965D01*
X0146588Y0147910D01*
X0146565Y0147855D01*
X0146545Y0147798D01*
X0146529Y0147739D01*
X0146516Y0147680D01*
X0146507Y0147621D01*
X0146502Y0147560D01*
X0146500Y0147500D01*
X0146500Y0146000D01*
X0147000Y0145500D01*
X0147000Y0126500D01*
X0146500Y0126000D01*
X0146500Y0124500D01*
X0146502Y0124440D01*
X0146507Y0124379D01*
X0146516Y0124320D01*
X0146529Y0124261D01*
X0146545Y0124202D01*
X0146565Y0124145D01*
X0146588Y0124090D01*
X0146615Y0124035D01*
X0146644Y0123983D01*
X0146677Y0123932D01*
X0146713Y0123883D01*
X0146751Y0123837D01*
X0146793Y0123793D01*
X0146837Y0123751D01*
X0146883Y0123713D01*
X0146932Y0123677D01*
X0146983Y0123644D01*
X0147035Y0123615D01*
X0147090Y0123588D01*
X0147145Y0123565D01*
X0147202Y0123545D01*
X0147261Y0123529D01*
X0147320Y0123516D01*
X0147379Y0123507D01*
X0147440Y0123502D01*
X0147500Y0123500D01*
X0128000Y0156500D02*
X0120000Y0156500D01*
X0119940Y0156502D01*
X0119879Y0156507D01*
X0119820Y0156516D01*
X0119761Y0156529D01*
X0119702Y0156545D01*
X0119645Y0156565D01*
X0119590Y0156588D01*
X0119535Y0156615D01*
X0119483Y0156644D01*
X0119432Y0156677D01*
X0119383Y0156713D01*
X0119337Y0156751D01*
X0119293Y0156793D01*
X0119251Y0156837D01*
X0119213Y0156883D01*
X0119177Y0156932D01*
X0119144Y0156983D01*
X0119115Y0157035D01*
X0119088Y0157090D01*
X0119065Y0157145D01*
X0119045Y0157202D01*
X0119029Y0157261D01*
X0119016Y0157320D01*
X0119007Y0157379D01*
X0119002Y0157440D01*
X0119000Y0157500D01*
X0119000Y0184500D01*
X0119002Y0184560D01*
X0119007Y0184621D01*
X0119016Y0184680D01*
X0119029Y0184739D01*
X0119045Y0184798D01*
X0119065Y0184855D01*
X0119088Y0184910D01*
X0119115Y0184965D01*
X0119144Y0185017D01*
X0119177Y0185068D01*
X0119213Y0185117D01*
X0119251Y0185163D01*
X0119293Y0185207D01*
X0119337Y0185249D01*
X0119383Y0185287D01*
X0119432Y0185323D01*
X0119483Y0185356D01*
X0119535Y0185385D01*
X0119590Y0185412D01*
X0119645Y0185435D01*
X0119702Y0185455D01*
X0119761Y0185471D01*
X0119820Y0185484D01*
X0119879Y0185493D01*
X0119940Y0185498D01*
X0120000Y0185500D01*
X0128000Y0185500D01*
X0128060Y0185498D01*
X0128121Y0185493D01*
X0128180Y0185484D01*
X0128239Y0185471D01*
X0128298Y0185455D01*
X0128355Y0185435D01*
X0128410Y0185412D01*
X0128465Y0185385D01*
X0128517Y0185356D01*
X0128568Y0185323D01*
X0128617Y0185287D01*
X0128663Y0185249D01*
X0128707Y0185207D01*
X0128749Y0185163D01*
X0128787Y0185117D01*
X0128823Y0185068D01*
X0128856Y0185017D01*
X0128885Y0184965D01*
X0128912Y0184910D01*
X0128935Y0184855D01*
X0128955Y0184798D01*
X0128971Y0184739D01*
X0128984Y0184680D01*
X0128993Y0184621D01*
X0128998Y0184560D01*
X0129000Y0184500D01*
X0129000Y0157500D01*
X0128998Y0157440D01*
X0128993Y0157379D01*
X0128984Y0157320D01*
X0128971Y0157261D01*
X0128955Y0157202D01*
X0128935Y0157145D01*
X0128912Y0157090D01*
X0128885Y0157035D01*
X0128856Y0156983D01*
X0128823Y0156932D01*
X0128787Y0156883D01*
X0128749Y0156837D01*
X0128707Y0156793D01*
X0128663Y0156751D01*
X0128617Y0156713D01*
X0128568Y0156677D01*
X0128517Y0156644D01*
X0128465Y0156615D01*
X0128410Y0156588D01*
X0128355Y0156565D01*
X0128298Y0156545D01*
X0128239Y0156529D01*
X0128180Y0156516D01*
X0128121Y0156507D01*
X0128060Y0156502D01*
X0128000Y0156500D01*
X0124000Y0165000D02*
X0124000Y0169800D01*
X0124000Y0172300D02*
X0124000Y0177000D01*
X0146500Y0168000D02*
X0149500Y0168000D01*
X0148000Y0169500D02*
X0148000Y0166500D01*
X0153000Y0178500D02*
X0153000Y0179500D01*
X0148500Y0179500D01*
X0148500Y0182000D01*
X0157500Y0182000D01*
X0157500Y0179500D01*
X0153000Y0179500D01*
X0133000Y0183000D02*
X0133006Y0183491D01*
X0133024Y0183981D01*
X0133054Y0184471D01*
X0133096Y0184960D01*
X0133150Y0185448D01*
X0133216Y0185935D01*
X0133294Y0186419D01*
X0133384Y0186902D01*
X0133486Y0187382D01*
X0133599Y0187860D01*
X0133724Y0188334D01*
X0133861Y0188806D01*
X0134009Y0189274D01*
X0134169Y0189738D01*
X0134340Y0190198D01*
X0134522Y0190654D01*
X0134716Y0191105D01*
X0134920Y0191551D01*
X0135136Y0191992D01*
X0135362Y0192428D01*
X0135598Y0192858D01*
X0135845Y0193282D01*
X0136103Y0193700D01*
X0136371Y0194111D01*
X0136648Y0194516D01*
X0136936Y0194914D01*
X0137233Y0195305D01*
X0137540Y0195688D01*
X0137856Y0196063D01*
X0138181Y0196431D01*
X0138515Y0196791D01*
X0138858Y0197142D01*
X0139209Y0197485D01*
X0139569Y0197819D01*
X0139937Y0198144D01*
X0140312Y0198460D01*
X0140695Y0198767D01*
X0141086Y0199064D01*
X0141484Y0199352D01*
X0141889Y0199629D01*
X0142300Y0199897D01*
X0142718Y0200155D01*
X0143142Y0200402D01*
X0143572Y0200638D01*
X0144008Y0200864D01*
X0144449Y0201080D01*
X0144895Y0201284D01*
X0145346Y0201478D01*
X0145802Y0201660D01*
X0146262Y0201831D01*
X0146726Y0201991D01*
X0147194Y0202139D01*
X0147666Y0202276D01*
X0148140Y0202401D01*
X0148618Y0202514D01*
X0149098Y0202616D01*
X0149581Y0202706D01*
X0150065Y0202784D01*
X0150552Y0202850D01*
X0151040Y0202904D01*
X0151529Y0202946D01*
X0152019Y0202976D01*
X0152509Y0202994D01*
X0153000Y0203000D01*
X0153491Y0202994D01*
X0153981Y0202976D01*
X0154471Y0202946D01*
X0154960Y0202904D01*
X0155448Y0202850D01*
X0155935Y0202784D01*
X0156419Y0202706D01*
X0156902Y0202616D01*
X0157382Y0202514D01*
X0157860Y0202401D01*
X0158334Y0202276D01*
X0158806Y0202139D01*
X0159274Y0201991D01*
X0159738Y0201831D01*
X0160198Y0201660D01*
X0160654Y0201478D01*
X0161105Y0201284D01*
X0161551Y0201080D01*
X0161992Y0200864D01*
X0162428Y0200638D01*
X0162858Y0200402D01*
X0163282Y0200155D01*
X0163700Y0199897D01*
X0164111Y0199629D01*
X0164516Y0199352D01*
X0164914Y0199064D01*
X0165305Y0198767D01*
X0165688Y0198460D01*
X0166063Y0198144D01*
X0166431Y0197819D01*
X0166791Y0197485D01*
X0167142Y0197142D01*
X0167485Y0196791D01*
X0167819Y0196431D01*
X0168144Y0196063D01*
X0168460Y0195688D01*
X0168767Y0195305D01*
X0169064Y0194914D01*
X0169352Y0194516D01*
X0169629Y0194111D01*
X0169897Y0193700D01*
X0170155Y0193282D01*
X0170402Y0192858D01*
X0170638Y0192428D01*
X0170864Y0191992D01*
X0171080Y0191551D01*
X0171284Y0191105D01*
X0171478Y0190654D01*
X0171660Y0190198D01*
X0171831Y0189738D01*
X0171991Y0189274D01*
X0172139Y0188806D01*
X0172276Y0188334D01*
X0172401Y0187860D01*
X0172514Y0187382D01*
X0172616Y0186902D01*
X0172706Y0186419D01*
X0172784Y0185935D01*
X0172850Y0185448D01*
X0172904Y0184960D01*
X0172946Y0184471D01*
X0172976Y0183981D01*
X0172994Y0183491D01*
X0173000Y0183000D01*
X0172994Y0182509D01*
X0172976Y0182019D01*
X0172946Y0181529D01*
X0172904Y0181040D01*
X0172850Y0180552D01*
X0172784Y0180065D01*
X0172706Y0179581D01*
X0172616Y0179098D01*
X0172514Y0178618D01*
X0172401Y0178140D01*
X0172276Y0177666D01*
X0172139Y0177194D01*
X0171991Y0176726D01*
X0171831Y0176262D01*
X0171660Y0175802D01*
X0171478Y0175346D01*
X0171284Y0174895D01*
X0171080Y0174449D01*
X0170864Y0174008D01*
X0170638Y0173572D01*
X0170402Y0173142D01*
X0170155Y0172718D01*
X0169897Y0172300D01*
X0169629Y0171889D01*
X0169352Y0171484D01*
X0169064Y0171086D01*
X0168767Y0170695D01*
X0168460Y0170312D01*
X0168144Y0169937D01*
X0167819Y0169569D01*
X0167485Y0169209D01*
X0167142Y0168858D01*
X0166791Y0168515D01*
X0166431Y0168181D01*
X0166063Y0167856D01*
X0165688Y0167540D01*
X0165305Y0167233D01*
X0164914Y0166936D01*
X0164516Y0166648D01*
X0164111Y0166371D01*
X0163700Y0166103D01*
X0163282Y0165845D01*
X0162858Y0165598D01*
X0162428Y0165362D01*
X0161992Y0165136D01*
X0161551Y0164920D01*
X0161105Y0164716D01*
X0160654Y0164522D01*
X0160198Y0164340D01*
X0159738Y0164169D01*
X0159274Y0164009D01*
X0158806Y0163861D01*
X0158334Y0163724D01*
X0157860Y0163599D01*
X0157382Y0163486D01*
X0156902Y0163384D01*
X0156419Y0163294D01*
X0155935Y0163216D01*
X0155448Y0163150D01*
X0154960Y0163096D01*
X0154471Y0163054D01*
X0153981Y0163024D01*
X0153491Y0163006D01*
X0153000Y0163000D01*
X0152509Y0163006D01*
X0152019Y0163024D01*
X0151529Y0163054D01*
X0151040Y0163096D01*
X0150552Y0163150D01*
X0150065Y0163216D01*
X0149581Y0163294D01*
X0149098Y0163384D01*
X0148618Y0163486D01*
X0148140Y0163599D01*
X0147666Y0163724D01*
X0147194Y0163861D01*
X0146726Y0164009D01*
X0146262Y0164169D01*
X0145802Y0164340D01*
X0145346Y0164522D01*
X0144895Y0164716D01*
X0144449Y0164920D01*
X0144008Y0165136D01*
X0143572Y0165362D01*
X0143142Y0165598D01*
X0142718Y0165845D01*
X0142300Y0166103D01*
X0141889Y0166371D01*
X0141484Y0166648D01*
X0141086Y0166936D01*
X0140695Y0167233D01*
X0140312Y0167540D01*
X0139937Y0167856D01*
X0139569Y0168181D01*
X0139209Y0168515D01*
X0138858Y0168858D01*
X0138515Y0169209D01*
X0138181Y0169569D01*
X0137856Y0169937D01*
X0137540Y0170312D01*
X0137233Y0170695D01*
X0136936Y0171086D01*
X0136648Y0171484D01*
X0136371Y0171889D01*
X0136103Y0172300D01*
X0135845Y0172718D01*
X0135598Y0173142D01*
X0135362Y0173572D01*
X0135136Y0174008D01*
X0134920Y0174449D01*
X0134716Y0174895D01*
X0134522Y0175346D01*
X0134340Y0175802D01*
X0134169Y0176262D01*
X0134009Y0176726D01*
X0133861Y0177194D01*
X0133724Y0177666D01*
X0133599Y0178140D01*
X0133486Y0178618D01*
X0133384Y0179098D01*
X0133294Y0179581D01*
X0133216Y0180065D01*
X0133150Y0180552D01*
X0133096Y0181040D01*
X0133054Y0181529D01*
X0133024Y0182019D01*
X0133006Y0182509D01*
X0133000Y0183000D01*
X0153000Y0185500D02*
X0153000Y0187500D01*
X0192500Y0194500D02*
X0192500Y0201500D01*
X0192502Y0201560D01*
X0192507Y0201621D01*
X0192516Y0201680D01*
X0192529Y0201739D01*
X0192545Y0201798D01*
X0192565Y0201855D01*
X0192588Y0201910D01*
X0192615Y0201965D01*
X0192644Y0202017D01*
X0192677Y0202068D01*
X0192713Y0202117D01*
X0192751Y0202163D01*
X0192793Y0202207D01*
X0192837Y0202249D01*
X0192883Y0202287D01*
X0192932Y0202323D01*
X0192983Y0202356D01*
X0193035Y0202385D01*
X0193090Y0202412D01*
X0193145Y0202435D01*
X0193202Y0202455D01*
X0193261Y0202471D01*
X0193320Y0202484D01*
X0193379Y0202493D01*
X0193440Y0202498D01*
X0193500Y0202500D01*
X0195000Y0202500D01*
X0195500Y0202000D01*
X0214500Y0202000D01*
X0215000Y0202500D01*
X0216500Y0202500D01*
X0216560Y0202498D01*
X0216621Y0202493D01*
X0216680Y0202484D01*
X0216739Y0202471D01*
X0216798Y0202455D01*
X0216855Y0202435D01*
X0216910Y0202412D01*
X0216965Y0202385D01*
X0217017Y0202356D01*
X0217068Y0202323D01*
X0217117Y0202287D01*
X0217163Y0202249D01*
X0217207Y0202207D01*
X0217249Y0202163D01*
X0217287Y0202117D01*
X0217323Y0202068D01*
X0217356Y0202017D01*
X0217385Y0201965D01*
X0217412Y0201910D01*
X0217435Y0201855D01*
X0217455Y0201798D01*
X0217471Y0201739D01*
X0217484Y0201680D01*
X0217493Y0201621D01*
X0217498Y0201560D01*
X0217500Y0201500D01*
X0217500Y0194500D01*
X0217498Y0194440D01*
X0217493Y0194379D01*
X0217484Y0194320D01*
X0217471Y0194261D01*
X0217455Y0194202D01*
X0217435Y0194145D01*
X0217412Y0194090D01*
X0217385Y0194035D01*
X0217356Y0193983D01*
X0217323Y0193932D01*
X0217287Y0193883D01*
X0217249Y0193837D01*
X0217207Y0193793D01*
X0217163Y0193751D01*
X0217117Y0193713D01*
X0217068Y0193677D01*
X0217017Y0193644D01*
X0216965Y0193615D01*
X0216910Y0193588D01*
X0216855Y0193565D01*
X0216798Y0193545D01*
X0216739Y0193529D01*
X0216680Y0193516D01*
X0216621Y0193507D01*
X0216560Y0193502D01*
X0216500Y0193500D01*
X0215000Y0193500D01*
X0214500Y0194000D01*
X0195500Y0194000D01*
X0195000Y0193500D01*
X0193500Y0193500D01*
X0193440Y0193502D01*
X0193379Y0193507D01*
X0193320Y0193516D01*
X0193261Y0193529D01*
X0193202Y0193545D01*
X0193145Y0193565D01*
X0193090Y0193588D01*
X0193035Y0193615D01*
X0192983Y0193644D01*
X0192932Y0193677D01*
X0192883Y0193713D01*
X0192837Y0193751D01*
X0192793Y0193793D01*
X0192751Y0193837D01*
X0192713Y0193883D01*
X0192677Y0193932D01*
X0192644Y0193983D01*
X0192615Y0194035D01*
X0192588Y0194090D01*
X0192565Y0194145D01*
X0192545Y0194202D01*
X0192529Y0194261D01*
X0192516Y0194320D01*
X0192507Y0194379D01*
X0192502Y0194440D01*
X0192500Y0194500D01*
X0246500Y0172400D02*
X0246500Y0170900D01*
X0247000Y0170400D01*
X0247000Y0151400D01*
X0246500Y0150900D01*
X0246500Y0149400D01*
X0246502Y0149340D01*
X0246507Y0149279D01*
X0246516Y0149220D01*
X0246529Y0149161D01*
X0246545Y0149102D01*
X0246565Y0149045D01*
X0246588Y0148990D01*
X0246615Y0148935D01*
X0246644Y0148883D01*
X0246677Y0148832D01*
X0246713Y0148783D01*
X0246751Y0148737D01*
X0246793Y0148693D01*
X0246837Y0148651D01*
X0246883Y0148613D01*
X0246932Y0148577D01*
X0246983Y0148544D01*
X0247035Y0148515D01*
X0247090Y0148488D01*
X0247145Y0148465D01*
X0247202Y0148445D01*
X0247261Y0148429D01*
X0247320Y0148416D01*
X0247379Y0148407D01*
X0247440Y0148402D01*
X0247500Y0148400D01*
X0254500Y0148400D01*
X0254560Y0148402D01*
X0254621Y0148407D01*
X0254680Y0148416D01*
X0254739Y0148429D01*
X0254798Y0148445D01*
X0254855Y0148465D01*
X0254910Y0148488D01*
X0254965Y0148515D01*
X0255017Y0148544D01*
X0255068Y0148577D01*
X0255117Y0148613D01*
X0255163Y0148651D01*
X0255207Y0148693D01*
X0255249Y0148737D01*
X0255287Y0148783D01*
X0255323Y0148832D01*
X0255356Y0148883D01*
X0255385Y0148935D01*
X0255412Y0148990D01*
X0255435Y0149045D01*
X0255455Y0149102D01*
X0255471Y0149161D01*
X0255484Y0149220D01*
X0255493Y0149279D01*
X0255498Y0149340D01*
X0255500Y0149400D01*
X0255500Y0150900D01*
X0255000Y0151400D01*
X0255000Y0170400D01*
X0255500Y0170900D01*
X0255500Y0172400D01*
X0255498Y0172460D01*
X0255493Y0172521D01*
X0255484Y0172580D01*
X0255471Y0172639D01*
X0255455Y0172698D01*
X0255435Y0172755D01*
X0255412Y0172810D01*
X0255385Y0172865D01*
X0255356Y0172917D01*
X0255323Y0172968D01*
X0255287Y0173017D01*
X0255249Y0173063D01*
X0255207Y0173107D01*
X0255163Y0173149D01*
X0255117Y0173187D01*
X0255068Y0173223D01*
X0255017Y0173256D01*
X0254965Y0173285D01*
X0254910Y0173312D01*
X0254855Y0173335D01*
X0254798Y0173355D01*
X0254739Y0173371D01*
X0254680Y0173384D01*
X0254621Y0173393D01*
X0254560Y0173398D01*
X0254500Y0173400D01*
X0247500Y0173400D01*
X0247440Y0173398D01*
X0247379Y0173393D01*
X0247320Y0173384D01*
X0247261Y0173371D01*
X0247202Y0173355D01*
X0247145Y0173335D01*
X0247090Y0173312D01*
X0247035Y0173285D01*
X0246983Y0173256D01*
X0246932Y0173223D01*
X0246883Y0173187D01*
X0246837Y0173149D01*
X0246793Y0173107D01*
X0246751Y0173063D01*
X0246713Y0173017D01*
X0246677Y0172968D01*
X0246644Y0172917D01*
X0246615Y0172865D01*
X0246588Y0172810D01*
X0246565Y0172755D01*
X0246545Y0172698D01*
X0246529Y0172639D01*
X0246516Y0172580D01*
X0246507Y0172521D01*
X0246502Y0172460D01*
X0246500Y0172400D01*
X0088500Y0189500D02*
X0081000Y0189500D01*
X0073500Y0189500D01*
X0073500Y0192000D01*
X0088500Y0192000D01*
X0088500Y0189500D01*
X0081000Y0189500D02*
X0081000Y0185000D01*
X0046000Y0193000D02*
X0046011Y0193859D01*
X0046042Y0194717D01*
X0046095Y0195575D01*
X0046169Y0196431D01*
X0046263Y0197284D01*
X0046379Y0198136D01*
X0046515Y0198984D01*
X0046673Y0199828D01*
X0046850Y0200669D01*
X0047049Y0201504D01*
X0047268Y0202335D01*
X0047507Y0203160D01*
X0047767Y0203979D01*
X0048046Y0204791D01*
X0048345Y0205596D01*
X0048664Y0206394D01*
X0049003Y0207183D01*
X0049360Y0207964D01*
X0049737Y0208736D01*
X0050133Y0209499D01*
X0050547Y0210251D01*
X0050979Y0210994D01*
X0051430Y0211725D01*
X0051899Y0212445D01*
X0052385Y0213153D01*
X0052888Y0213849D01*
X0053408Y0214533D01*
X0053945Y0215204D01*
X0054498Y0215861D01*
X0055067Y0216505D01*
X0055651Y0217134D01*
X0056251Y0217749D01*
X0056866Y0218349D01*
X0057495Y0218933D01*
X0058139Y0219502D01*
X0058796Y0220055D01*
X0059467Y0220592D01*
X0060151Y0221112D01*
X0060847Y0221615D01*
X0061555Y0222101D01*
X0062275Y0222570D01*
X0063006Y0223021D01*
X0063749Y0223453D01*
X0064501Y0223867D01*
X0065264Y0224263D01*
X0066036Y0224640D01*
X0066817Y0224997D01*
X0067606Y0225336D01*
X0068404Y0225655D01*
X0069209Y0225954D01*
X0070021Y0226233D01*
X0070840Y0226493D01*
X0071665Y0226732D01*
X0072496Y0226951D01*
X0073331Y0227150D01*
X0074172Y0227327D01*
X0075016Y0227485D01*
X0075864Y0227621D01*
X0076716Y0227737D01*
X0077569Y0227831D01*
X0078425Y0227905D01*
X0079283Y0227958D01*
X0080141Y0227989D01*
X0081000Y0228000D01*
X0081859Y0227989D01*
X0082717Y0227958D01*
X0083575Y0227905D01*
X0084431Y0227831D01*
X0085284Y0227737D01*
X0086136Y0227621D01*
X0086984Y0227485D01*
X0087828Y0227327D01*
X0088669Y0227150D01*
X0089504Y0226951D01*
X0090335Y0226732D01*
X0091160Y0226493D01*
X0091979Y0226233D01*
X0092791Y0225954D01*
X0093596Y0225655D01*
X0094394Y0225336D01*
X0095183Y0224997D01*
X0095964Y0224640D01*
X0096736Y0224263D01*
X0097499Y0223867D01*
X0098251Y0223453D01*
X0098994Y0223021D01*
X0099725Y0222570D01*
X0100445Y0222101D01*
X0101153Y0221615D01*
X0101849Y0221112D01*
X0102533Y0220592D01*
X0103204Y0220055D01*
X0103861Y0219502D01*
X0104505Y0218933D01*
X0105134Y0218349D01*
X0105749Y0217749D01*
X0106349Y0217134D01*
X0106933Y0216505D01*
X0107502Y0215861D01*
X0108055Y0215204D01*
X0108592Y0214533D01*
X0109112Y0213849D01*
X0109615Y0213153D01*
X0110101Y0212445D01*
X0110570Y0211725D01*
X0111021Y0210994D01*
X0111453Y0210251D01*
X0111867Y0209499D01*
X0112263Y0208736D01*
X0112640Y0207964D01*
X0112997Y0207183D01*
X0113336Y0206394D01*
X0113655Y0205596D01*
X0113954Y0204791D01*
X0114233Y0203979D01*
X0114493Y0203160D01*
X0114732Y0202335D01*
X0114951Y0201504D01*
X0115150Y0200669D01*
X0115327Y0199828D01*
X0115485Y0198984D01*
X0115621Y0198136D01*
X0115737Y0197284D01*
X0115831Y0196431D01*
X0115905Y0195575D01*
X0115958Y0194717D01*
X0115989Y0193859D01*
X0116000Y0193000D01*
X0115989Y0192141D01*
X0115958Y0191283D01*
X0115905Y0190425D01*
X0115831Y0189569D01*
X0115737Y0188716D01*
X0115621Y0187864D01*
X0115485Y0187016D01*
X0115327Y0186172D01*
X0115150Y0185331D01*
X0114951Y0184496D01*
X0114732Y0183665D01*
X0114493Y0182840D01*
X0114233Y0182021D01*
X0113954Y0181209D01*
X0113655Y0180404D01*
X0113336Y0179606D01*
X0112997Y0178817D01*
X0112640Y0178036D01*
X0112263Y0177264D01*
X0111867Y0176501D01*
X0111453Y0175749D01*
X0111021Y0175006D01*
X0110570Y0174275D01*
X0110101Y0173555D01*
X0109615Y0172847D01*
X0109112Y0172151D01*
X0108592Y0171467D01*
X0108055Y0170796D01*
X0107502Y0170139D01*
X0106933Y0169495D01*
X0106349Y0168866D01*
X0105749Y0168251D01*
X0105134Y0167651D01*
X0104505Y0167067D01*
X0103861Y0166498D01*
X0103204Y0165945D01*
X0102533Y0165408D01*
X0101849Y0164888D01*
X0101153Y0164385D01*
X0100445Y0163899D01*
X0099725Y0163430D01*
X0098994Y0162979D01*
X0098251Y0162547D01*
X0097499Y0162133D01*
X0096736Y0161737D01*
X0095964Y0161360D01*
X0095183Y0161003D01*
X0094394Y0160664D01*
X0093596Y0160345D01*
X0092791Y0160046D01*
X0091979Y0159767D01*
X0091160Y0159507D01*
X0090335Y0159268D01*
X0089504Y0159049D01*
X0088669Y0158850D01*
X0087828Y0158673D01*
X0086984Y0158515D01*
X0086136Y0158379D01*
X0085284Y0158263D01*
X0084431Y0158169D01*
X0083575Y0158095D01*
X0082717Y0158042D01*
X0081859Y0158011D01*
X0081000Y0158000D01*
X0080141Y0158011D01*
X0079283Y0158042D01*
X0078425Y0158095D01*
X0077569Y0158169D01*
X0076716Y0158263D01*
X0075864Y0158379D01*
X0075016Y0158515D01*
X0074172Y0158673D01*
X0073331Y0158850D01*
X0072496Y0159049D01*
X0071665Y0159268D01*
X0070840Y0159507D01*
X0070021Y0159767D01*
X0069209Y0160046D01*
X0068404Y0160345D01*
X0067606Y0160664D01*
X0066817Y0161003D01*
X0066036Y0161360D01*
X0065264Y0161737D01*
X0064501Y0162133D01*
X0063749Y0162547D01*
X0063006Y0162979D01*
X0062275Y0163430D01*
X0061555Y0163899D01*
X0060847Y0164385D01*
X0060151Y0164888D01*
X0059467Y0165408D01*
X0058796Y0165945D01*
X0058139Y0166498D01*
X0057495Y0167067D01*
X0056866Y0167651D01*
X0056251Y0168251D01*
X0055651Y0168866D01*
X0055067Y0169495D01*
X0054498Y0170139D01*
X0053945Y0170796D01*
X0053408Y0171467D01*
X0052888Y0172151D01*
X0052385Y0172847D01*
X0051899Y0173555D01*
X0051430Y0174275D01*
X0050979Y0175006D01*
X0050547Y0175749D01*
X0050133Y0176501D01*
X0049737Y0177264D01*
X0049360Y0178036D01*
X0049003Y0178817D01*
X0048664Y0179606D01*
X0048345Y0180404D01*
X0048046Y0181209D01*
X0047767Y0182021D01*
X0047507Y0182840D01*
X0047268Y0183665D01*
X0047049Y0184496D01*
X0046850Y0185331D01*
X0046673Y0186172D01*
X0046515Y0187016D01*
X0046379Y0187864D01*
X0046263Y0188716D01*
X0046169Y0189569D01*
X0046095Y0190425D01*
X0046042Y0191283D01*
X0046011Y0192141D01*
X0046000Y0193000D01*
X0081000Y0195500D02*
X0081000Y0201000D01*
X0081000Y0169500D02*
X0081000Y0163500D01*
X0084000Y0166500D02*
X0078000Y0166500D01*
D12*
X0081000Y0195250D03*
X0081000Y0051250D03*
D13*
X0059599Y0080850D02*
X0055396Y0080850D01*
X0054345Y0081901D01*
X0054345Y0084003D01*
X0055396Y0085054D01*
X0056446Y0087295D02*
X0054345Y0089397D01*
X0060650Y0089397D01*
X0060650Y0087295D02*
X0060650Y0091499D01*
X0059599Y0085054D02*
X0060650Y0084003D01*
X0060650Y0081901D01*
X0059599Y0080850D01*
X0059599Y0224850D02*
X0055396Y0224850D01*
X0054345Y0225901D01*
X0054345Y0228003D01*
X0055396Y0229054D01*
X0055396Y0231295D02*
X0054345Y0232346D01*
X0054345Y0234448D01*
X0055396Y0235499D01*
X0056446Y0235499D01*
X0060650Y0231295D01*
X0060650Y0235499D01*
X0059599Y0229054D02*
X0060650Y0228003D01*
X0060650Y0225901D01*
X0059599Y0224850D01*
D14*
X0290550Y0046800D03*
D15*
X0272949Y0035003D02*
X0272198Y0035754D01*
X0270697Y0035754D01*
X0269946Y0035003D01*
X0269946Y0034253D01*
X0270697Y0033502D01*
X0272949Y0033502D01*
X0272949Y0032001D02*
X0272949Y0035003D01*
X0272949Y0032001D02*
X0272198Y0031250D01*
X0270697Y0031250D01*
X0269946Y0032001D01*
X0268345Y0032001D02*
X0267594Y0031250D01*
X0266093Y0031250D01*
X0265342Y0032001D01*
X0265342Y0035003D01*
X0266093Y0035754D01*
X0267594Y0035754D01*
X0268345Y0035003D01*
X0202250Y0035146D02*
X0201499Y0035146D01*
X0198497Y0038149D01*
X0197746Y0038149D01*
X0197746Y0035146D01*
X0198497Y0033545D02*
X0197746Y0032794D01*
X0197746Y0031293D01*
X0198497Y0030542D01*
X0201499Y0030542D01*
X0202250Y0031293D01*
X0202250Y0032794D01*
X0201499Y0033545D01*
X0181106Y0066250D02*
X0179605Y0066250D01*
X0178854Y0067001D01*
X0178854Y0068502D01*
X0181106Y0068502D01*
X0181856Y0067751D01*
X0181856Y0067001D01*
X0181106Y0066250D01*
X0178854Y0068502D02*
X0180355Y0070003D01*
X0181856Y0070754D01*
X0177253Y0070003D02*
X0177253Y0068502D01*
X0176502Y0067751D01*
X0174250Y0067751D01*
X0174250Y0066250D02*
X0174250Y0070754D01*
X0176502Y0070754D01*
X0177253Y0070003D01*
X0175751Y0067751D02*
X0177253Y0066250D01*
X0176750Y0099042D02*
X0172246Y0099042D01*
X0172246Y0101294D01*
X0172997Y0102045D01*
X0174498Y0102045D01*
X0175249Y0101294D01*
X0175249Y0099042D01*
X0175249Y0100543D02*
X0176750Y0102045D01*
X0175999Y0103646D02*
X0176750Y0104397D01*
X0176750Y0105898D01*
X0175999Y0106649D01*
X0174498Y0106649D01*
X0173747Y0105898D01*
X0173747Y0105147D01*
X0174498Y0103646D01*
X0172246Y0103646D01*
X0172246Y0106649D01*
X0197246Y0106749D02*
X0197246Y0103746D01*
X0197997Y0102145D02*
X0199498Y0102145D01*
X0200249Y0101394D01*
X0200249Y0099142D01*
X0201750Y0099142D02*
X0197246Y0099142D01*
X0197246Y0101394D01*
X0197997Y0102145D01*
X0200249Y0100643D02*
X0201750Y0102145D01*
X0201750Y0103746D02*
X0200999Y0103746D01*
X0197997Y0106749D01*
X0197246Y0106749D01*
X0212246Y0105898D02*
X0212997Y0106649D01*
X0213747Y0106649D01*
X0214498Y0105898D01*
X0215249Y0106649D01*
X0215999Y0106649D01*
X0216750Y0105898D01*
X0216750Y0104397D01*
X0215999Y0103646D01*
X0216750Y0102045D02*
X0215249Y0100543D01*
X0215249Y0101294D02*
X0215249Y0099042D01*
X0216750Y0099042D02*
X0212246Y0099042D01*
X0212246Y0101294D01*
X0212997Y0102045D01*
X0214498Y0102045D01*
X0215249Y0101294D01*
X0212997Y0103646D02*
X0212246Y0104397D01*
X0212246Y0105898D01*
X0214498Y0105898D02*
X0214498Y0105147D01*
X0161750Y0139042D02*
X0157246Y0139042D01*
X0157246Y0141294D01*
X0157997Y0142045D01*
X0159498Y0142045D01*
X0160249Y0141294D01*
X0160249Y0139042D01*
X0160249Y0140543D02*
X0161750Y0142045D01*
X0161750Y0143646D02*
X0158747Y0146649D01*
X0157997Y0146649D01*
X0157246Y0145898D01*
X0157246Y0144397D01*
X0157997Y0143646D01*
X0161750Y0143646D02*
X0161750Y0146649D01*
X0117250Y0158501D02*
X0117250Y0160002D01*
X0116499Y0160753D01*
X0114998Y0162354D02*
X0114998Y0165356D01*
X0112746Y0164606D02*
X0114998Y0162354D01*
X0113497Y0160753D02*
X0112746Y0160002D01*
X0112746Y0158501D01*
X0113497Y0157750D01*
X0116499Y0157750D01*
X0117250Y0158501D01*
X0117250Y0164606D02*
X0112746Y0164606D01*
X0138197Y0201750D02*
X0141199Y0201750D01*
X0141950Y0202501D01*
X0141950Y0204002D01*
X0141199Y0204753D01*
X0141199Y0206354D02*
X0139698Y0206354D01*
X0139698Y0208606D01*
X0140449Y0209356D01*
X0141199Y0209356D01*
X0141950Y0208606D01*
X0141950Y0207105D01*
X0141199Y0206354D01*
X0139698Y0206354D02*
X0138197Y0207855D01*
X0137446Y0209356D01*
X0138197Y0204753D02*
X0137446Y0204002D01*
X0137446Y0202501D01*
X0138197Y0201750D01*
X0193250Y0204250D02*
X0193250Y0208754D01*
X0195502Y0208754D01*
X0196253Y0208003D01*
X0196253Y0206502D01*
X0195502Y0205751D01*
X0193250Y0205751D01*
X0194751Y0205751D02*
X0196253Y0204250D01*
X0197854Y0204250D02*
X0200856Y0204250D01*
X0199355Y0204250D02*
X0199355Y0208754D01*
X0197854Y0207253D01*
X0240997Y0156756D02*
X0240246Y0156006D01*
X0240246Y0154505D01*
X0240997Y0153754D01*
X0241747Y0153754D01*
X0242498Y0154505D01*
X0242498Y0156756D01*
X0243999Y0156756D02*
X0240997Y0156756D01*
X0243999Y0156756D02*
X0244750Y0156006D01*
X0244750Y0154505D01*
X0243999Y0153754D01*
X0244750Y0152153D02*
X0243249Y0150651D01*
X0243249Y0151402D02*
X0243249Y0149150D01*
X0244750Y0149150D02*
X0240246Y0149150D01*
X0240246Y0151402D01*
X0240997Y0152153D01*
X0242498Y0152153D01*
X0243249Y0151402D01*
X0276000Y0149756D02*
X0276000Y0154213D01*
X0276000Y0158150D02*
X0276000Y0162606D01*
X0276000Y0166543D02*
X0276000Y0171000D01*
X0280547Y0171000D01*
X0284484Y0171000D02*
X0289031Y0171000D01*
X0292969Y0171000D02*
X0297516Y0171000D01*
X0301453Y0171000D02*
X0306000Y0171000D01*
X0306000Y0091000D01*
X0301453Y0091000D01*
X0297516Y0091000D02*
X0292969Y0091000D01*
X0289031Y0091000D02*
X0284484Y0091000D01*
X0280547Y0091000D02*
X0276000Y0091000D01*
X0276000Y0095457D01*
X0276000Y0099394D02*
X0276000Y0103850D01*
X0276000Y0107787D02*
X0276000Y0112244D01*
X0276000Y0116181D02*
X0276000Y0120638D01*
X0276000Y0124575D02*
X0276000Y0129031D01*
X0276000Y0132969D02*
X0276000Y0137425D01*
X0276000Y0141362D02*
X0276000Y0145819D01*
X0306000Y0171000D02*
X0326000Y0171000D01*
X0326000Y0091000D01*
X0306000Y0091000D01*
X0306000Y0171000D02*
X0325685Y0171000D01*
D16*
X0323500Y0131000D03*
D17*
X0211083Y0208055D02*
X0211083Y0214062D01*
X0211083Y0215963D01*
X0211083Y0231699D01*
X0211083Y0233637D01*
X0171083Y0233637D01*
X0171083Y0236315D01*
X0171083Y0238764D01*
X0171083Y0239945D01*
X0211083Y0239945D01*
X0211083Y0238764D01*
X0171083Y0238764D01*
X0171083Y0236315D02*
X0211083Y0236315D01*
X0211083Y0237098D01*
X0211083Y0238764D01*
X0212292Y0237689D02*
X0211590Y0237098D01*
X0211083Y0237098D01*
X0211083Y0236315D02*
X0211083Y0235469D01*
X0211083Y0233637D01*
X0212292Y0234878D02*
X0211590Y0235469D01*
X0211083Y0235469D01*
X0212292Y0234878D02*
X0213327Y0234878D01*
X0213327Y0237689D01*
X0212292Y0237689D01*
X0193544Y0223902D02*
X0193546Y0224087D01*
X0193553Y0224272D01*
X0193564Y0224457D01*
X0193580Y0224641D01*
X0193601Y0224825D01*
X0193626Y0225008D01*
X0193655Y0225191D01*
X0193689Y0225373D01*
X0193727Y0225554D01*
X0193770Y0225734D01*
X0193817Y0225913D01*
X0193869Y0226090D01*
X0193925Y0226267D01*
X0193985Y0226442D01*
X0194049Y0226615D01*
X0194118Y0226787D01*
X0194191Y0226957D01*
X0194268Y0227125D01*
X0194349Y0227292D01*
X0194434Y0227456D01*
X0194523Y0227618D01*
X0194617Y0227778D01*
X0194714Y0227935D01*
X0194815Y0228090D01*
X0194919Y0228243D01*
X0195028Y0228393D01*
X0195140Y0228540D01*
X0195255Y0228685D01*
X0195374Y0228826D01*
X0195497Y0228965D01*
X0195623Y0229100D01*
X0195752Y0229233D01*
X0195885Y0229362D01*
X0196020Y0229488D01*
X0196159Y0229611D01*
X0196300Y0229730D01*
X0196445Y0229845D01*
X0196592Y0229957D01*
X0196742Y0230066D01*
X0196895Y0230170D01*
X0197050Y0230271D01*
X0197207Y0230368D01*
X0197367Y0230462D01*
X0197529Y0230551D01*
X0197693Y0230636D01*
X0197860Y0230717D01*
X0198028Y0230794D01*
X0198198Y0230867D01*
X0198370Y0230936D01*
X0198543Y0231000D01*
X0198718Y0231060D01*
X0198895Y0231116D01*
X0199072Y0231168D01*
X0199251Y0231215D01*
X0199431Y0231258D01*
X0199612Y0231296D01*
X0199794Y0231330D01*
X0199977Y0231359D01*
X0200160Y0231384D01*
X0200344Y0231405D01*
X0200528Y0231421D01*
X0200713Y0231432D01*
X0200898Y0231439D01*
X0201083Y0231441D01*
X0201268Y0231439D01*
X0201453Y0231432D01*
X0201638Y0231421D01*
X0201822Y0231405D01*
X0202006Y0231384D01*
X0202189Y0231359D01*
X0202372Y0231330D01*
X0202554Y0231296D01*
X0202735Y0231258D01*
X0202915Y0231215D01*
X0203094Y0231168D01*
X0203271Y0231116D01*
X0203448Y0231060D01*
X0203623Y0231000D01*
X0203796Y0230936D01*
X0203968Y0230867D01*
X0204138Y0230794D01*
X0204306Y0230717D01*
X0204473Y0230636D01*
X0204637Y0230551D01*
X0204799Y0230462D01*
X0204959Y0230368D01*
X0205116Y0230271D01*
X0205271Y0230170D01*
X0205424Y0230066D01*
X0205574Y0229957D01*
X0205721Y0229845D01*
X0205866Y0229730D01*
X0206007Y0229611D01*
X0206146Y0229488D01*
X0206281Y0229362D01*
X0206414Y0229233D01*
X0206543Y0229100D01*
X0206669Y0228965D01*
X0206792Y0228826D01*
X0206911Y0228685D01*
X0207026Y0228540D01*
X0207138Y0228393D01*
X0207247Y0228243D01*
X0207351Y0228090D01*
X0207452Y0227935D01*
X0207549Y0227778D01*
X0207643Y0227618D01*
X0207732Y0227456D01*
X0207817Y0227292D01*
X0207898Y0227125D01*
X0207975Y0226957D01*
X0208048Y0226787D01*
X0208117Y0226615D01*
X0208181Y0226442D01*
X0208241Y0226267D01*
X0208297Y0226090D01*
X0208349Y0225913D01*
X0208396Y0225734D01*
X0208439Y0225554D01*
X0208477Y0225373D01*
X0208511Y0225191D01*
X0208540Y0225008D01*
X0208565Y0224825D01*
X0208586Y0224641D01*
X0208602Y0224457D01*
X0208613Y0224272D01*
X0208620Y0224087D01*
X0208622Y0223902D01*
X0208620Y0223717D01*
X0208613Y0223532D01*
X0208602Y0223347D01*
X0208586Y0223163D01*
X0208565Y0222979D01*
X0208540Y0222796D01*
X0208511Y0222613D01*
X0208477Y0222431D01*
X0208439Y0222250D01*
X0208396Y0222070D01*
X0208349Y0221891D01*
X0208297Y0221714D01*
X0208241Y0221537D01*
X0208181Y0221362D01*
X0208117Y0221189D01*
X0208048Y0221017D01*
X0207975Y0220847D01*
X0207898Y0220679D01*
X0207817Y0220512D01*
X0207732Y0220348D01*
X0207643Y0220186D01*
X0207549Y0220026D01*
X0207452Y0219869D01*
X0207351Y0219714D01*
X0207247Y0219561D01*
X0207138Y0219411D01*
X0207026Y0219264D01*
X0206911Y0219119D01*
X0206792Y0218978D01*
X0206669Y0218839D01*
X0206543Y0218704D01*
X0206414Y0218571D01*
X0206281Y0218442D01*
X0206146Y0218316D01*
X0206007Y0218193D01*
X0205866Y0218074D01*
X0205721Y0217959D01*
X0205574Y0217847D01*
X0205424Y0217738D01*
X0205271Y0217634D01*
X0205116Y0217533D01*
X0204959Y0217436D01*
X0204799Y0217342D01*
X0204637Y0217253D01*
X0204473Y0217168D01*
X0204306Y0217087D01*
X0204138Y0217010D01*
X0203968Y0216937D01*
X0203796Y0216868D01*
X0203623Y0216804D01*
X0203448Y0216744D01*
X0203271Y0216688D01*
X0203094Y0216636D01*
X0202915Y0216589D01*
X0202735Y0216546D01*
X0202554Y0216508D01*
X0202372Y0216474D01*
X0202189Y0216445D01*
X0202006Y0216420D01*
X0201822Y0216399D01*
X0201638Y0216383D01*
X0201453Y0216372D01*
X0201268Y0216365D01*
X0201083Y0216363D01*
X0200898Y0216365D01*
X0200713Y0216372D01*
X0200528Y0216383D01*
X0200344Y0216399D01*
X0200160Y0216420D01*
X0199977Y0216445D01*
X0199794Y0216474D01*
X0199612Y0216508D01*
X0199431Y0216546D01*
X0199251Y0216589D01*
X0199072Y0216636D01*
X0198895Y0216688D01*
X0198718Y0216744D01*
X0198543Y0216804D01*
X0198370Y0216868D01*
X0198198Y0216937D01*
X0198028Y0217010D01*
X0197860Y0217087D01*
X0197693Y0217168D01*
X0197529Y0217253D01*
X0197367Y0217342D01*
X0197207Y0217436D01*
X0197050Y0217533D01*
X0196895Y0217634D01*
X0196742Y0217738D01*
X0196592Y0217847D01*
X0196445Y0217959D01*
X0196300Y0218074D01*
X0196159Y0218193D01*
X0196020Y0218316D01*
X0195885Y0218442D01*
X0195752Y0218571D01*
X0195623Y0218704D01*
X0195497Y0218839D01*
X0195374Y0218978D01*
X0195255Y0219119D01*
X0195140Y0219264D01*
X0195028Y0219411D01*
X0194919Y0219561D01*
X0194815Y0219714D01*
X0194714Y0219869D01*
X0194617Y0220026D01*
X0194523Y0220186D01*
X0194434Y0220348D01*
X0194349Y0220512D01*
X0194268Y0220679D01*
X0194191Y0220847D01*
X0194118Y0221017D01*
X0194049Y0221189D01*
X0193985Y0221362D01*
X0193925Y0221537D01*
X0193869Y0221714D01*
X0193817Y0221891D01*
X0193770Y0222070D01*
X0193727Y0222250D01*
X0193689Y0222431D01*
X0193655Y0222613D01*
X0193626Y0222796D01*
X0193601Y0222979D01*
X0193580Y0223163D01*
X0193564Y0223347D01*
X0193553Y0223532D01*
X0193546Y0223717D01*
X0193544Y0223902D01*
X0173544Y0223902D02*
X0173546Y0224087D01*
X0173553Y0224272D01*
X0173564Y0224457D01*
X0173580Y0224641D01*
X0173601Y0224825D01*
X0173626Y0225008D01*
X0173655Y0225191D01*
X0173689Y0225373D01*
X0173727Y0225554D01*
X0173770Y0225734D01*
X0173817Y0225913D01*
X0173869Y0226090D01*
X0173925Y0226267D01*
X0173985Y0226442D01*
X0174049Y0226615D01*
X0174118Y0226787D01*
X0174191Y0226957D01*
X0174268Y0227125D01*
X0174349Y0227292D01*
X0174434Y0227456D01*
X0174523Y0227618D01*
X0174617Y0227778D01*
X0174714Y0227935D01*
X0174815Y0228090D01*
X0174919Y0228243D01*
X0175028Y0228393D01*
X0175140Y0228540D01*
X0175255Y0228685D01*
X0175374Y0228826D01*
X0175497Y0228965D01*
X0175623Y0229100D01*
X0175752Y0229233D01*
X0175885Y0229362D01*
X0176020Y0229488D01*
X0176159Y0229611D01*
X0176300Y0229730D01*
X0176445Y0229845D01*
X0176592Y0229957D01*
X0176742Y0230066D01*
X0176895Y0230170D01*
X0177050Y0230271D01*
X0177207Y0230368D01*
X0177367Y0230462D01*
X0177529Y0230551D01*
X0177693Y0230636D01*
X0177860Y0230717D01*
X0178028Y0230794D01*
X0178198Y0230867D01*
X0178370Y0230936D01*
X0178543Y0231000D01*
X0178718Y0231060D01*
X0178895Y0231116D01*
X0179072Y0231168D01*
X0179251Y0231215D01*
X0179431Y0231258D01*
X0179612Y0231296D01*
X0179794Y0231330D01*
X0179977Y0231359D01*
X0180160Y0231384D01*
X0180344Y0231405D01*
X0180528Y0231421D01*
X0180713Y0231432D01*
X0180898Y0231439D01*
X0181083Y0231441D01*
X0181268Y0231439D01*
X0181453Y0231432D01*
X0181638Y0231421D01*
X0181822Y0231405D01*
X0182006Y0231384D01*
X0182189Y0231359D01*
X0182372Y0231330D01*
X0182554Y0231296D01*
X0182735Y0231258D01*
X0182915Y0231215D01*
X0183094Y0231168D01*
X0183271Y0231116D01*
X0183448Y0231060D01*
X0183623Y0231000D01*
X0183796Y0230936D01*
X0183968Y0230867D01*
X0184138Y0230794D01*
X0184306Y0230717D01*
X0184473Y0230636D01*
X0184637Y0230551D01*
X0184799Y0230462D01*
X0184959Y0230368D01*
X0185116Y0230271D01*
X0185271Y0230170D01*
X0185424Y0230066D01*
X0185574Y0229957D01*
X0185721Y0229845D01*
X0185866Y0229730D01*
X0186007Y0229611D01*
X0186146Y0229488D01*
X0186281Y0229362D01*
X0186414Y0229233D01*
X0186543Y0229100D01*
X0186669Y0228965D01*
X0186792Y0228826D01*
X0186911Y0228685D01*
X0187026Y0228540D01*
X0187138Y0228393D01*
X0187247Y0228243D01*
X0187351Y0228090D01*
X0187452Y0227935D01*
X0187549Y0227778D01*
X0187643Y0227618D01*
X0187732Y0227456D01*
X0187817Y0227292D01*
X0187898Y0227125D01*
X0187975Y0226957D01*
X0188048Y0226787D01*
X0188117Y0226615D01*
X0188181Y0226442D01*
X0188241Y0226267D01*
X0188297Y0226090D01*
X0188349Y0225913D01*
X0188396Y0225734D01*
X0188439Y0225554D01*
X0188477Y0225373D01*
X0188511Y0225191D01*
X0188540Y0225008D01*
X0188565Y0224825D01*
X0188586Y0224641D01*
X0188602Y0224457D01*
X0188613Y0224272D01*
X0188620Y0224087D01*
X0188622Y0223902D01*
X0188620Y0223717D01*
X0188613Y0223532D01*
X0188602Y0223347D01*
X0188586Y0223163D01*
X0188565Y0222979D01*
X0188540Y0222796D01*
X0188511Y0222613D01*
X0188477Y0222431D01*
X0188439Y0222250D01*
X0188396Y0222070D01*
X0188349Y0221891D01*
X0188297Y0221714D01*
X0188241Y0221537D01*
X0188181Y0221362D01*
X0188117Y0221189D01*
X0188048Y0221017D01*
X0187975Y0220847D01*
X0187898Y0220679D01*
X0187817Y0220512D01*
X0187732Y0220348D01*
X0187643Y0220186D01*
X0187549Y0220026D01*
X0187452Y0219869D01*
X0187351Y0219714D01*
X0187247Y0219561D01*
X0187138Y0219411D01*
X0187026Y0219264D01*
X0186911Y0219119D01*
X0186792Y0218978D01*
X0186669Y0218839D01*
X0186543Y0218704D01*
X0186414Y0218571D01*
X0186281Y0218442D01*
X0186146Y0218316D01*
X0186007Y0218193D01*
X0185866Y0218074D01*
X0185721Y0217959D01*
X0185574Y0217847D01*
X0185424Y0217738D01*
X0185271Y0217634D01*
X0185116Y0217533D01*
X0184959Y0217436D01*
X0184799Y0217342D01*
X0184637Y0217253D01*
X0184473Y0217168D01*
X0184306Y0217087D01*
X0184138Y0217010D01*
X0183968Y0216937D01*
X0183796Y0216868D01*
X0183623Y0216804D01*
X0183448Y0216744D01*
X0183271Y0216688D01*
X0183094Y0216636D01*
X0182915Y0216589D01*
X0182735Y0216546D01*
X0182554Y0216508D01*
X0182372Y0216474D01*
X0182189Y0216445D01*
X0182006Y0216420D01*
X0181822Y0216399D01*
X0181638Y0216383D01*
X0181453Y0216372D01*
X0181268Y0216365D01*
X0181083Y0216363D01*
X0180898Y0216365D01*
X0180713Y0216372D01*
X0180528Y0216383D01*
X0180344Y0216399D01*
X0180160Y0216420D01*
X0179977Y0216445D01*
X0179794Y0216474D01*
X0179612Y0216508D01*
X0179431Y0216546D01*
X0179251Y0216589D01*
X0179072Y0216636D01*
X0178895Y0216688D01*
X0178718Y0216744D01*
X0178543Y0216804D01*
X0178370Y0216868D01*
X0178198Y0216937D01*
X0178028Y0217010D01*
X0177860Y0217087D01*
X0177693Y0217168D01*
X0177529Y0217253D01*
X0177367Y0217342D01*
X0177207Y0217436D01*
X0177050Y0217533D01*
X0176895Y0217634D01*
X0176742Y0217738D01*
X0176592Y0217847D01*
X0176445Y0217959D01*
X0176300Y0218074D01*
X0176159Y0218193D01*
X0176020Y0218316D01*
X0175885Y0218442D01*
X0175752Y0218571D01*
X0175623Y0218704D01*
X0175497Y0218839D01*
X0175374Y0218978D01*
X0175255Y0219119D01*
X0175140Y0219264D01*
X0175028Y0219411D01*
X0174919Y0219561D01*
X0174815Y0219714D01*
X0174714Y0219869D01*
X0174617Y0220026D01*
X0174523Y0220186D01*
X0174434Y0220348D01*
X0174349Y0220512D01*
X0174268Y0220679D01*
X0174191Y0220847D01*
X0174118Y0221017D01*
X0174049Y0221189D01*
X0173985Y0221362D01*
X0173925Y0221537D01*
X0173869Y0221714D01*
X0173817Y0221891D01*
X0173770Y0222070D01*
X0173727Y0222250D01*
X0173689Y0222431D01*
X0173655Y0222613D01*
X0173626Y0222796D01*
X0173601Y0222979D01*
X0173580Y0223163D01*
X0173564Y0223347D01*
X0173553Y0223532D01*
X0173546Y0223717D01*
X0173544Y0223902D01*
X0171083Y0231699D02*
X0171083Y0215963D01*
X0171083Y0214062D01*
X0171083Y0208055D01*
X0211083Y0208055D01*
X0211083Y0214062D02*
X0171083Y0214062D01*
X0171083Y0231699D02*
X0171083Y0233637D01*
X0033945Y0160083D02*
X0027938Y0160083D01*
X0026037Y0160083D01*
X0010301Y0160083D01*
X0008363Y0160083D01*
X0008363Y0080083D01*
X0005685Y0080083D01*
X0003236Y0080083D01*
X0002055Y0080083D01*
X0002055Y0160083D01*
X0003236Y0160083D01*
X0003236Y0080083D01*
X0005685Y0080083D02*
X0005685Y0160083D01*
X0004902Y0160083D01*
X0003236Y0160083D01*
X0004311Y0161292D02*
X0004311Y0162327D01*
X0007122Y0162327D01*
X0007122Y0161292D01*
X0006531Y0160590D01*
X0006531Y0160083D01*
X0008363Y0160083D01*
X0006531Y0160083D02*
X0005685Y0160083D01*
X0004902Y0160083D02*
X0004902Y0160590D01*
X0004311Y0161292D01*
X0010559Y0150083D02*
X0010561Y0150268D01*
X0010568Y0150453D01*
X0010579Y0150638D01*
X0010595Y0150822D01*
X0010616Y0151006D01*
X0010641Y0151189D01*
X0010670Y0151372D01*
X0010704Y0151554D01*
X0010742Y0151735D01*
X0010785Y0151915D01*
X0010832Y0152094D01*
X0010884Y0152271D01*
X0010940Y0152448D01*
X0011000Y0152623D01*
X0011064Y0152796D01*
X0011133Y0152968D01*
X0011206Y0153138D01*
X0011283Y0153306D01*
X0011364Y0153473D01*
X0011449Y0153637D01*
X0011538Y0153799D01*
X0011632Y0153959D01*
X0011729Y0154116D01*
X0011830Y0154271D01*
X0011934Y0154424D01*
X0012043Y0154574D01*
X0012155Y0154721D01*
X0012270Y0154866D01*
X0012389Y0155007D01*
X0012512Y0155146D01*
X0012638Y0155281D01*
X0012767Y0155414D01*
X0012900Y0155543D01*
X0013035Y0155669D01*
X0013174Y0155792D01*
X0013315Y0155911D01*
X0013460Y0156026D01*
X0013607Y0156138D01*
X0013757Y0156247D01*
X0013910Y0156351D01*
X0014065Y0156452D01*
X0014222Y0156549D01*
X0014382Y0156643D01*
X0014544Y0156732D01*
X0014708Y0156817D01*
X0014875Y0156898D01*
X0015043Y0156975D01*
X0015213Y0157048D01*
X0015385Y0157117D01*
X0015558Y0157181D01*
X0015733Y0157241D01*
X0015910Y0157297D01*
X0016087Y0157349D01*
X0016266Y0157396D01*
X0016446Y0157439D01*
X0016627Y0157477D01*
X0016809Y0157511D01*
X0016992Y0157540D01*
X0017175Y0157565D01*
X0017359Y0157586D01*
X0017543Y0157602D01*
X0017728Y0157613D01*
X0017913Y0157620D01*
X0018098Y0157622D01*
X0018283Y0157620D01*
X0018468Y0157613D01*
X0018653Y0157602D01*
X0018837Y0157586D01*
X0019021Y0157565D01*
X0019204Y0157540D01*
X0019387Y0157511D01*
X0019569Y0157477D01*
X0019750Y0157439D01*
X0019930Y0157396D01*
X0020109Y0157349D01*
X0020286Y0157297D01*
X0020463Y0157241D01*
X0020638Y0157181D01*
X0020811Y0157117D01*
X0020983Y0157048D01*
X0021153Y0156975D01*
X0021321Y0156898D01*
X0021488Y0156817D01*
X0021652Y0156732D01*
X0021814Y0156643D01*
X0021974Y0156549D01*
X0022131Y0156452D01*
X0022286Y0156351D01*
X0022439Y0156247D01*
X0022589Y0156138D01*
X0022736Y0156026D01*
X0022881Y0155911D01*
X0023022Y0155792D01*
X0023161Y0155669D01*
X0023296Y0155543D01*
X0023429Y0155414D01*
X0023558Y0155281D01*
X0023684Y0155146D01*
X0023807Y0155007D01*
X0023926Y0154866D01*
X0024041Y0154721D01*
X0024153Y0154574D01*
X0024262Y0154424D01*
X0024366Y0154271D01*
X0024467Y0154116D01*
X0024564Y0153959D01*
X0024658Y0153799D01*
X0024747Y0153637D01*
X0024832Y0153473D01*
X0024913Y0153306D01*
X0024990Y0153138D01*
X0025063Y0152968D01*
X0025132Y0152796D01*
X0025196Y0152623D01*
X0025256Y0152448D01*
X0025312Y0152271D01*
X0025364Y0152094D01*
X0025411Y0151915D01*
X0025454Y0151735D01*
X0025492Y0151554D01*
X0025526Y0151372D01*
X0025555Y0151189D01*
X0025580Y0151006D01*
X0025601Y0150822D01*
X0025617Y0150638D01*
X0025628Y0150453D01*
X0025635Y0150268D01*
X0025637Y0150083D01*
X0025635Y0149898D01*
X0025628Y0149713D01*
X0025617Y0149528D01*
X0025601Y0149344D01*
X0025580Y0149160D01*
X0025555Y0148977D01*
X0025526Y0148794D01*
X0025492Y0148612D01*
X0025454Y0148431D01*
X0025411Y0148251D01*
X0025364Y0148072D01*
X0025312Y0147895D01*
X0025256Y0147718D01*
X0025196Y0147543D01*
X0025132Y0147370D01*
X0025063Y0147198D01*
X0024990Y0147028D01*
X0024913Y0146860D01*
X0024832Y0146693D01*
X0024747Y0146529D01*
X0024658Y0146367D01*
X0024564Y0146207D01*
X0024467Y0146050D01*
X0024366Y0145895D01*
X0024262Y0145742D01*
X0024153Y0145592D01*
X0024041Y0145445D01*
X0023926Y0145300D01*
X0023807Y0145159D01*
X0023684Y0145020D01*
X0023558Y0144885D01*
X0023429Y0144752D01*
X0023296Y0144623D01*
X0023161Y0144497D01*
X0023022Y0144374D01*
X0022881Y0144255D01*
X0022736Y0144140D01*
X0022589Y0144028D01*
X0022439Y0143919D01*
X0022286Y0143815D01*
X0022131Y0143714D01*
X0021974Y0143617D01*
X0021814Y0143523D01*
X0021652Y0143434D01*
X0021488Y0143349D01*
X0021321Y0143268D01*
X0021153Y0143191D01*
X0020983Y0143118D01*
X0020811Y0143049D01*
X0020638Y0142985D01*
X0020463Y0142925D01*
X0020286Y0142869D01*
X0020109Y0142817D01*
X0019930Y0142770D01*
X0019750Y0142727D01*
X0019569Y0142689D01*
X0019387Y0142655D01*
X0019204Y0142626D01*
X0019021Y0142601D01*
X0018837Y0142580D01*
X0018653Y0142564D01*
X0018468Y0142553D01*
X0018283Y0142546D01*
X0018098Y0142544D01*
X0017913Y0142546D01*
X0017728Y0142553D01*
X0017543Y0142564D01*
X0017359Y0142580D01*
X0017175Y0142601D01*
X0016992Y0142626D01*
X0016809Y0142655D01*
X0016627Y0142689D01*
X0016446Y0142727D01*
X0016266Y0142770D01*
X0016087Y0142817D01*
X0015910Y0142869D01*
X0015733Y0142925D01*
X0015558Y0142985D01*
X0015385Y0143049D01*
X0015213Y0143118D01*
X0015043Y0143191D01*
X0014875Y0143268D01*
X0014708Y0143349D01*
X0014544Y0143434D01*
X0014382Y0143523D01*
X0014222Y0143617D01*
X0014065Y0143714D01*
X0013910Y0143815D01*
X0013757Y0143919D01*
X0013607Y0144028D01*
X0013460Y0144140D01*
X0013315Y0144255D01*
X0013174Y0144374D01*
X0013035Y0144497D01*
X0012900Y0144623D01*
X0012767Y0144752D01*
X0012638Y0144885D01*
X0012512Y0145020D01*
X0012389Y0145159D01*
X0012270Y0145300D01*
X0012155Y0145445D01*
X0012043Y0145592D01*
X0011934Y0145742D01*
X0011830Y0145895D01*
X0011729Y0146050D01*
X0011632Y0146207D01*
X0011538Y0146367D01*
X0011449Y0146529D01*
X0011364Y0146693D01*
X0011283Y0146860D01*
X0011206Y0147028D01*
X0011133Y0147198D01*
X0011064Y0147370D01*
X0011000Y0147543D01*
X0010940Y0147718D01*
X0010884Y0147895D01*
X0010832Y0148072D01*
X0010785Y0148251D01*
X0010742Y0148431D01*
X0010704Y0148612D01*
X0010670Y0148794D01*
X0010641Y0148977D01*
X0010616Y0149160D01*
X0010595Y0149344D01*
X0010579Y0149528D01*
X0010568Y0149713D01*
X0010561Y0149898D01*
X0010559Y0150083D01*
X0027938Y0160083D02*
X0027938Y0080083D01*
X0033945Y0080083D01*
X0033945Y0160083D01*
X0010559Y0130083D02*
X0010561Y0130268D01*
X0010568Y0130453D01*
X0010579Y0130638D01*
X0010595Y0130822D01*
X0010616Y0131006D01*
X0010641Y0131189D01*
X0010670Y0131372D01*
X0010704Y0131554D01*
X0010742Y0131735D01*
X0010785Y0131915D01*
X0010832Y0132094D01*
X0010884Y0132271D01*
X0010940Y0132448D01*
X0011000Y0132623D01*
X0011064Y0132796D01*
X0011133Y0132968D01*
X0011206Y0133138D01*
X0011283Y0133306D01*
X0011364Y0133473D01*
X0011449Y0133637D01*
X0011538Y0133799D01*
X0011632Y0133959D01*
X0011729Y0134116D01*
X0011830Y0134271D01*
X0011934Y0134424D01*
X0012043Y0134574D01*
X0012155Y0134721D01*
X0012270Y0134866D01*
X0012389Y0135007D01*
X0012512Y0135146D01*
X0012638Y0135281D01*
X0012767Y0135414D01*
X0012900Y0135543D01*
X0013035Y0135669D01*
X0013174Y0135792D01*
X0013315Y0135911D01*
X0013460Y0136026D01*
X0013607Y0136138D01*
X0013757Y0136247D01*
X0013910Y0136351D01*
X0014065Y0136452D01*
X0014222Y0136549D01*
X0014382Y0136643D01*
X0014544Y0136732D01*
X0014708Y0136817D01*
X0014875Y0136898D01*
X0015043Y0136975D01*
X0015213Y0137048D01*
X0015385Y0137117D01*
X0015558Y0137181D01*
X0015733Y0137241D01*
X0015910Y0137297D01*
X0016087Y0137349D01*
X0016266Y0137396D01*
X0016446Y0137439D01*
X0016627Y0137477D01*
X0016809Y0137511D01*
X0016992Y0137540D01*
X0017175Y0137565D01*
X0017359Y0137586D01*
X0017543Y0137602D01*
X0017728Y0137613D01*
X0017913Y0137620D01*
X0018098Y0137622D01*
X0018283Y0137620D01*
X0018468Y0137613D01*
X0018653Y0137602D01*
X0018837Y0137586D01*
X0019021Y0137565D01*
X0019204Y0137540D01*
X0019387Y0137511D01*
X0019569Y0137477D01*
X0019750Y0137439D01*
X0019930Y0137396D01*
X0020109Y0137349D01*
X0020286Y0137297D01*
X0020463Y0137241D01*
X0020638Y0137181D01*
X0020811Y0137117D01*
X0020983Y0137048D01*
X0021153Y0136975D01*
X0021321Y0136898D01*
X0021488Y0136817D01*
X0021652Y0136732D01*
X0021814Y0136643D01*
X0021974Y0136549D01*
X0022131Y0136452D01*
X0022286Y0136351D01*
X0022439Y0136247D01*
X0022589Y0136138D01*
X0022736Y0136026D01*
X0022881Y0135911D01*
X0023022Y0135792D01*
X0023161Y0135669D01*
X0023296Y0135543D01*
X0023429Y0135414D01*
X0023558Y0135281D01*
X0023684Y0135146D01*
X0023807Y0135007D01*
X0023926Y0134866D01*
X0024041Y0134721D01*
X0024153Y0134574D01*
X0024262Y0134424D01*
X0024366Y0134271D01*
X0024467Y0134116D01*
X0024564Y0133959D01*
X0024658Y0133799D01*
X0024747Y0133637D01*
X0024832Y0133473D01*
X0024913Y0133306D01*
X0024990Y0133138D01*
X0025063Y0132968D01*
X0025132Y0132796D01*
X0025196Y0132623D01*
X0025256Y0132448D01*
X0025312Y0132271D01*
X0025364Y0132094D01*
X0025411Y0131915D01*
X0025454Y0131735D01*
X0025492Y0131554D01*
X0025526Y0131372D01*
X0025555Y0131189D01*
X0025580Y0131006D01*
X0025601Y0130822D01*
X0025617Y0130638D01*
X0025628Y0130453D01*
X0025635Y0130268D01*
X0025637Y0130083D01*
X0025635Y0129898D01*
X0025628Y0129713D01*
X0025617Y0129528D01*
X0025601Y0129344D01*
X0025580Y0129160D01*
X0025555Y0128977D01*
X0025526Y0128794D01*
X0025492Y0128612D01*
X0025454Y0128431D01*
X0025411Y0128251D01*
X0025364Y0128072D01*
X0025312Y0127895D01*
X0025256Y0127718D01*
X0025196Y0127543D01*
X0025132Y0127370D01*
X0025063Y0127198D01*
X0024990Y0127028D01*
X0024913Y0126860D01*
X0024832Y0126693D01*
X0024747Y0126529D01*
X0024658Y0126367D01*
X0024564Y0126207D01*
X0024467Y0126050D01*
X0024366Y0125895D01*
X0024262Y0125742D01*
X0024153Y0125592D01*
X0024041Y0125445D01*
X0023926Y0125300D01*
X0023807Y0125159D01*
X0023684Y0125020D01*
X0023558Y0124885D01*
X0023429Y0124752D01*
X0023296Y0124623D01*
X0023161Y0124497D01*
X0023022Y0124374D01*
X0022881Y0124255D01*
X0022736Y0124140D01*
X0022589Y0124028D01*
X0022439Y0123919D01*
X0022286Y0123815D01*
X0022131Y0123714D01*
X0021974Y0123617D01*
X0021814Y0123523D01*
X0021652Y0123434D01*
X0021488Y0123349D01*
X0021321Y0123268D01*
X0021153Y0123191D01*
X0020983Y0123118D01*
X0020811Y0123049D01*
X0020638Y0122985D01*
X0020463Y0122925D01*
X0020286Y0122869D01*
X0020109Y0122817D01*
X0019930Y0122770D01*
X0019750Y0122727D01*
X0019569Y0122689D01*
X0019387Y0122655D01*
X0019204Y0122626D01*
X0019021Y0122601D01*
X0018837Y0122580D01*
X0018653Y0122564D01*
X0018468Y0122553D01*
X0018283Y0122546D01*
X0018098Y0122544D01*
X0017913Y0122546D01*
X0017728Y0122553D01*
X0017543Y0122564D01*
X0017359Y0122580D01*
X0017175Y0122601D01*
X0016992Y0122626D01*
X0016809Y0122655D01*
X0016627Y0122689D01*
X0016446Y0122727D01*
X0016266Y0122770D01*
X0016087Y0122817D01*
X0015910Y0122869D01*
X0015733Y0122925D01*
X0015558Y0122985D01*
X0015385Y0123049D01*
X0015213Y0123118D01*
X0015043Y0123191D01*
X0014875Y0123268D01*
X0014708Y0123349D01*
X0014544Y0123434D01*
X0014382Y0123523D01*
X0014222Y0123617D01*
X0014065Y0123714D01*
X0013910Y0123815D01*
X0013757Y0123919D01*
X0013607Y0124028D01*
X0013460Y0124140D01*
X0013315Y0124255D01*
X0013174Y0124374D01*
X0013035Y0124497D01*
X0012900Y0124623D01*
X0012767Y0124752D01*
X0012638Y0124885D01*
X0012512Y0125020D01*
X0012389Y0125159D01*
X0012270Y0125300D01*
X0012155Y0125445D01*
X0012043Y0125592D01*
X0011934Y0125742D01*
X0011830Y0125895D01*
X0011729Y0126050D01*
X0011632Y0126207D01*
X0011538Y0126367D01*
X0011449Y0126529D01*
X0011364Y0126693D01*
X0011283Y0126860D01*
X0011206Y0127028D01*
X0011133Y0127198D01*
X0011064Y0127370D01*
X0011000Y0127543D01*
X0010940Y0127718D01*
X0010884Y0127895D01*
X0010832Y0128072D01*
X0010785Y0128251D01*
X0010742Y0128431D01*
X0010704Y0128612D01*
X0010670Y0128794D01*
X0010641Y0128977D01*
X0010616Y0129160D01*
X0010595Y0129344D01*
X0010579Y0129528D01*
X0010568Y0129713D01*
X0010561Y0129898D01*
X0010559Y0130083D01*
X0010559Y0110083D02*
X0010561Y0110268D01*
X0010568Y0110453D01*
X0010579Y0110638D01*
X0010595Y0110822D01*
X0010616Y0111006D01*
X0010641Y0111189D01*
X0010670Y0111372D01*
X0010704Y0111554D01*
X0010742Y0111735D01*
X0010785Y0111915D01*
X0010832Y0112094D01*
X0010884Y0112271D01*
X0010940Y0112448D01*
X0011000Y0112623D01*
X0011064Y0112796D01*
X0011133Y0112968D01*
X0011206Y0113138D01*
X0011283Y0113306D01*
X0011364Y0113473D01*
X0011449Y0113637D01*
X0011538Y0113799D01*
X0011632Y0113959D01*
X0011729Y0114116D01*
X0011830Y0114271D01*
X0011934Y0114424D01*
X0012043Y0114574D01*
X0012155Y0114721D01*
X0012270Y0114866D01*
X0012389Y0115007D01*
X0012512Y0115146D01*
X0012638Y0115281D01*
X0012767Y0115414D01*
X0012900Y0115543D01*
X0013035Y0115669D01*
X0013174Y0115792D01*
X0013315Y0115911D01*
X0013460Y0116026D01*
X0013607Y0116138D01*
X0013757Y0116247D01*
X0013910Y0116351D01*
X0014065Y0116452D01*
X0014222Y0116549D01*
X0014382Y0116643D01*
X0014544Y0116732D01*
X0014708Y0116817D01*
X0014875Y0116898D01*
X0015043Y0116975D01*
X0015213Y0117048D01*
X0015385Y0117117D01*
X0015558Y0117181D01*
X0015733Y0117241D01*
X0015910Y0117297D01*
X0016087Y0117349D01*
X0016266Y0117396D01*
X0016446Y0117439D01*
X0016627Y0117477D01*
X0016809Y0117511D01*
X0016992Y0117540D01*
X0017175Y0117565D01*
X0017359Y0117586D01*
X0017543Y0117602D01*
X0017728Y0117613D01*
X0017913Y0117620D01*
X0018098Y0117622D01*
X0018283Y0117620D01*
X0018468Y0117613D01*
X0018653Y0117602D01*
X0018837Y0117586D01*
X0019021Y0117565D01*
X0019204Y0117540D01*
X0019387Y0117511D01*
X0019569Y0117477D01*
X0019750Y0117439D01*
X0019930Y0117396D01*
X0020109Y0117349D01*
X0020286Y0117297D01*
X0020463Y0117241D01*
X0020638Y0117181D01*
X0020811Y0117117D01*
X0020983Y0117048D01*
X0021153Y0116975D01*
X0021321Y0116898D01*
X0021488Y0116817D01*
X0021652Y0116732D01*
X0021814Y0116643D01*
X0021974Y0116549D01*
X0022131Y0116452D01*
X0022286Y0116351D01*
X0022439Y0116247D01*
X0022589Y0116138D01*
X0022736Y0116026D01*
X0022881Y0115911D01*
X0023022Y0115792D01*
X0023161Y0115669D01*
X0023296Y0115543D01*
X0023429Y0115414D01*
X0023558Y0115281D01*
X0023684Y0115146D01*
X0023807Y0115007D01*
X0023926Y0114866D01*
X0024041Y0114721D01*
X0024153Y0114574D01*
X0024262Y0114424D01*
X0024366Y0114271D01*
X0024467Y0114116D01*
X0024564Y0113959D01*
X0024658Y0113799D01*
X0024747Y0113637D01*
X0024832Y0113473D01*
X0024913Y0113306D01*
X0024990Y0113138D01*
X0025063Y0112968D01*
X0025132Y0112796D01*
X0025196Y0112623D01*
X0025256Y0112448D01*
X0025312Y0112271D01*
X0025364Y0112094D01*
X0025411Y0111915D01*
X0025454Y0111735D01*
X0025492Y0111554D01*
X0025526Y0111372D01*
X0025555Y0111189D01*
X0025580Y0111006D01*
X0025601Y0110822D01*
X0025617Y0110638D01*
X0025628Y0110453D01*
X0025635Y0110268D01*
X0025637Y0110083D01*
X0025635Y0109898D01*
X0025628Y0109713D01*
X0025617Y0109528D01*
X0025601Y0109344D01*
X0025580Y0109160D01*
X0025555Y0108977D01*
X0025526Y0108794D01*
X0025492Y0108612D01*
X0025454Y0108431D01*
X0025411Y0108251D01*
X0025364Y0108072D01*
X0025312Y0107895D01*
X0025256Y0107718D01*
X0025196Y0107543D01*
X0025132Y0107370D01*
X0025063Y0107198D01*
X0024990Y0107028D01*
X0024913Y0106860D01*
X0024832Y0106693D01*
X0024747Y0106529D01*
X0024658Y0106367D01*
X0024564Y0106207D01*
X0024467Y0106050D01*
X0024366Y0105895D01*
X0024262Y0105742D01*
X0024153Y0105592D01*
X0024041Y0105445D01*
X0023926Y0105300D01*
X0023807Y0105159D01*
X0023684Y0105020D01*
X0023558Y0104885D01*
X0023429Y0104752D01*
X0023296Y0104623D01*
X0023161Y0104497D01*
X0023022Y0104374D01*
X0022881Y0104255D01*
X0022736Y0104140D01*
X0022589Y0104028D01*
X0022439Y0103919D01*
X0022286Y0103815D01*
X0022131Y0103714D01*
X0021974Y0103617D01*
X0021814Y0103523D01*
X0021652Y0103434D01*
X0021488Y0103349D01*
X0021321Y0103268D01*
X0021153Y0103191D01*
X0020983Y0103118D01*
X0020811Y0103049D01*
X0020638Y0102985D01*
X0020463Y0102925D01*
X0020286Y0102869D01*
X0020109Y0102817D01*
X0019930Y0102770D01*
X0019750Y0102727D01*
X0019569Y0102689D01*
X0019387Y0102655D01*
X0019204Y0102626D01*
X0019021Y0102601D01*
X0018837Y0102580D01*
X0018653Y0102564D01*
X0018468Y0102553D01*
X0018283Y0102546D01*
X0018098Y0102544D01*
X0017913Y0102546D01*
X0017728Y0102553D01*
X0017543Y0102564D01*
X0017359Y0102580D01*
X0017175Y0102601D01*
X0016992Y0102626D01*
X0016809Y0102655D01*
X0016627Y0102689D01*
X0016446Y0102727D01*
X0016266Y0102770D01*
X0016087Y0102817D01*
X0015910Y0102869D01*
X0015733Y0102925D01*
X0015558Y0102985D01*
X0015385Y0103049D01*
X0015213Y0103118D01*
X0015043Y0103191D01*
X0014875Y0103268D01*
X0014708Y0103349D01*
X0014544Y0103434D01*
X0014382Y0103523D01*
X0014222Y0103617D01*
X0014065Y0103714D01*
X0013910Y0103815D01*
X0013757Y0103919D01*
X0013607Y0104028D01*
X0013460Y0104140D01*
X0013315Y0104255D01*
X0013174Y0104374D01*
X0013035Y0104497D01*
X0012900Y0104623D01*
X0012767Y0104752D01*
X0012638Y0104885D01*
X0012512Y0105020D01*
X0012389Y0105159D01*
X0012270Y0105300D01*
X0012155Y0105445D01*
X0012043Y0105592D01*
X0011934Y0105742D01*
X0011830Y0105895D01*
X0011729Y0106050D01*
X0011632Y0106207D01*
X0011538Y0106367D01*
X0011449Y0106529D01*
X0011364Y0106693D01*
X0011283Y0106860D01*
X0011206Y0107028D01*
X0011133Y0107198D01*
X0011064Y0107370D01*
X0011000Y0107543D01*
X0010940Y0107718D01*
X0010884Y0107895D01*
X0010832Y0108072D01*
X0010785Y0108251D01*
X0010742Y0108431D01*
X0010704Y0108612D01*
X0010670Y0108794D01*
X0010641Y0108977D01*
X0010616Y0109160D01*
X0010595Y0109344D01*
X0010579Y0109528D01*
X0010568Y0109713D01*
X0010561Y0109898D01*
X0010559Y0110083D01*
X0010559Y0090083D02*
X0010561Y0090268D01*
X0010568Y0090453D01*
X0010579Y0090638D01*
X0010595Y0090822D01*
X0010616Y0091006D01*
X0010641Y0091189D01*
X0010670Y0091372D01*
X0010704Y0091554D01*
X0010742Y0091735D01*
X0010785Y0091915D01*
X0010832Y0092094D01*
X0010884Y0092271D01*
X0010940Y0092448D01*
X0011000Y0092623D01*
X0011064Y0092796D01*
X0011133Y0092968D01*
X0011206Y0093138D01*
X0011283Y0093306D01*
X0011364Y0093473D01*
X0011449Y0093637D01*
X0011538Y0093799D01*
X0011632Y0093959D01*
X0011729Y0094116D01*
X0011830Y0094271D01*
X0011934Y0094424D01*
X0012043Y0094574D01*
X0012155Y0094721D01*
X0012270Y0094866D01*
X0012389Y0095007D01*
X0012512Y0095146D01*
X0012638Y0095281D01*
X0012767Y0095414D01*
X0012900Y0095543D01*
X0013035Y0095669D01*
X0013174Y0095792D01*
X0013315Y0095911D01*
X0013460Y0096026D01*
X0013607Y0096138D01*
X0013757Y0096247D01*
X0013910Y0096351D01*
X0014065Y0096452D01*
X0014222Y0096549D01*
X0014382Y0096643D01*
X0014544Y0096732D01*
X0014708Y0096817D01*
X0014875Y0096898D01*
X0015043Y0096975D01*
X0015213Y0097048D01*
X0015385Y0097117D01*
X0015558Y0097181D01*
X0015733Y0097241D01*
X0015910Y0097297D01*
X0016087Y0097349D01*
X0016266Y0097396D01*
X0016446Y0097439D01*
X0016627Y0097477D01*
X0016809Y0097511D01*
X0016992Y0097540D01*
X0017175Y0097565D01*
X0017359Y0097586D01*
X0017543Y0097602D01*
X0017728Y0097613D01*
X0017913Y0097620D01*
X0018098Y0097622D01*
X0018283Y0097620D01*
X0018468Y0097613D01*
X0018653Y0097602D01*
X0018837Y0097586D01*
X0019021Y0097565D01*
X0019204Y0097540D01*
X0019387Y0097511D01*
X0019569Y0097477D01*
X0019750Y0097439D01*
X0019930Y0097396D01*
X0020109Y0097349D01*
X0020286Y0097297D01*
X0020463Y0097241D01*
X0020638Y0097181D01*
X0020811Y0097117D01*
X0020983Y0097048D01*
X0021153Y0096975D01*
X0021321Y0096898D01*
X0021488Y0096817D01*
X0021652Y0096732D01*
X0021814Y0096643D01*
X0021974Y0096549D01*
X0022131Y0096452D01*
X0022286Y0096351D01*
X0022439Y0096247D01*
X0022589Y0096138D01*
X0022736Y0096026D01*
X0022881Y0095911D01*
X0023022Y0095792D01*
X0023161Y0095669D01*
X0023296Y0095543D01*
X0023429Y0095414D01*
X0023558Y0095281D01*
X0023684Y0095146D01*
X0023807Y0095007D01*
X0023926Y0094866D01*
X0024041Y0094721D01*
X0024153Y0094574D01*
X0024262Y0094424D01*
X0024366Y0094271D01*
X0024467Y0094116D01*
X0024564Y0093959D01*
X0024658Y0093799D01*
X0024747Y0093637D01*
X0024832Y0093473D01*
X0024913Y0093306D01*
X0024990Y0093138D01*
X0025063Y0092968D01*
X0025132Y0092796D01*
X0025196Y0092623D01*
X0025256Y0092448D01*
X0025312Y0092271D01*
X0025364Y0092094D01*
X0025411Y0091915D01*
X0025454Y0091735D01*
X0025492Y0091554D01*
X0025526Y0091372D01*
X0025555Y0091189D01*
X0025580Y0091006D01*
X0025601Y0090822D01*
X0025617Y0090638D01*
X0025628Y0090453D01*
X0025635Y0090268D01*
X0025637Y0090083D01*
X0025635Y0089898D01*
X0025628Y0089713D01*
X0025617Y0089528D01*
X0025601Y0089344D01*
X0025580Y0089160D01*
X0025555Y0088977D01*
X0025526Y0088794D01*
X0025492Y0088612D01*
X0025454Y0088431D01*
X0025411Y0088251D01*
X0025364Y0088072D01*
X0025312Y0087895D01*
X0025256Y0087718D01*
X0025196Y0087543D01*
X0025132Y0087370D01*
X0025063Y0087198D01*
X0024990Y0087028D01*
X0024913Y0086860D01*
X0024832Y0086693D01*
X0024747Y0086529D01*
X0024658Y0086367D01*
X0024564Y0086207D01*
X0024467Y0086050D01*
X0024366Y0085895D01*
X0024262Y0085742D01*
X0024153Y0085592D01*
X0024041Y0085445D01*
X0023926Y0085300D01*
X0023807Y0085159D01*
X0023684Y0085020D01*
X0023558Y0084885D01*
X0023429Y0084752D01*
X0023296Y0084623D01*
X0023161Y0084497D01*
X0023022Y0084374D01*
X0022881Y0084255D01*
X0022736Y0084140D01*
X0022589Y0084028D01*
X0022439Y0083919D01*
X0022286Y0083815D01*
X0022131Y0083714D01*
X0021974Y0083617D01*
X0021814Y0083523D01*
X0021652Y0083434D01*
X0021488Y0083349D01*
X0021321Y0083268D01*
X0021153Y0083191D01*
X0020983Y0083118D01*
X0020811Y0083049D01*
X0020638Y0082985D01*
X0020463Y0082925D01*
X0020286Y0082869D01*
X0020109Y0082817D01*
X0019930Y0082770D01*
X0019750Y0082727D01*
X0019569Y0082689D01*
X0019387Y0082655D01*
X0019204Y0082626D01*
X0019021Y0082601D01*
X0018837Y0082580D01*
X0018653Y0082564D01*
X0018468Y0082553D01*
X0018283Y0082546D01*
X0018098Y0082544D01*
X0017913Y0082546D01*
X0017728Y0082553D01*
X0017543Y0082564D01*
X0017359Y0082580D01*
X0017175Y0082601D01*
X0016992Y0082626D01*
X0016809Y0082655D01*
X0016627Y0082689D01*
X0016446Y0082727D01*
X0016266Y0082770D01*
X0016087Y0082817D01*
X0015910Y0082869D01*
X0015733Y0082925D01*
X0015558Y0082985D01*
X0015385Y0083049D01*
X0015213Y0083118D01*
X0015043Y0083191D01*
X0014875Y0083268D01*
X0014708Y0083349D01*
X0014544Y0083434D01*
X0014382Y0083523D01*
X0014222Y0083617D01*
X0014065Y0083714D01*
X0013910Y0083815D01*
X0013757Y0083919D01*
X0013607Y0084028D01*
X0013460Y0084140D01*
X0013315Y0084255D01*
X0013174Y0084374D01*
X0013035Y0084497D01*
X0012900Y0084623D01*
X0012767Y0084752D01*
X0012638Y0084885D01*
X0012512Y0085020D01*
X0012389Y0085159D01*
X0012270Y0085300D01*
X0012155Y0085445D01*
X0012043Y0085592D01*
X0011934Y0085742D01*
X0011830Y0085895D01*
X0011729Y0086050D01*
X0011632Y0086207D01*
X0011538Y0086367D01*
X0011449Y0086529D01*
X0011364Y0086693D01*
X0011283Y0086860D01*
X0011206Y0087028D01*
X0011133Y0087198D01*
X0011064Y0087370D01*
X0011000Y0087543D01*
X0010940Y0087718D01*
X0010884Y0087895D01*
X0010832Y0088072D01*
X0010785Y0088251D01*
X0010742Y0088431D01*
X0010704Y0088612D01*
X0010670Y0088794D01*
X0010641Y0088977D01*
X0010616Y0089160D01*
X0010595Y0089344D01*
X0010579Y0089528D01*
X0010568Y0089713D01*
X0010561Y0089898D01*
X0010559Y0090083D01*
X0010301Y0080083D02*
X0026037Y0080083D01*
X0027938Y0080083D01*
X0010301Y0080083D02*
X0008363Y0080083D01*
X0204917Y0035945D02*
X0204917Y0029938D01*
X0204917Y0028037D01*
X0204917Y0012301D01*
X0204917Y0010363D01*
X0244917Y0010363D01*
X0244917Y0007685D01*
X0244917Y0005236D01*
X0244917Y0004055D01*
X0204917Y0004055D01*
X0204917Y0005236D01*
X0244917Y0005236D01*
X0244917Y0007685D02*
X0204917Y0007685D01*
X0204917Y0006902D01*
X0204917Y0005236D01*
X0203708Y0006311D02*
X0204410Y0006902D01*
X0204917Y0006902D01*
X0204917Y0007685D02*
X0204917Y0008531D01*
X0204917Y0010363D01*
X0203708Y0009122D02*
X0204410Y0008531D01*
X0204917Y0008531D01*
X0203708Y0009122D02*
X0202673Y0009122D01*
X0202673Y0006311D01*
X0203708Y0006311D01*
X0207378Y0020098D02*
X0207380Y0020283D01*
X0207387Y0020468D01*
X0207398Y0020653D01*
X0207414Y0020837D01*
X0207435Y0021021D01*
X0207460Y0021204D01*
X0207489Y0021387D01*
X0207523Y0021569D01*
X0207561Y0021750D01*
X0207604Y0021930D01*
X0207651Y0022109D01*
X0207703Y0022286D01*
X0207759Y0022463D01*
X0207819Y0022638D01*
X0207883Y0022811D01*
X0207952Y0022983D01*
X0208025Y0023153D01*
X0208102Y0023321D01*
X0208183Y0023488D01*
X0208268Y0023652D01*
X0208357Y0023814D01*
X0208451Y0023974D01*
X0208548Y0024131D01*
X0208649Y0024286D01*
X0208753Y0024439D01*
X0208862Y0024589D01*
X0208974Y0024736D01*
X0209089Y0024881D01*
X0209208Y0025022D01*
X0209331Y0025161D01*
X0209457Y0025296D01*
X0209586Y0025429D01*
X0209719Y0025558D01*
X0209854Y0025684D01*
X0209993Y0025807D01*
X0210134Y0025926D01*
X0210279Y0026041D01*
X0210426Y0026153D01*
X0210576Y0026262D01*
X0210729Y0026366D01*
X0210884Y0026467D01*
X0211041Y0026564D01*
X0211201Y0026658D01*
X0211363Y0026747D01*
X0211527Y0026832D01*
X0211694Y0026913D01*
X0211862Y0026990D01*
X0212032Y0027063D01*
X0212204Y0027132D01*
X0212377Y0027196D01*
X0212552Y0027256D01*
X0212729Y0027312D01*
X0212906Y0027364D01*
X0213085Y0027411D01*
X0213265Y0027454D01*
X0213446Y0027492D01*
X0213628Y0027526D01*
X0213811Y0027555D01*
X0213994Y0027580D01*
X0214178Y0027601D01*
X0214362Y0027617D01*
X0214547Y0027628D01*
X0214732Y0027635D01*
X0214917Y0027637D01*
X0215102Y0027635D01*
X0215287Y0027628D01*
X0215472Y0027617D01*
X0215656Y0027601D01*
X0215840Y0027580D01*
X0216023Y0027555D01*
X0216206Y0027526D01*
X0216388Y0027492D01*
X0216569Y0027454D01*
X0216749Y0027411D01*
X0216928Y0027364D01*
X0217105Y0027312D01*
X0217282Y0027256D01*
X0217457Y0027196D01*
X0217630Y0027132D01*
X0217802Y0027063D01*
X0217972Y0026990D01*
X0218140Y0026913D01*
X0218307Y0026832D01*
X0218471Y0026747D01*
X0218633Y0026658D01*
X0218793Y0026564D01*
X0218950Y0026467D01*
X0219105Y0026366D01*
X0219258Y0026262D01*
X0219408Y0026153D01*
X0219555Y0026041D01*
X0219700Y0025926D01*
X0219841Y0025807D01*
X0219980Y0025684D01*
X0220115Y0025558D01*
X0220248Y0025429D01*
X0220377Y0025296D01*
X0220503Y0025161D01*
X0220626Y0025022D01*
X0220745Y0024881D01*
X0220860Y0024736D01*
X0220972Y0024589D01*
X0221081Y0024439D01*
X0221185Y0024286D01*
X0221286Y0024131D01*
X0221383Y0023974D01*
X0221477Y0023814D01*
X0221566Y0023652D01*
X0221651Y0023488D01*
X0221732Y0023321D01*
X0221809Y0023153D01*
X0221882Y0022983D01*
X0221951Y0022811D01*
X0222015Y0022638D01*
X0222075Y0022463D01*
X0222131Y0022286D01*
X0222183Y0022109D01*
X0222230Y0021930D01*
X0222273Y0021750D01*
X0222311Y0021569D01*
X0222345Y0021387D01*
X0222374Y0021204D01*
X0222399Y0021021D01*
X0222420Y0020837D01*
X0222436Y0020653D01*
X0222447Y0020468D01*
X0222454Y0020283D01*
X0222456Y0020098D01*
X0222454Y0019913D01*
X0222447Y0019728D01*
X0222436Y0019543D01*
X0222420Y0019359D01*
X0222399Y0019175D01*
X0222374Y0018992D01*
X0222345Y0018809D01*
X0222311Y0018627D01*
X0222273Y0018446D01*
X0222230Y0018266D01*
X0222183Y0018087D01*
X0222131Y0017910D01*
X0222075Y0017733D01*
X0222015Y0017558D01*
X0221951Y0017385D01*
X0221882Y0017213D01*
X0221809Y0017043D01*
X0221732Y0016875D01*
X0221651Y0016708D01*
X0221566Y0016544D01*
X0221477Y0016382D01*
X0221383Y0016222D01*
X0221286Y0016065D01*
X0221185Y0015910D01*
X0221081Y0015757D01*
X0220972Y0015607D01*
X0220860Y0015460D01*
X0220745Y0015315D01*
X0220626Y0015174D01*
X0220503Y0015035D01*
X0220377Y0014900D01*
X0220248Y0014767D01*
X0220115Y0014638D01*
X0219980Y0014512D01*
X0219841Y0014389D01*
X0219700Y0014270D01*
X0219555Y0014155D01*
X0219408Y0014043D01*
X0219258Y0013934D01*
X0219105Y0013830D01*
X0218950Y0013729D01*
X0218793Y0013632D01*
X0218633Y0013538D01*
X0218471Y0013449D01*
X0218307Y0013364D01*
X0218140Y0013283D01*
X0217972Y0013206D01*
X0217802Y0013133D01*
X0217630Y0013064D01*
X0217457Y0013000D01*
X0217282Y0012940D01*
X0217105Y0012884D01*
X0216928Y0012832D01*
X0216749Y0012785D01*
X0216569Y0012742D01*
X0216388Y0012704D01*
X0216206Y0012670D01*
X0216023Y0012641D01*
X0215840Y0012616D01*
X0215656Y0012595D01*
X0215472Y0012579D01*
X0215287Y0012568D01*
X0215102Y0012561D01*
X0214917Y0012559D01*
X0214732Y0012561D01*
X0214547Y0012568D01*
X0214362Y0012579D01*
X0214178Y0012595D01*
X0213994Y0012616D01*
X0213811Y0012641D01*
X0213628Y0012670D01*
X0213446Y0012704D01*
X0213265Y0012742D01*
X0213085Y0012785D01*
X0212906Y0012832D01*
X0212729Y0012884D01*
X0212552Y0012940D01*
X0212377Y0013000D01*
X0212204Y0013064D01*
X0212032Y0013133D01*
X0211862Y0013206D01*
X0211694Y0013283D01*
X0211527Y0013364D01*
X0211363Y0013449D01*
X0211201Y0013538D01*
X0211041Y0013632D01*
X0210884Y0013729D01*
X0210729Y0013830D01*
X0210576Y0013934D01*
X0210426Y0014043D01*
X0210279Y0014155D01*
X0210134Y0014270D01*
X0209993Y0014389D01*
X0209854Y0014512D01*
X0209719Y0014638D01*
X0209586Y0014767D01*
X0209457Y0014900D01*
X0209331Y0015035D01*
X0209208Y0015174D01*
X0209089Y0015315D01*
X0208974Y0015460D01*
X0208862Y0015607D01*
X0208753Y0015757D01*
X0208649Y0015910D01*
X0208548Y0016065D01*
X0208451Y0016222D01*
X0208357Y0016382D01*
X0208268Y0016544D01*
X0208183Y0016708D01*
X0208102Y0016875D01*
X0208025Y0017043D01*
X0207952Y0017213D01*
X0207883Y0017385D01*
X0207819Y0017558D01*
X0207759Y0017733D01*
X0207703Y0017910D01*
X0207651Y0018087D01*
X0207604Y0018266D01*
X0207561Y0018446D01*
X0207523Y0018627D01*
X0207489Y0018809D01*
X0207460Y0018992D01*
X0207435Y0019175D01*
X0207414Y0019359D01*
X0207398Y0019543D01*
X0207387Y0019728D01*
X0207380Y0019913D01*
X0207378Y0020098D01*
X0204917Y0029938D02*
X0244917Y0029938D01*
X0244917Y0035945D01*
X0204917Y0035945D01*
X0227378Y0020098D02*
X0227380Y0020283D01*
X0227387Y0020468D01*
X0227398Y0020653D01*
X0227414Y0020837D01*
X0227435Y0021021D01*
X0227460Y0021204D01*
X0227489Y0021387D01*
X0227523Y0021569D01*
X0227561Y0021750D01*
X0227604Y0021930D01*
X0227651Y0022109D01*
X0227703Y0022286D01*
X0227759Y0022463D01*
X0227819Y0022638D01*
X0227883Y0022811D01*
X0227952Y0022983D01*
X0228025Y0023153D01*
X0228102Y0023321D01*
X0228183Y0023488D01*
X0228268Y0023652D01*
X0228357Y0023814D01*
X0228451Y0023974D01*
X0228548Y0024131D01*
X0228649Y0024286D01*
X0228753Y0024439D01*
X0228862Y0024589D01*
X0228974Y0024736D01*
X0229089Y0024881D01*
X0229208Y0025022D01*
X0229331Y0025161D01*
X0229457Y0025296D01*
X0229586Y0025429D01*
X0229719Y0025558D01*
X0229854Y0025684D01*
X0229993Y0025807D01*
X0230134Y0025926D01*
X0230279Y0026041D01*
X0230426Y0026153D01*
X0230576Y0026262D01*
X0230729Y0026366D01*
X0230884Y0026467D01*
X0231041Y0026564D01*
X0231201Y0026658D01*
X0231363Y0026747D01*
X0231527Y0026832D01*
X0231694Y0026913D01*
X0231862Y0026990D01*
X0232032Y0027063D01*
X0232204Y0027132D01*
X0232377Y0027196D01*
X0232552Y0027256D01*
X0232729Y0027312D01*
X0232906Y0027364D01*
X0233085Y0027411D01*
X0233265Y0027454D01*
X0233446Y0027492D01*
X0233628Y0027526D01*
X0233811Y0027555D01*
X0233994Y0027580D01*
X0234178Y0027601D01*
X0234362Y0027617D01*
X0234547Y0027628D01*
X0234732Y0027635D01*
X0234917Y0027637D01*
X0235102Y0027635D01*
X0235287Y0027628D01*
X0235472Y0027617D01*
X0235656Y0027601D01*
X0235840Y0027580D01*
X0236023Y0027555D01*
X0236206Y0027526D01*
X0236388Y0027492D01*
X0236569Y0027454D01*
X0236749Y0027411D01*
X0236928Y0027364D01*
X0237105Y0027312D01*
X0237282Y0027256D01*
X0237457Y0027196D01*
X0237630Y0027132D01*
X0237802Y0027063D01*
X0237972Y0026990D01*
X0238140Y0026913D01*
X0238307Y0026832D01*
X0238471Y0026747D01*
X0238633Y0026658D01*
X0238793Y0026564D01*
X0238950Y0026467D01*
X0239105Y0026366D01*
X0239258Y0026262D01*
X0239408Y0026153D01*
X0239555Y0026041D01*
X0239700Y0025926D01*
X0239841Y0025807D01*
X0239980Y0025684D01*
X0240115Y0025558D01*
X0240248Y0025429D01*
X0240377Y0025296D01*
X0240503Y0025161D01*
X0240626Y0025022D01*
X0240745Y0024881D01*
X0240860Y0024736D01*
X0240972Y0024589D01*
X0241081Y0024439D01*
X0241185Y0024286D01*
X0241286Y0024131D01*
X0241383Y0023974D01*
X0241477Y0023814D01*
X0241566Y0023652D01*
X0241651Y0023488D01*
X0241732Y0023321D01*
X0241809Y0023153D01*
X0241882Y0022983D01*
X0241951Y0022811D01*
X0242015Y0022638D01*
X0242075Y0022463D01*
X0242131Y0022286D01*
X0242183Y0022109D01*
X0242230Y0021930D01*
X0242273Y0021750D01*
X0242311Y0021569D01*
X0242345Y0021387D01*
X0242374Y0021204D01*
X0242399Y0021021D01*
X0242420Y0020837D01*
X0242436Y0020653D01*
X0242447Y0020468D01*
X0242454Y0020283D01*
X0242456Y0020098D01*
X0242454Y0019913D01*
X0242447Y0019728D01*
X0242436Y0019543D01*
X0242420Y0019359D01*
X0242399Y0019175D01*
X0242374Y0018992D01*
X0242345Y0018809D01*
X0242311Y0018627D01*
X0242273Y0018446D01*
X0242230Y0018266D01*
X0242183Y0018087D01*
X0242131Y0017910D01*
X0242075Y0017733D01*
X0242015Y0017558D01*
X0241951Y0017385D01*
X0241882Y0017213D01*
X0241809Y0017043D01*
X0241732Y0016875D01*
X0241651Y0016708D01*
X0241566Y0016544D01*
X0241477Y0016382D01*
X0241383Y0016222D01*
X0241286Y0016065D01*
X0241185Y0015910D01*
X0241081Y0015757D01*
X0240972Y0015607D01*
X0240860Y0015460D01*
X0240745Y0015315D01*
X0240626Y0015174D01*
X0240503Y0015035D01*
X0240377Y0014900D01*
X0240248Y0014767D01*
X0240115Y0014638D01*
X0239980Y0014512D01*
X0239841Y0014389D01*
X0239700Y0014270D01*
X0239555Y0014155D01*
X0239408Y0014043D01*
X0239258Y0013934D01*
X0239105Y0013830D01*
X0238950Y0013729D01*
X0238793Y0013632D01*
X0238633Y0013538D01*
X0238471Y0013449D01*
X0238307Y0013364D01*
X0238140Y0013283D01*
X0237972Y0013206D01*
X0237802Y0013133D01*
X0237630Y0013064D01*
X0237457Y0013000D01*
X0237282Y0012940D01*
X0237105Y0012884D01*
X0236928Y0012832D01*
X0236749Y0012785D01*
X0236569Y0012742D01*
X0236388Y0012704D01*
X0236206Y0012670D01*
X0236023Y0012641D01*
X0235840Y0012616D01*
X0235656Y0012595D01*
X0235472Y0012579D01*
X0235287Y0012568D01*
X0235102Y0012561D01*
X0234917Y0012559D01*
X0234732Y0012561D01*
X0234547Y0012568D01*
X0234362Y0012579D01*
X0234178Y0012595D01*
X0233994Y0012616D01*
X0233811Y0012641D01*
X0233628Y0012670D01*
X0233446Y0012704D01*
X0233265Y0012742D01*
X0233085Y0012785D01*
X0232906Y0012832D01*
X0232729Y0012884D01*
X0232552Y0012940D01*
X0232377Y0013000D01*
X0232204Y0013064D01*
X0232032Y0013133D01*
X0231862Y0013206D01*
X0231694Y0013283D01*
X0231527Y0013364D01*
X0231363Y0013449D01*
X0231201Y0013538D01*
X0231041Y0013632D01*
X0230884Y0013729D01*
X0230729Y0013830D01*
X0230576Y0013934D01*
X0230426Y0014043D01*
X0230279Y0014155D01*
X0230134Y0014270D01*
X0229993Y0014389D01*
X0229854Y0014512D01*
X0229719Y0014638D01*
X0229586Y0014767D01*
X0229457Y0014900D01*
X0229331Y0015035D01*
X0229208Y0015174D01*
X0229089Y0015315D01*
X0228974Y0015460D01*
X0228862Y0015607D01*
X0228753Y0015757D01*
X0228649Y0015910D01*
X0228548Y0016065D01*
X0228451Y0016222D01*
X0228357Y0016382D01*
X0228268Y0016544D01*
X0228183Y0016708D01*
X0228102Y0016875D01*
X0228025Y0017043D01*
X0227952Y0017213D01*
X0227883Y0017385D01*
X0227819Y0017558D01*
X0227759Y0017733D01*
X0227703Y0017910D01*
X0227651Y0018087D01*
X0227604Y0018266D01*
X0227561Y0018446D01*
X0227523Y0018627D01*
X0227489Y0018809D01*
X0227460Y0018992D01*
X0227435Y0019175D01*
X0227414Y0019359D01*
X0227398Y0019543D01*
X0227387Y0019728D01*
X0227380Y0019913D01*
X0227378Y0020098D01*
X0244917Y0012301D02*
X0244917Y0010363D01*
X0244917Y0012301D02*
X0244917Y0028037D01*
X0244917Y0029938D01*
D18*
X0217237Y0037700D02*
X0217237Y0042304D01*
X0215703Y0042304D02*
X0218772Y0042304D01*
X0214168Y0042304D02*
X0214168Y0038467D01*
X0213401Y0037700D01*
X0211866Y0037700D01*
X0211099Y0038467D01*
X0211099Y0042304D01*
X0209564Y0041537D02*
X0208797Y0042304D01*
X0207262Y0042304D01*
X0206495Y0041537D01*
X0206495Y0038467D01*
X0207262Y0037700D01*
X0208797Y0037700D01*
X0209564Y0038467D01*
X0209564Y0041537D01*
X0040300Y0149697D02*
X0035696Y0152767D01*
X0037231Y0154301D02*
X0035696Y0155836D01*
X0040300Y0155836D01*
X0040300Y0157370D02*
X0040300Y0154301D01*
X0040300Y0152767D02*
X0035696Y0149697D01*
X0202232Y0201700D02*
X0203767Y0201700D01*
X0202999Y0201700D02*
X0202999Y0206304D01*
X0202232Y0206304D02*
X0203767Y0206304D01*
X0205301Y0206304D02*
X0208370Y0201700D01*
X0208370Y0206304D01*
X0205301Y0206304D02*
X0205301Y0201700D01*
D19*
X0251000Y0175100D03*
X0251000Y0146700D03*
X0206000Y0110200D03*
X0191000Y0110300D03*
X0166000Y0110200D03*
X0151000Y0121800D03*
X0151000Y0150200D03*
X0166000Y0081800D03*
X0191000Y0081900D03*
X0206000Y0081800D03*
D20*
X0200200Y0060000D03*
X0171800Y0060000D03*
X0190800Y0198000D03*
X0219200Y0198000D03*
D21*
X0126500Y0172300D02*
X0124000Y0172300D01*
X0121500Y0172300D01*
X0121500Y0169800D02*
X0124000Y0169800D01*
X0126500Y0169800D01*
X0188500Y0027200D02*
X0191000Y0027200D01*
X0193500Y0027200D01*
X0193500Y0024700D02*
X0191000Y0024700D01*
X0188500Y0024700D01*
D22*
X0153000Y0185250D03*
M02*
