G75*
%MOMM*%
%OFA0B0*%
%FSLAX33Y33*%
%IPPOS*%
%LPD*%
%AMOC8*
5,1,8,0,0,1.08239X$1,22.5*
%
%ADD10C,3.150*%
%ADD11OC8,3.150*%
%ADD12R,2.800X1.000*%
%ADD13OC8,1.321*%
%ADD14C,2.540*%
%ADD15OC8,2.540*%
%ADD16R,1.800X3.200*%
%ADD17C,1.422*%
%ADD18C,2.000*%
%ADD19R,2.700X1.600*%
%ADD20C,1.270*%
%ADD21C,2.032*%
%ADD22C,0.097*%
%ADD23C,0.762*%
%ADD24C,1.778*%
D10*
X20574Y08636D03*
X20574Y45212D03*
D11*
X20574Y52832D03*
X20574Y16256D03*
D12*
X50482Y36068D03*
X55182Y36068D03*
X55182Y44196D03*
X50482Y44196D03*
D13*
X58928Y46253D03*
X63754Y45949D03*
X57150Y50292D03*
X46990Y50292D03*
X38354Y39624D03*
X31496Y40894D03*
X31496Y45974D03*
X38354Y29464D03*
X42164Y29464D03*
X48514Y29489D03*
X52324Y29464D03*
X58928Y36093D03*
X63754Y35789D03*
X52324Y19304D03*
X48514Y19329D03*
X42164Y19304D03*
X42164Y15240D03*
X48514Y09144D03*
X48514Y04064D03*
X52324Y15240D03*
X32004Y18288D03*
X32004Y23368D03*
D14*
X38862Y43942D03*
X76911Y11887D03*
D15*
X71831Y11887D03*
X38862Y49022D03*
D16*
X55620Y11938D03*
X61220Y11938D03*
D17*
X71933Y24384D02*
X73355Y24384D01*
X73355Y26924D02*
X71933Y26924D01*
X71933Y29464D02*
X73355Y29464D01*
X77013Y28194D02*
X78435Y28194D01*
X78435Y25654D02*
X77013Y25654D01*
X77013Y30734D02*
X78435Y30734D01*
X78435Y33274D02*
X77013Y33274D01*
X77013Y35814D02*
X78435Y35814D01*
X78435Y38354D02*
X77013Y38354D01*
X77013Y40894D02*
X78435Y40894D01*
X73355Y39624D02*
X71933Y39624D01*
X71933Y37084D02*
X73355Y37084D01*
X73355Y34544D02*
X71933Y34544D01*
X71933Y32004D02*
X73355Y32004D01*
X73355Y42164D02*
X71933Y42164D01*
D18*
X51075Y56871D03*
X45995Y56871D03*
X04597Y38121D03*
X04597Y33041D03*
X04597Y27961D03*
X04597Y22881D03*
X54589Y05105D03*
X59669Y05105D03*
D19*
X72949Y49197D03*
X72949Y51997D03*
D20*
X72898Y52959D01*
X61849Y52959D01*
X58039Y56769D01*
X51689Y56769D01*
X51075Y56871D01*
X49530Y54356D02*
X49530Y47371D01*
X42164Y45085D01*
X42164Y29464D01*
X48514Y29464D01*
X48514Y29489D01*
X48514Y29464D02*
X52324Y29464D01*
X54610Y28448D02*
X54610Y31940D01*
X50482Y36068D01*
X46990Y36068D01*
X46990Y43942D01*
X47244Y44196D01*
X50292Y44196D01*
X50546Y43942D01*
X50546Y44132D01*
X50482Y44196D01*
X55182Y44196D02*
X57023Y44069D01*
X62230Y35814D01*
X63754Y35789D01*
X63754Y30226D01*
X59182Y32766D02*
X58928Y33020D01*
X58928Y35814D01*
X58928Y36093D01*
X58928Y36195D01*
X58928Y35814D02*
X56515Y35814D01*
X55182Y36068D01*
X63754Y41910D02*
X65786Y39878D01*
X65786Y36322D01*
X66294Y35814D01*
X68834Y32766D02*
X69596Y32004D01*
X72644Y32004D01*
X75184Y31877D02*
X77597Y33274D01*
X77724Y33274D01*
X75184Y31877D02*
X75184Y25781D01*
X73914Y24511D01*
X73914Y24384D01*
X73152Y24384D01*
X72644Y24384D01*
X77724Y28194D02*
X80518Y28194D01*
X80518Y17526D01*
X73406Y17526D01*
X71882Y15494D01*
X71882Y12344D01*
X71831Y11887D01*
X74422Y14986D02*
X74422Y08382D01*
X66802Y08382D01*
X61220Y11938D02*
X61214Y12319D01*
X61214Y14859D01*
X52324Y14859D01*
X52324Y15240D01*
X52324Y19304D01*
X48514Y19304D01*
X48514Y19329D01*
X42164Y19304D02*
X42164Y15240D01*
X48514Y11684D02*
X48514Y09144D01*
X48514Y11684D02*
X55499Y11684D01*
X55620Y11938D01*
X74422Y14986D02*
X74930Y15494D01*
X82042Y15494D01*
X82550Y16002D01*
X82550Y30226D01*
X82042Y30734D01*
X77724Y30734D01*
X77724Y35814D02*
X84074Y35814D01*
X84582Y35306D01*
X84582Y13462D01*
X83058Y11938D01*
X76962Y11938D01*
X76911Y11887D01*
X54610Y28448D02*
X53340Y27178D01*
X20574Y27178D01*
X38354Y29464D02*
X42164Y29464D01*
X38354Y39624D02*
X38354Y43434D01*
X38862Y43942D01*
X49530Y54356D02*
X56896Y54356D01*
X60706Y50546D01*
X68834Y50546D01*
X70104Y48514D02*
X70104Y39624D01*
X72644Y39624D01*
X74930Y41529D02*
X75565Y38354D01*
X77470Y38354D01*
X77724Y38354D01*
X77724Y40894D02*
X77724Y48641D01*
X75946Y50419D01*
X72949Y49197D02*
X72949Y48565D01*
X72898Y48514D01*
X70104Y48514D01*
X57404Y48514D01*
X57404Y49784D01*
X57150Y50292D01*
X58928Y46253D02*
X59563Y45847D01*
X63754Y45847D01*
X63754Y45949D01*
X63754Y45847D02*
X63754Y41910D01*
X72644Y42164D02*
X74930Y42164D01*
X74930Y41529D01*
D21*
X17272Y04064D02*
X01778Y19558D01*
X01778Y35810D01*
X04597Y38121D01*
X05863Y38121D01*
X20574Y52832D01*
X25146Y52832D01*
X32004Y45974D01*
X31496Y45974D01*
X34798Y49022D02*
X34798Y40894D01*
X31496Y40894D01*
X20574Y40894D01*
X20574Y45212D01*
X20574Y40894D02*
X20574Y28194D01*
X20574Y27178D01*
X20574Y16256D01*
X28194Y20574D02*
X28194Y04064D01*
X17272Y04064D01*
X18842Y08636D02*
X04597Y22881D01*
X04597Y27961D02*
X05101Y27961D01*
X05334Y28194D01*
X20574Y28194D01*
X24384Y24384D02*
X32004Y24384D01*
X53594Y24384D01*
X56896Y27178D01*
X66294Y27178D01*
X66294Y35306D01*
X69342Y35306D01*
X70104Y34544D01*
X72644Y34544D01*
X77470Y38354D02*
X85090Y38354D01*
X86614Y38354D01*
X88138Y36830D01*
X88138Y09398D01*
X84582Y05842D01*
X84582Y01778D01*
X55118Y01778D01*
X54589Y02307D01*
X54589Y05105D01*
X54610Y02794D02*
X48514Y02794D01*
X48514Y03302D01*
X48514Y04064D01*
X48514Y03302D02*
X32258Y03302D01*
X32258Y18288D01*
X32004Y18288D01*
X34290Y20574D02*
X28194Y20574D01*
X32004Y23368D02*
X32004Y24384D01*
X35306Y21844D02*
X34544Y20574D01*
X34290Y20574D01*
X35306Y21844D01*
X35306Y21336D01*
X34544Y20574D01*
X35306Y21844D02*
X54610Y21844D01*
X58166Y24384D01*
X73152Y24384D01*
X72644Y26924D02*
X72390Y27178D01*
X66294Y27178D01*
X66040Y20574D02*
X65024Y19558D01*
X65024Y11938D01*
X61220Y11938D01*
X65024Y11938D02*
X65024Y10922D01*
X59182Y05080D01*
X59182Y04318D01*
X55118Y01778D02*
X54885Y01778D01*
X66040Y20574D02*
X76454Y20574D01*
X77724Y21844D01*
X77724Y25654D01*
X66294Y35306D02*
X66294Y35814D01*
X66294Y36068D01*
X85090Y38354D02*
X85090Y59690D01*
X45995Y59690D01*
X45995Y56871D01*
X45995Y50292D01*
X46990Y50292D01*
X38862Y49022D02*
X38862Y56871D01*
X45995Y56871D01*
X38862Y49022D02*
X34798Y49022D01*
X04597Y33041D02*
X04597Y27961D01*
X24384Y24384D02*
X24384Y09144D01*
X23876Y08636D01*
X20574Y08636D01*
X18842Y08636D01*
D22*
X59182Y04318D02*
X59669Y04805D01*
X59669Y05105D01*
D23*
X68834Y50546D02*
X75819Y50546D01*
X75946Y50419D01*
D24*
X68834Y32766D03*
X63754Y30226D03*
X59182Y32766D03*
X66802Y08382D03*
M02*
