G75*
%MOMM*%
%OFA0B0*%
%FSLAX33Y33*%
%IPPOS*%
%LPD*%
%AMOC8*
5,1,8,0,0,1.08239X$1,22.5*
%
%ADD10C,0.000*%
D10*
X00254Y00254D02*
X00254Y61204D01*
X91364Y61204D01*
X91364Y00254D01*
X00254Y00254D01*
X01654Y03254D02*
X01656Y03334D01*
X01662Y03413D01*
X01672Y03492D01*
X01686Y03571D01*
X01703Y03649D01*
X01725Y03726D01*
X01750Y03801D01*
X01780Y03875D01*
X01812Y03948D01*
X01849Y04019D01*
X01889Y04088D01*
X01932Y04155D01*
X01979Y04220D01*
X02028Y04282D01*
X02081Y04342D01*
X02137Y04399D01*
X02195Y04454D01*
X02256Y04505D01*
X02320Y04553D01*
X02386Y04598D01*
X02454Y04640D01*
X02524Y04678D01*
X02596Y04712D01*
X02669Y04743D01*
X02744Y04771D01*
X02821Y04794D01*
X02898Y04814D01*
X02976Y04830D01*
X03055Y04842D01*
X03134Y04850D01*
X03214Y04854D01*
X03294Y04854D01*
X03374Y04850D01*
X03453Y04842D01*
X03532Y04830D01*
X03610Y04814D01*
X03687Y04794D01*
X03764Y04771D01*
X03839Y04743D01*
X03912Y04712D01*
X03984Y04678D01*
X04054Y04640D01*
X04122Y04598D01*
X04188Y04553D01*
X04252Y04505D01*
X04313Y04454D01*
X04371Y04399D01*
X04427Y04342D01*
X04480Y04282D01*
X04529Y04220D01*
X04576Y04155D01*
X04619Y04088D01*
X04659Y04019D01*
X04696Y03948D01*
X04728Y03875D01*
X04758Y03801D01*
X04783Y03726D01*
X04805Y03649D01*
X04822Y03571D01*
X04836Y03492D01*
X04846Y03413D01*
X04852Y03334D01*
X04854Y03254D01*
X04852Y03174D01*
X04846Y03095D01*
X04836Y03016D01*
X04822Y02937D01*
X04805Y02859D01*
X04783Y02782D01*
X04758Y02707D01*
X04728Y02633D01*
X04696Y02560D01*
X04659Y02489D01*
X04619Y02420D01*
X04576Y02353D01*
X04529Y02288D01*
X04480Y02226D01*
X04427Y02166D01*
X04371Y02109D01*
X04313Y02054D01*
X04252Y02003D01*
X04188Y01955D01*
X04122Y01910D01*
X04054Y01868D01*
X03984Y01830D01*
X03912Y01796D01*
X03839Y01765D01*
X03764Y01737D01*
X03687Y01714D01*
X03610Y01694D01*
X03532Y01678D01*
X03453Y01666D01*
X03374Y01658D01*
X03294Y01654D01*
X03214Y01654D01*
X03134Y01658D01*
X03055Y01666D01*
X02976Y01678D01*
X02898Y01694D01*
X02821Y01714D01*
X02744Y01737D01*
X02669Y01765D01*
X02596Y01796D01*
X02524Y01830D01*
X02454Y01868D01*
X02386Y01910D01*
X02320Y01955D01*
X02256Y02003D01*
X02195Y02054D01*
X02137Y02109D01*
X02081Y02166D01*
X02028Y02226D01*
X01979Y02288D01*
X01932Y02353D01*
X01889Y02420D01*
X01849Y02489D01*
X01812Y02560D01*
X01780Y02633D01*
X01750Y02707D01*
X01725Y02782D01*
X01703Y02859D01*
X01686Y02937D01*
X01672Y03016D01*
X01662Y03095D01*
X01656Y03174D01*
X01654Y03254D01*
X01654Y58254D02*
X01656Y58334D01*
X01662Y58413D01*
X01672Y58492D01*
X01686Y58571D01*
X01703Y58649D01*
X01725Y58726D01*
X01750Y58801D01*
X01780Y58875D01*
X01812Y58948D01*
X01849Y59019D01*
X01889Y59088D01*
X01932Y59155D01*
X01979Y59220D01*
X02028Y59282D01*
X02081Y59342D01*
X02137Y59399D01*
X02195Y59454D01*
X02256Y59505D01*
X02320Y59553D01*
X02386Y59598D01*
X02454Y59640D01*
X02524Y59678D01*
X02596Y59712D01*
X02669Y59743D01*
X02744Y59771D01*
X02821Y59794D01*
X02898Y59814D01*
X02976Y59830D01*
X03055Y59842D01*
X03134Y59850D01*
X03214Y59854D01*
X03294Y59854D01*
X03374Y59850D01*
X03453Y59842D01*
X03532Y59830D01*
X03610Y59814D01*
X03687Y59794D01*
X03764Y59771D01*
X03839Y59743D01*
X03912Y59712D01*
X03984Y59678D01*
X04054Y59640D01*
X04122Y59598D01*
X04188Y59553D01*
X04252Y59505D01*
X04313Y59454D01*
X04371Y59399D01*
X04427Y59342D01*
X04480Y59282D01*
X04529Y59220D01*
X04576Y59155D01*
X04619Y59088D01*
X04659Y59019D01*
X04696Y58948D01*
X04728Y58875D01*
X04758Y58801D01*
X04783Y58726D01*
X04805Y58649D01*
X04822Y58571D01*
X04836Y58492D01*
X04846Y58413D01*
X04852Y58334D01*
X04854Y58254D01*
X04852Y58174D01*
X04846Y58095D01*
X04836Y58016D01*
X04822Y57937D01*
X04805Y57859D01*
X04783Y57782D01*
X04758Y57707D01*
X04728Y57633D01*
X04696Y57560D01*
X04659Y57489D01*
X04619Y57420D01*
X04576Y57353D01*
X04529Y57288D01*
X04480Y57226D01*
X04427Y57166D01*
X04371Y57109D01*
X04313Y57054D01*
X04252Y57003D01*
X04188Y56955D01*
X04122Y56910D01*
X04054Y56868D01*
X03984Y56830D01*
X03912Y56796D01*
X03839Y56765D01*
X03764Y56737D01*
X03687Y56714D01*
X03610Y56694D01*
X03532Y56678D01*
X03453Y56666D01*
X03374Y56658D01*
X03294Y56654D01*
X03214Y56654D01*
X03134Y56658D01*
X03055Y56666D01*
X02976Y56678D01*
X02898Y56694D01*
X02821Y56714D01*
X02744Y56737D01*
X02669Y56765D01*
X02596Y56796D01*
X02524Y56830D01*
X02454Y56868D01*
X02386Y56910D01*
X02320Y56955D01*
X02256Y57003D01*
X02195Y57054D01*
X02137Y57109D01*
X02081Y57166D01*
X02028Y57226D01*
X01979Y57288D01*
X01932Y57353D01*
X01889Y57420D01*
X01849Y57489D01*
X01812Y57560D01*
X01780Y57633D01*
X01750Y57707D01*
X01725Y57782D01*
X01703Y57859D01*
X01686Y57937D01*
X01672Y58016D01*
X01662Y58095D01*
X01656Y58174D01*
X01654Y58254D01*
X86654Y58254D02*
X86656Y58334D01*
X86662Y58413D01*
X86672Y58492D01*
X86686Y58571D01*
X86703Y58649D01*
X86725Y58726D01*
X86750Y58801D01*
X86780Y58875D01*
X86812Y58948D01*
X86849Y59019D01*
X86889Y59088D01*
X86932Y59155D01*
X86979Y59220D01*
X87028Y59282D01*
X87081Y59342D01*
X87137Y59399D01*
X87195Y59454D01*
X87256Y59505D01*
X87320Y59553D01*
X87386Y59598D01*
X87454Y59640D01*
X87524Y59678D01*
X87596Y59712D01*
X87669Y59743D01*
X87744Y59771D01*
X87821Y59794D01*
X87898Y59814D01*
X87976Y59830D01*
X88055Y59842D01*
X88134Y59850D01*
X88214Y59854D01*
X88294Y59854D01*
X88374Y59850D01*
X88453Y59842D01*
X88532Y59830D01*
X88610Y59814D01*
X88687Y59794D01*
X88764Y59771D01*
X88839Y59743D01*
X88912Y59712D01*
X88984Y59678D01*
X89054Y59640D01*
X89122Y59598D01*
X89188Y59553D01*
X89252Y59505D01*
X89313Y59454D01*
X89371Y59399D01*
X89427Y59342D01*
X89480Y59282D01*
X89529Y59220D01*
X89576Y59155D01*
X89619Y59088D01*
X89659Y59019D01*
X89696Y58948D01*
X89728Y58875D01*
X89758Y58801D01*
X89783Y58726D01*
X89805Y58649D01*
X89822Y58571D01*
X89836Y58492D01*
X89846Y58413D01*
X89852Y58334D01*
X89854Y58254D01*
X89852Y58174D01*
X89846Y58095D01*
X89836Y58016D01*
X89822Y57937D01*
X89805Y57859D01*
X89783Y57782D01*
X89758Y57707D01*
X89728Y57633D01*
X89696Y57560D01*
X89659Y57489D01*
X89619Y57420D01*
X89576Y57353D01*
X89529Y57288D01*
X89480Y57226D01*
X89427Y57166D01*
X89371Y57109D01*
X89313Y57054D01*
X89252Y57003D01*
X89188Y56955D01*
X89122Y56910D01*
X89054Y56868D01*
X88984Y56830D01*
X88912Y56796D01*
X88839Y56765D01*
X88764Y56737D01*
X88687Y56714D01*
X88610Y56694D01*
X88532Y56678D01*
X88453Y56666D01*
X88374Y56658D01*
X88294Y56654D01*
X88214Y56654D01*
X88134Y56658D01*
X88055Y56666D01*
X87976Y56678D01*
X87898Y56694D01*
X87821Y56714D01*
X87744Y56737D01*
X87669Y56765D01*
X87596Y56796D01*
X87524Y56830D01*
X87454Y56868D01*
X87386Y56910D01*
X87320Y56955D01*
X87256Y57003D01*
X87195Y57054D01*
X87137Y57109D01*
X87081Y57166D01*
X87028Y57226D01*
X86979Y57288D01*
X86932Y57353D01*
X86889Y57420D01*
X86849Y57489D01*
X86812Y57560D01*
X86780Y57633D01*
X86750Y57707D01*
X86725Y57782D01*
X86703Y57859D01*
X86686Y57937D01*
X86672Y58016D01*
X86662Y58095D01*
X86656Y58174D01*
X86654Y58254D01*
X86654Y03254D02*
X86656Y03334D01*
X86662Y03413D01*
X86672Y03492D01*
X86686Y03571D01*
X86703Y03649D01*
X86725Y03726D01*
X86750Y03801D01*
X86780Y03875D01*
X86812Y03948D01*
X86849Y04019D01*
X86889Y04088D01*
X86932Y04155D01*
X86979Y04220D01*
X87028Y04282D01*
X87081Y04342D01*
X87137Y04399D01*
X87195Y04454D01*
X87256Y04505D01*
X87320Y04553D01*
X87386Y04598D01*
X87454Y04640D01*
X87524Y04678D01*
X87596Y04712D01*
X87669Y04743D01*
X87744Y04771D01*
X87821Y04794D01*
X87898Y04814D01*
X87976Y04830D01*
X88055Y04842D01*
X88134Y04850D01*
X88214Y04854D01*
X88294Y04854D01*
X88374Y04850D01*
X88453Y04842D01*
X88532Y04830D01*
X88610Y04814D01*
X88687Y04794D01*
X88764Y04771D01*
X88839Y04743D01*
X88912Y04712D01*
X88984Y04678D01*
X89054Y04640D01*
X89122Y04598D01*
X89188Y04553D01*
X89252Y04505D01*
X89313Y04454D01*
X89371Y04399D01*
X89427Y04342D01*
X89480Y04282D01*
X89529Y04220D01*
X89576Y04155D01*
X89619Y04088D01*
X89659Y04019D01*
X89696Y03948D01*
X89728Y03875D01*
X89758Y03801D01*
X89783Y03726D01*
X89805Y03649D01*
X89822Y03571D01*
X89836Y03492D01*
X89846Y03413D01*
X89852Y03334D01*
X89854Y03254D01*
X89852Y03174D01*
X89846Y03095D01*
X89836Y03016D01*
X89822Y02937D01*
X89805Y02859D01*
X89783Y02782D01*
X89758Y02707D01*
X89728Y02633D01*
X89696Y02560D01*
X89659Y02489D01*
X89619Y02420D01*
X89576Y02353D01*
X89529Y02288D01*
X89480Y02226D01*
X89427Y02166D01*
X89371Y02109D01*
X89313Y02054D01*
X89252Y02003D01*
X89188Y01955D01*
X89122Y01910D01*
X89054Y01868D01*
X88984Y01830D01*
X88912Y01796D01*
X88839Y01765D01*
X88764Y01737D01*
X88687Y01714D01*
X88610Y01694D01*
X88532Y01678D01*
X88453Y01666D01*
X88374Y01658D01*
X88294Y01654D01*
X88214Y01654D01*
X88134Y01658D01*
X88055Y01666D01*
X87976Y01678D01*
X87898Y01694D01*
X87821Y01714D01*
X87744Y01737D01*
X87669Y01765D01*
X87596Y01796D01*
X87524Y01830D01*
X87454Y01868D01*
X87386Y01910D01*
X87320Y01955D01*
X87256Y02003D01*
X87195Y02054D01*
X87137Y02109D01*
X87081Y02166D01*
X87028Y02226D01*
X86979Y02288D01*
X86932Y02353D01*
X86889Y02420D01*
X86849Y02489D01*
X86812Y02560D01*
X86780Y02633D01*
X86750Y02707D01*
X86725Y02782D01*
X86703Y02859D01*
X86686Y02937D01*
X86672Y03016D01*
X86662Y03095D01*
X86656Y03174D01*
X86654Y03254D01*
M02*
