G75*
%MOIN*%
%OFA0B0*%
%FSLAX25Y25*%
%IPPOS*%
%LPD*%
%AMOC8*
5,1,8,0,0,1.08239X$1,22.5*
%
%ADD10C,0.13398*%
%ADD11C,0.13200*%
%ADD12OC8,0.13200*%
%ADD13R,0.11824X0.04737*%
%ADD14OC8,0.06000*%
%ADD15C,0.10800*%
%ADD16OC8,0.10800*%
%ADD17R,0.07887X0.13398*%
%ADD18C,0.06400*%
%ADD19C,0.08674*%
%ADD20R,0.11430X0.07099*%
%ADD21C,0.07800*%
D10*
X0012811Y0012811D03*
X0012811Y0229346D03*
X0347457Y0229346D03*
X0347457Y0012811D03*
D11*
X0081000Y0034000D03*
X0081000Y0178000D03*
D12*
X0081000Y0208000D03*
X0081000Y0064000D03*
D13*
X0198748Y0142000D03*
X0217252Y0142000D03*
X0217252Y0174000D03*
X0198748Y0174000D03*
D14*
X0232000Y0182100D03*
X0251000Y0180900D03*
X0225000Y0198000D03*
X0185000Y0198000D03*
X0151000Y0156000D03*
X0124000Y0161000D03*
X0124000Y0181000D03*
X0151000Y0116000D03*
X0166000Y0116000D03*
X0191000Y0116100D03*
X0206000Y0116000D03*
X0232000Y0142100D03*
X0251000Y0140900D03*
X0206000Y0076000D03*
X0191000Y0076100D03*
X0166000Y0076000D03*
X0166000Y0060000D03*
X0191000Y0036000D03*
X0191000Y0016000D03*
X0206000Y0060000D03*
X0126000Y0072000D03*
X0126000Y0092000D03*
D15*
X0153000Y0173000D03*
X0302800Y0046800D03*
D16*
X0282800Y0046800D03*
X0153000Y0193000D03*
D17*
X0218976Y0047000D03*
X0241024Y0047000D03*
D18*
X0283200Y0096000D02*
X0288800Y0096000D01*
X0288800Y0106000D02*
X0283200Y0106000D01*
X0283200Y0116000D02*
X0288800Y0116000D01*
X0303200Y0111000D02*
X0308800Y0111000D01*
X0308800Y0101000D02*
X0303200Y0101000D01*
X0303200Y0121000D02*
X0308800Y0121000D01*
X0308800Y0131000D02*
X0303200Y0131000D01*
X0303200Y0141000D02*
X0308800Y0141000D01*
X0308800Y0151000D02*
X0303200Y0151000D01*
X0303200Y0161000D02*
X0308800Y0161000D01*
X0288800Y0156000D02*
X0283200Y0156000D01*
X0283200Y0146000D02*
X0288800Y0146000D01*
X0288800Y0136000D02*
X0283200Y0136000D01*
X0283200Y0126000D02*
X0288800Y0126000D01*
X0288800Y0166000D02*
X0283200Y0166000D01*
D19*
X0201083Y0223902D03*
X0181083Y0223902D03*
X0018098Y0150083D03*
X0018098Y0130083D03*
X0018098Y0110083D03*
X0018098Y0090083D03*
X0214917Y0020098D03*
X0234917Y0020098D03*
D20*
X0287200Y0193688D03*
X0287200Y0204712D03*
D21*
X0271000Y0129000D03*
X0251000Y0119000D03*
X0233000Y0129000D03*
X0263000Y0033000D03*
M02*
